SplineFontDB: 3.2
FontName: Untitled3
FullName: Untitled3
FamilyName: Untitled3
Weight: Regular
Copyright: Copyright (c) 2023, SwedishMask
UComments: "2023-6-28: Created with FontForge (http://fontforge.org)"
Version: 001.000
ItalicAngle: 0
UnderlinePosition: -100
UnderlineWidth: 50
Ascent: 800
Descent: 200
InvalidEm: 0
LayerCount: 2
Layer: 0 0 "Back" 1
Layer: 1 0 "Fore" 0
XUID: [1021 437 648209563 4128303]
StyleMap: 0x0000
FSType: 0
OS2Version: 0
OS2_WeightWidthSlopeOnly: 0
OS2_UseTypoMetrics: 1
CreationTime: 1687934753
ModificationTime: 1687934753
OS2TypoAscent: 0
OS2TypoAOffset: 1
OS2TypoDescent: 0
OS2TypoDOffset: 1
OS2TypoLinegap: 90
OS2WinAscent: 0
OS2WinAOffset: 1
OS2WinDescent: 0
OS2WinDOffset: 1
HheadAscent: 0
HheadAOffset: 1
HheadDescent: 0
HheadDOffset: 1
DEI: 91125
Encoding: ISO8859-1
UnicodeInterp: none
NameList: AGL For New Fonts
DisplaySize: -48
AntiAlias: 1
FitToEm: 0
WinInfo: 270 27 9
OnlyBitmaps: 1
BeginChars: 512 512

StartChar: uni0001
Encoding: 1 1 1
Width: 1000
LayerCount: 2
Fore
SplineSet
0 800 m 0
 333 800 l 0
 333 467 l 0
 0 467 l 0
 0 800 l 0
EndSplineSet
EndChar

StartChar: uni0002
Encoding: 2 2 2
Width: 1000
LayerCount: 2
Fore
SplineSet
333 800 m 0
 666 800 l 0
 666 467 l 0
 333 467 l 0
 333 800 l 0
EndSplineSet
EndChar

StartChar: uni0003
Encoding: 3 3 3
Width: 1000
LayerCount: 2
Fore
SplineSet
333 800 m 0
 666 800 l 0
 666 467 l 0
 333 467 l 0
 333 800 l 0
0 800 m 0
 333 800 l 0
 333 467 l 0
 0 467 l 0
 0 800 l 0
EndSplineSet
EndChar

StartChar: uni0004
Encoding: 4 4 4
Width: 1000
LayerCount: 2
Fore
SplineSet
666 800 m 0
 999 800 l 0
 999 467 l 0
 666 467 l 0
 666 800 l 0
EndSplineSet
EndChar

StartChar: uni0005
Encoding: 5 5 5
Width: 1000
LayerCount: 2
Fore
SplineSet
666 800 m 0
 999 800 l 0
 999 467 l 0
 666 467 l 0
 666 800 l 0
0 800 m 0
 333 800 l 0
 333 467 l 0
 0 467 l 0
 0 800 l 0
EndSplineSet
EndChar

StartChar: uni0006
Encoding: 6 6 6
Width: 1000
LayerCount: 2
Fore
SplineSet
666 800 m 0
 999 800 l 0
 999 467 l 0
 666 467 l 0
 666 800 l 0
333 800 m 0
 666 800 l 0
 666 467 l 0
 333 467 l 0
 333 800 l 0
EndSplineSet
EndChar

StartChar: uni0007
Encoding: 7 7 7
Width: 1000
LayerCount: 2
Fore
SplineSet
666 800 m 0
 999 800 l 0
 999 467 l 0
 666 467 l 0
 666 800 l 0
333 800 m 0
 666 800 l 0
 666 467 l 0
 333 467 l 0
 333 800 l 0
0 800 m 0
 333 800 l 0
 333 467 l 0
 0 467 l 0
 0 800 l 0
EndSplineSet
EndChar

StartChar: uni0008
Encoding: 8 8 8
Width: 1000
LayerCount: 2
Fore
SplineSet
0 467 m 0
 333 467 l 0
 333 134 l 0
 0 134 l 0
 0 467 l 0
EndSplineSet
EndChar

StartChar: uni0009
Encoding: 9 9 9
Width: 1000
LayerCount: 2
Fore
SplineSet
0 467 m 0
 333 467 l 0
 333 134 l 0
 0 134 l 0
 0 467 l 0
0 800 m 0
 333 800 l 0
 333 467 l 0
 0 467 l 0
 0 800 l 0
EndSplineSet
EndChar

StartChar: uni000A
Encoding: 10 10 10
Width: 1000
LayerCount: 2
Fore
SplineSet
0 467 m 0
 333 467 l 0
 333 134 l 0
 0 134 l 0
 0 467 l 0
333 800 m 0
 666 800 l 0
 666 467 l 0
 333 467 l 0
 333 800 l 0
EndSplineSet
EndChar

StartChar: uni000B
Encoding: 11 11 11
Width: 1000
LayerCount: 2
Fore
SplineSet
0 467 m 0
 333 467 l 0
 333 134 l 0
 0 134 l 0
 0 467 l 0
333 800 m 0
 666 800 l 0
 666 467 l 0
 333 467 l 0
 333 800 l 0
0 800 m 0
 333 800 l 0
 333 467 l 0
 0 467 l 0
 0 800 l 0
EndSplineSet
EndChar

StartChar: uni000C
Encoding: 12 12 12
Width: 1000
LayerCount: 2
Fore
SplineSet
0 467 m 0
 333 467 l 0
 333 134 l 0
 0 134 l 0
 0 467 l 0
666 800 m 0
 999 800 l 0
 999 467 l 0
 666 467 l 0
 666 800 l 0
EndSplineSet
EndChar

StartChar: uni000D
Encoding: 13 13 13
Width: 1000
LayerCount: 2
Fore
SplineSet
0 467 m 0
 333 467 l 0
 333 134 l 0
 0 134 l 0
 0 467 l 0
666 800 m 0
 999 800 l 0
 999 467 l 0
 666 467 l 0
 666 800 l 0
0 800 m 0
 333 800 l 0
 333 467 l 0
 0 467 l 0
 0 800 l 0
EndSplineSet
EndChar

StartChar: uni000E
Encoding: 14 14 14
Width: 1000
LayerCount: 2
Fore
SplineSet
0 467 m 0
 333 467 l 0
 333 134 l 0
 0 134 l 0
 0 467 l 0
666 800 m 0
 999 800 l 0
 999 467 l 0
 666 467 l 0
 666 800 l 0
333 800 m 0
 666 800 l 0
 666 467 l 0
 333 467 l 0
 333 800 l 0
EndSplineSet
EndChar

StartChar: uni000F
Encoding: 15 15 15
Width: 1000
LayerCount: 2
Fore
SplineSet
0 467 m 0
 333 467 l 0
 333 134 l 0
 0 134 l 0
 0 467 l 0
666 800 m 0
 999 800 l 0
 999 467 l 0
 666 467 l 0
 666 800 l 0
333 800 m 0
 666 800 l 0
 666 467 l 0
 333 467 l 0
 333 800 l 0
0 800 m 0
 333 800 l 0
 333 467 l 0
 0 467 l 0
 0 800 l 0
EndSplineSet
EndChar

StartChar: uni0010
Encoding: 16 16 16
Width: 1000
LayerCount: 2
Fore
SplineSet
333 467 m 0
 666 467 l 0
 666 134 l 0
 333 134 l 0
 333 467 l 0
EndSplineSet
EndChar

StartChar: uni0011
Encoding: 17 17 17
Width: 1000
LayerCount: 2
Fore
SplineSet
333 467 m 0
 666 467 l 0
 666 134 l 0
 333 134 l 0
 333 467 l 0
0 800 m 0
 333 800 l 0
 333 467 l 0
 0 467 l 0
 0 800 l 0
EndSplineSet
EndChar

StartChar: uni0012
Encoding: 18 18 18
Width: 1000
LayerCount: 2
Fore
SplineSet
333 467 m 0
 666 467 l 0
 666 134 l 0
 333 134 l 0
 333 467 l 0
333 800 m 0
 666 800 l 0
 666 467 l 0
 333 467 l 0
 333 800 l 0
EndSplineSet
EndChar

StartChar: uni0013
Encoding: 19 19 19
Width: 1000
LayerCount: 2
Fore
SplineSet
333 467 m 0
 666 467 l 0
 666 134 l 0
 333 134 l 0
 333 467 l 0
333 800 m 0
 666 800 l 0
 666 467 l 0
 333 467 l 0
 333 800 l 0
0 800 m 0
 333 800 l 0
 333 467 l 0
 0 467 l 0
 0 800 l 0
EndSplineSet
EndChar

StartChar: uni0014
Encoding: 20 20 20
Width: 1000
LayerCount: 2
Fore
SplineSet
333 467 m 0
 666 467 l 0
 666 134 l 0
 333 134 l 0
 333 467 l 0
666 800 m 0
 999 800 l 0
 999 467 l 0
 666 467 l 0
 666 800 l 0
EndSplineSet
EndChar

StartChar: uni0015
Encoding: 21 21 21
Width: 1000
LayerCount: 2
Fore
SplineSet
333 467 m 0
 666 467 l 0
 666 134 l 0
 333 134 l 0
 333 467 l 0
666 800 m 0
 999 800 l 0
 999 467 l 0
 666 467 l 0
 666 800 l 0
0 800 m 0
 333 800 l 0
 333 467 l 0
 0 467 l 0
 0 800 l 0
EndSplineSet
EndChar

StartChar: uni0016
Encoding: 22 22 22
Width: 1000
LayerCount: 2
Fore
SplineSet
333 467 m 0
 666 467 l 0
 666 134 l 0
 333 134 l 0
 333 467 l 0
666 800 m 0
 999 800 l 0
 999 467 l 0
 666 467 l 0
 666 800 l 0
333 800 m 0
 666 800 l 0
 666 467 l 0
 333 467 l 0
 333 800 l 0
EndSplineSet
EndChar

StartChar: uni0017
Encoding: 23 23 23
Width: 1000
LayerCount: 2
Fore
SplineSet
333 467 m 0
 666 467 l 0
 666 134 l 0
 333 134 l 0
 333 467 l 0
666 800 m 0
 999 800 l 0
 999 467 l 0
 666 467 l 0
 666 800 l 0
333 800 m 0
 666 800 l 0
 666 467 l 0
 333 467 l 0
 333 800 l 0
0 800 m 0
 333 800 l 0
 333 467 l 0
 0 467 l 0
 0 800 l 0
EndSplineSet
EndChar

StartChar: uni0018
Encoding: 24 24 24
Width: 1000
LayerCount: 2
Fore
SplineSet
333 467 m 0
 666 467 l 0
 666 134 l 0
 333 134 l 0
 333 467 l 0
0 467 m 0
 333 467 l 0
 333 134 l 0
 0 134 l 0
 0 467 l 0
EndSplineSet
EndChar

StartChar: uni0019
Encoding: 25 25 25
Width: 1000
LayerCount: 2
Fore
SplineSet
333 467 m 0
 666 467 l 0
 666 134 l 0
 333 134 l 0
 333 467 l 0
0 467 m 0
 333 467 l 0
 333 134 l 0
 0 134 l 0
 0 467 l 0
0 800 m 0
 333 800 l 0
 333 467 l 0
 0 467 l 0
 0 800 l 0
EndSplineSet
EndChar

StartChar: uni001A
Encoding: 26 26 26
Width: 1000
LayerCount: 2
Fore
SplineSet
333 467 m 0
 666 467 l 0
 666 134 l 0
 333 134 l 0
 333 467 l 0
0 467 m 0
 333 467 l 0
 333 134 l 0
 0 134 l 0
 0 467 l 0
333 800 m 0
 666 800 l 0
 666 467 l 0
 333 467 l 0
 333 800 l 0
EndSplineSet
EndChar

StartChar: uni001B
Encoding: 27 27 27
Width: 1000
LayerCount: 2
Fore
SplineSet
333 467 m 0
 666 467 l 0
 666 134 l 0
 333 134 l 0
 333 467 l 0
0 467 m 0
 333 467 l 0
 333 134 l 0
 0 134 l 0
 0 467 l 0
333 800 m 0
 666 800 l 0
 666 467 l 0
 333 467 l 0
 333 800 l 0
0 800 m 0
 333 800 l 0
 333 467 l 0
 0 467 l 0
 0 800 l 0
EndSplineSet
EndChar

StartChar: uni001C
Encoding: 28 28 28
Width: 1000
LayerCount: 2
Fore
SplineSet
333 467 m 0
 666 467 l 0
 666 134 l 0
 333 134 l 0
 333 467 l 0
0 467 m 0
 333 467 l 0
 333 134 l 0
 0 134 l 0
 0 467 l 0
666 800 m 0
 999 800 l 0
 999 467 l 0
 666 467 l 0
 666 800 l 0
EndSplineSet
EndChar

StartChar: uni001D
Encoding: 29 29 29
Width: 1000
LayerCount: 2
Fore
SplineSet
333 467 m 0
 666 467 l 0
 666 134 l 0
 333 134 l 0
 333 467 l 0
0 467 m 0
 333 467 l 0
 333 134 l 0
 0 134 l 0
 0 467 l 0
666 800 m 0
 999 800 l 0
 999 467 l 0
 666 467 l 0
 666 800 l 0
0 800 m 0
 333 800 l 0
 333 467 l 0
 0 467 l 0
 0 800 l 0
EndSplineSet
EndChar

StartChar: uni001E
Encoding: 30 30 30
Width: 1000
LayerCount: 2
Fore
SplineSet
333 467 m 0
 666 467 l 0
 666 134 l 0
 333 134 l 0
 333 467 l 0
0 467 m 0
 333 467 l 0
 333 134 l 0
 0 134 l 0
 0 467 l 0
666 800 m 0
 999 800 l 0
 999 467 l 0
 666 467 l 0
 666 800 l 0
333 800 m 0
 666 800 l 0
 666 467 l 0
 333 467 l 0
 333 800 l 0
EndSplineSet
EndChar

StartChar: uni001F
Encoding: 31 31 31
Width: 1000
LayerCount: 2
Fore
SplineSet
333 467 m 0
 666 467 l 0
 666 134 l 0
 333 134 l 0
 333 467 l 0
0 467 m 0
 333 467 l 0
 333 134 l 0
 0 134 l 0
 0 467 l 0
666 800 m 0
 999 800 l 0
 999 467 l 0
 666 467 l 0
 666 800 l 0
333 800 m 0
 666 800 l 0
 666 467 l 0
 333 467 l 0
 333 800 l 0
0 800 m 0
 333 800 l 0
 333 467 l 0
 0 467 l 0
 0 800 l 0
EndSplineSet
EndChar

StartChar: space
Encoding: 32 32 32
Width: 1000
LayerCount: 2
Fore
SplineSet
666 467 m 0
 999 467 l 0
 999 134 l 0
 666 134 l 0
 666 467 l 0
EndSplineSet
EndChar

StartChar: exclam
Encoding: 33 33 33
Width: 1000
LayerCount: 2
Fore
SplineSet
666 467 m 0
 999 467 l 0
 999 134 l 0
 666 134 l 0
 666 467 l 0
0 800 m 0
 333 800 l 0
 333 467 l 0
 0 467 l 0
 0 800 l 0
EndSplineSet
EndChar

StartChar: quotedbl
Encoding: 34 34 34
Width: 1000
LayerCount: 2
Fore
SplineSet
666 467 m 0
 999 467 l 0
 999 134 l 0
 666 134 l 0
 666 467 l 0
333 800 m 0
 666 800 l 0
 666 467 l 0
 333 467 l 0
 333 800 l 0
EndSplineSet
EndChar

StartChar: numbersign
Encoding: 35 35 35
Width: 1000
LayerCount: 2
Fore
SplineSet
666 467 m 0
 999 467 l 0
 999 134 l 0
 666 134 l 0
 666 467 l 0
333 800 m 0
 666 800 l 0
 666 467 l 0
 333 467 l 0
 333 800 l 0
0 800 m 0
 333 800 l 0
 333 467 l 0
 0 467 l 0
 0 800 l 0
EndSplineSet
EndChar

StartChar: dollar
Encoding: 36 36 36
Width: 1000
LayerCount: 2
Fore
SplineSet
666 467 m 0
 999 467 l 0
 999 134 l 0
 666 134 l 0
 666 467 l 0
666 800 m 0
 999 800 l 0
 999 467 l 0
 666 467 l 0
 666 800 l 0
EndSplineSet
EndChar

StartChar: percent
Encoding: 37 37 37
Width: 1000
LayerCount: 2
Fore
SplineSet
666 467 m 0
 999 467 l 0
 999 134 l 0
 666 134 l 0
 666 467 l 0
666 800 m 0
 999 800 l 0
 999 467 l 0
 666 467 l 0
 666 800 l 0
0 800 m 0
 333 800 l 0
 333 467 l 0
 0 467 l 0
 0 800 l 0
EndSplineSet
EndChar

StartChar: ampersand
Encoding: 38 38 38
Width: 1000
LayerCount: 2
Fore
SplineSet
666 467 m 0
 999 467 l 0
 999 134 l 0
 666 134 l 0
 666 467 l 0
666 800 m 0
 999 800 l 0
 999 467 l 0
 666 467 l 0
 666 800 l 0
333 800 m 0
 666 800 l 0
 666 467 l 0
 333 467 l 0
 333 800 l 0
EndSplineSet
EndChar

StartChar: quotesingle
Encoding: 39 39 39
Width: 1000
LayerCount: 2
Fore
SplineSet
666 467 m 0
 999 467 l 0
 999 134 l 0
 666 134 l 0
 666 467 l 0
666 800 m 0
 999 800 l 0
 999 467 l 0
 666 467 l 0
 666 800 l 0
333 800 m 0
 666 800 l 0
 666 467 l 0
 333 467 l 0
 333 800 l 0
0 800 m 0
 333 800 l 0
 333 467 l 0
 0 467 l 0
 0 800 l 0
EndSplineSet
EndChar

StartChar: parenleft
Encoding: 40 40 40
Width: 1000
LayerCount: 2
Fore
SplineSet
666 467 m 0
 999 467 l 0
 999 134 l 0
 666 134 l 0
 666 467 l 0
0 467 m 0
 333 467 l 0
 333 134 l 0
 0 134 l 0
 0 467 l 0
EndSplineSet
EndChar

StartChar: parenright
Encoding: 41 41 41
Width: 1000
LayerCount: 2
Fore
SplineSet
666 467 m 0
 999 467 l 0
 999 134 l 0
 666 134 l 0
 666 467 l 0
0 467 m 0
 333 467 l 0
 333 134 l 0
 0 134 l 0
 0 467 l 0
0 800 m 0
 333 800 l 0
 333 467 l 0
 0 467 l 0
 0 800 l 0
EndSplineSet
EndChar

StartChar: asterisk
Encoding: 42 42 42
Width: 1000
LayerCount: 2
Fore
SplineSet
666 467 m 0
 999 467 l 0
 999 134 l 0
 666 134 l 0
 666 467 l 0
0 467 m 0
 333 467 l 0
 333 134 l 0
 0 134 l 0
 0 467 l 0
333 800 m 0
 666 800 l 0
 666 467 l 0
 333 467 l 0
 333 800 l 0
EndSplineSet
EndChar

StartChar: plus
Encoding: 43 43 43
Width: 1000
LayerCount: 2
Fore
SplineSet
666 467 m 0
 999 467 l 0
 999 134 l 0
 666 134 l 0
 666 467 l 0
0 467 m 0
 333 467 l 0
 333 134 l 0
 0 134 l 0
 0 467 l 0
333 800 m 0
 666 800 l 0
 666 467 l 0
 333 467 l 0
 333 800 l 0
0 800 m 0
 333 800 l 0
 333 467 l 0
 0 467 l 0
 0 800 l 0
EndSplineSet
EndChar

StartChar: comma
Encoding: 44 44 44
Width: 1000
LayerCount: 2
Fore
SplineSet
666 467 m 0
 999 467 l 0
 999 134 l 0
 666 134 l 0
 666 467 l 0
0 467 m 0
 333 467 l 0
 333 134 l 0
 0 134 l 0
 0 467 l 0
666 800 m 0
 999 800 l 0
 999 467 l 0
 666 467 l 0
 666 800 l 0
EndSplineSet
EndChar

StartChar: hyphen
Encoding: 45 45 45
Width: 1000
LayerCount: 2
Fore
SplineSet
666 467 m 0
 999 467 l 0
 999 134 l 0
 666 134 l 0
 666 467 l 0
0 467 m 0
 333 467 l 0
 333 134 l 0
 0 134 l 0
 0 467 l 0
666 800 m 0
 999 800 l 0
 999 467 l 0
 666 467 l 0
 666 800 l 0
0 800 m 0
 333 800 l 0
 333 467 l 0
 0 467 l 0
 0 800 l 0
EndSplineSet
EndChar

StartChar: period
Encoding: 46 46 46
Width: 1000
LayerCount: 2
Fore
SplineSet
666 467 m 0
 999 467 l 0
 999 134 l 0
 666 134 l 0
 666 467 l 0
0 467 m 0
 333 467 l 0
 333 134 l 0
 0 134 l 0
 0 467 l 0
666 800 m 0
 999 800 l 0
 999 467 l 0
 666 467 l 0
 666 800 l 0
333 800 m 0
 666 800 l 0
 666 467 l 0
 333 467 l 0
 333 800 l 0
EndSplineSet
EndChar

StartChar: slash
Encoding: 47 47 47
Width: 1000
LayerCount: 2
Fore
SplineSet
666 467 m 0
 999 467 l 0
 999 134 l 0
 666 134 l 0
 666 467 l 0
0 467 m 0
 333 467 l 0
 333 134 l 0
 0 134 l 0
 0 467 l 0
666 800 m 0
 999 800 l 0
 999 467 l 0
 666 467 l 0
 666 800 l 0
333 800 m 0
 666 800 l 0
 666 467 l 0
 333 467 l 0
 333 800 l 0
0 800 m 0
 333 800 l 0
 333 467 l 0
 0 467 l 0
 0 800 l 0
EndSplineSet
EndChar

StartChar: zero
Encoding: 48 48 48
Width: 1000
LayerCount: 2
Fore
SplineSet
666 467 m 0
 999 467 l 0
 999 134 l 0
 666 134 l 0
 666 467 l 0
333 467 m 0
 666 467 l 0
 666 134 l 0
 333 134 l 0
 333 467 l 0
EndSplineSet
EndChar

StartChar: one
Encoding: 49 49 49
Width: 1000
LayerCount: 2
Fore
SplineSet
666 467 m 0
 999 467 l 0
 999 134 l 0
 666 134 l 0
 666 467 l 0
333 467 m 0
 666 467 l 0
 666 134 l 0
 333 134 l 0
 333 467 l 0
0 800 m 0
 333 800 l 0
 333 467 l 0
 0 467 l 0
 0 800 l 0
EndSplineSet
EndChar

StartChar: two
Encoding: 50 50 50
Width: 1000
LayerCount: 2
Fore
SplineSet
666 467 m 0
 999 467 l 0
 999 134 l 0
 666 134 l 0
 666 467 l 0
333 467 m 0
 666 467 l 0
 666 134 l 0
 333 134 l 0
 333 467 l 0
333 800 m 0
 666 800 l 0
 666 467 l 0
 333 467 l 0
 333 800 l 0
EndSplineSet
EndChar

StartChar: three
Encoding: 51 51 51
Width: 1000
LayerCount: 2
Fore
SplineSet
666 467 m 0
 999 467 l 0
 999 134 l 0
 666 134 l 0
 666 467 l 0
333 467 m 0
 666 467 l 0
 666 134 l 0
 333 134 l 0
 333 467 l 0
333 800 m 0
 666 800 l 0
 666 467 l 0
 333 467 l 0
 333 800 l 0
0 800 m 0
 333 800 l 0
 333 467 l 0
 0 467 l 0
 0 800 l 0
EndSplineSet
EndChar

StartChar: four
Encoding: 52 52 52
Width: 1000
LayerCount: 2
Fore
SplineSet
666 467 m 0
 999 467 l 0
 999 134 l 0
 666 134 l 0
 666 467 l 0
333 467 m 0
 666 467 l 0
 666 134 l 0
 333 134 l 0
 333 467 l 0
666 800 m 0
 999 800 l 0
 999 467 l 0
 666 467 l 0
 666 800 l 0
EndSplineSet
EndChar

StartChar: five
Encoding: 53 53 53
Width: 1000
LayerCount: 2
Fore
SplineSet
666 467 m 0
 999 467 l 0
 999 134 l 0
 666 134 l 0
 666 467 l 0
333 467 m 0
 666 467 l 0
 666 134 l 0
 333 134 l 0
 333 467 l 0
666 800 m 0
 999 800 l 0
 999 467 l 0
 666 467 l 0
 666 800 l 0
0 800 m 0
 333 800 l 0
 333 467 l 0
 0 467 l 0
 0 800 l 0
EndSplineSet
EndChar

StartChar: six
Encoding: 54 54 54
Width: 1000
LayerCount: 2
Fore
SplineSet
666 467 m 0
 999 467 l 0
 999 134 l 0
 666 134 l 0
 666 467 l 0
333 467 m 0
 666 467 l 0
 666 134 l 0
 333 134 l 0
 333 467 l 0
666 800 m 0
 999 800 l 0
 999 467 l 0
 666 467 l 0
 666 800 l 0
333 800 m 0
 666 800 l 0
 666 467 l 0
 333 467 l 0
 333 800 l 0
EndSplineSet
EndChar

StartChar: seven
Encoding: 55 55 55
Width: 1000
LayerCount: 2
Fore
SplineSet
666 467 m 0
 999 467 l 0
 999 134 l 0
 666 134 l 0
 666 467 l 0
333 467 m 0
 666 467 l 0
 666 134 l 0
 333 134 l 0
 333 467 l 0
666 800 m 0
 999 800 l 0
 999 467 l 0
 666 467 l 0
 666 800 l 0
333 800 m 0
 666 800 l 0
 666 467 l 0
 333 467 l 0
 333 800 l 0
0 800 m 0
 333 800 l 0
 333 467 l 0
 0 467 l 0
 0 800 l 0
EndSplineSet
EndChar

StartChar: eight
Encoding: 56 56 56
Width: 1000
LayerCount: 2
Fore
SplineSet
666 467 m 0
 999 467 l 0
 999 134 l 0
 666 134 l 0
 666 467 l 0
333 467 m 0
 666 467 l 0
 666 134 l 0
 333 134 l 0
 333 467 l 0
0 467 m 0
 333 467 l 0
 333 134 l 0
 0 134 l 0
 0 467 l 0
EndSplineSet
EndChar

StartChar: nine
Encoding: 57 57 57
Width: 1000
LayerCount: 2
Fore
SplineSet
666 467 m 0
 999 467 l 0
 999 134 l 0
 666 134 l 0
 666 467 l 0
333 467 m 0
 666 467 l 0
 666 134 l 0
 333 134 l 0
 333 467 l 0
0 467 m 0
 333 467 l 0
 333 134 l 0
 0 134 l 0
 0 467 l 0
0 800 m 0
 333 800 l 0
 333 467 l 0
 0 467 l 0
 0 800 l 0
EndSplineSet
EndChar

StartChar: colon
Encoding: 58 58 58
Width: 1000
LayerCount: 2
Fore
SplineSet
666 467 m 0
 999 467 l 0
 999 134 l 0
 666 134 l 0
 666 467 l 0
333 467 m 0
 666 467 l 0
 666 134 l 0
 333 134 l 0
 333 467 l 0
0 467 m 0
 333 467 l 0
 333 134 l 0
 0 134 l 0
 0 467 l 0
333 800 m 0
 666 800 l 0
 666 467 l 0
 333 467 l 0
 333 800 l 0
EndSplineSet
EndChar

StartChar: semicolon
Encoding: 59 59 59
Width: 1000
LayerCount: 2
Fore
SplineSet
666 467 m 0
 999 467 l 0
 999 134 l 0
 666 134 l 0
 666 467 l 0
333 467 m 0
 666 467 l 0
 666 134 l 0
 333 134 l 0
 333 467 l 0
0 467 m 0
 333 467 l 0
 333 134 l 0
 0 134 l 0
 0 467 l 0
333 800 m 0
 666 800 l 0
 666 467 l 0
 333 467 l 0
 333 800 l 0
0 800 m 0
 333 800 l 0
 333 467 l 0
 0 467 l 0
 0 800 l 0
EndSplineSet
EndChar

StartChar: less
Encoding: 60 60 60
Width: 1000
LayerCount: 2
Fore
SplineSet
666 467 m 0
 999 467 l 0
 999 134 l 0
 666 134 l 0
 666 467 l 0
333 467 m 0
 666 467 l 0
 666 134 l 0
 333 134 l 0
 333 467 l 0
0 467 m 0
 333 467 l 0
 333 134 l 0
 0 134 l 0
 0 467 l 0
666 800 m 0
 999 800 l 0
 999 467 l 0
 666 467 l 0
 666 800 l 0
EndSplineSet
EndChar

StartChar: equal
Encoding: 61 61 61
Width: 1000
LayerCount: 2
Fore
SplineSet
666 467 m 0
 999 467 l 0
 999 134 l 0
 666 134 l 0
 666 467 l 0
333 467 m 0
 666 467 l 0
 666 134 l 0
 333 134 l 0
 333 467 l 0
0 467 m 0
 333 467 l 0
 333 134 l 0
 0 134 l 0
 0 467 l 0
666 800 m 0
 999 800 l 0
 999 467 l 0
 666 467 l 0
 666 800 l 0
0 800 m 0
 333 800 l 0
 333 467 l 0
 0 467 l 0
 0 800 l 0
EndSplineSet
EndChar

StartChar: greater
Encoding: 62 62 62
Width: 1000
LayerCount: 2
Fore
SplineSet
666 467 m 0
 999 467 l 0
 999 134 l 0
 666 134 l 0
 666 467 l 0
333 467 m 0
 666 467 l 0
 666 134 l 0
 333 134 l 0
 333 467 l 0
0 467 m 0
 333 467 l 0
 333 134 l 0
 0 134 l 0
 0 467 l 0
666 800 m 0
 999 800 l 0
 999 467 l 0
 666 467 l 0
 666 800 l 0
333 800 m 0
 666 800 l 0
 666 467 l 0
 333 467 l 0
 333 800 l 0
EndSplineSet
EndChar

StartChar: question
Encoding: 63 63 63
Width: 1000
LayerCount: 2
Fore
SplineSet
666 467 m 0
 999 467 l 0
 999 134 l 0
 666 134 l 0
 666 467 l 0
333 467 m 0
 666 467 l 0
 666 134 l 0
 333 134 l 0
 333 467 l 0
0 467 m 0
 333 467 l 0
 333 134 l 0
 0 134 l 0
 0 467 l 0
666 800 m 0
 999 800 l 0
 999 467 l 0
 666 467 l 0
 666 800 l 0
333 800 m 0
 666 800 l 0
 666 467 l 0
 333 467 l 0
 333 800 l 0
0 800 m 0
 333 800 l 0
 333 467 l 0
 0 467 l 0
 0 800 l 0
EndSplineSet
EndChar

StartChar: at
Encoding: 64 64 64
Width: 1000
LayerCount: 2
Fore
SplineSet
0 134 m 0
 333 134 l 0
 333 -199 l 0
 0 -199 l 0
 0 134 l 0
EndSplineSet
EndChar

StartChar: A
Encoding: 65 65 65
Width: 1000
LayerCount: 2
Fore
SplineSet
0 134 m 0
 333 134 l 0
 333 -199 l 0
 0 -199 l 0
 0 134 l 0
0 800 m 0
 333 800 l 0
 333 467 l 0
 0 467 l 0
 0 800 l 0
EndSplineSet
EndChar

StartChar: B
Encoding: 66 66 66
Width: 1000
LayerCount: 2
Fore
SplineSet
0 134 m 0
 333 134 l 0
 333 -199 l 0
 0 -199 l 0
 0 134 l 0
333 800 m 0
 666 800 l 0
 666 467 l 0
 333 467 l 0
 333 800 l 0
EndSplineSet
EndChar

StartChar: C
Encoding: 67 67 67
Width: 1000
LayerCount: 2
Fore
SplineSet
0 134 m 0
 333 134 l 0
 333 -199 l 0
 0 -199 l 0
 0 134 l 0
333 800 m 0
 666 800 l 0
 666 467 l 0
 333 467 l 0
 333 800 l 0
0 800 m 0
 333 800 l 0
 333 467 l 0
 0 467 l 0
 0 800 l 0
EndSplineSet
EndChar

StartChar: D
Encoding: 68 68 68
Width: 1000
LayerCount: 2
Fore
SplineSet
0 134 m 0
 333 134 l 0
 333 -199 l 0
 0 -199 l 0
 0 134 l 0
666 800 m 0
 999 800 l 0
 999 467 l 0
 666 467 l 0
 666 800 l 0
EndSplineSet
EndChar

StartChar: E
Encoding: 69 69 69
Width: 1000
LayerCount: 2
Fore
SplineSet
0 134 m 0
 333 134 l 0
 333 -199 l 0
 0 -199 l 0
 0 134 l 0
666 800 m 0
 999 800 l 0
 999 467 l 0
 666 467 l 0
 666 800 l 0
0 800 m 0
 333 800 l 0
 333 467 l 0
 0 467 l 0
 0 800 l 0
EndSplineSet
EndChar

StartChar: F
Encoding: 70 70 70
Width: 1000
LayerCount: 2
Fore
SplineSet
0 134 m 0
 333 134 l 0
 333 -199 l 0
 0 -199 l 0
 0 134 l 0
666 800 m 0
 999 800 l 0
 999 467 l 0
 666 467 l 0
 666 800 l 0
333 800 m 0
 666 800 l 0
 666 467 l 0
 333 467 l 0
 333 800 l 0
EndSplineSet
EndChar

StartChar: G
Encoding: 71 71 71
Width: 1000
LayerCount: 2
Fore
SplineSet
0 134 m 0
 333 134 l 0
 333 -199 l 0
 0 -199 l 0
 0 134 l 0
666 800 m 0
 999 800 l 0
 999 467 l 0
 666 467 l 0
 666 800 l 0
333 800 m 0
 666 800 l 0
 666 467 l 0
 333 467 l 0
 333 800 l 0
0 800 m 0
 333 800 l 0
 333 467 l 0
 0 467 l 0
 0 800 l 0
EndSplineSet
EndChar

StartChar: H
Encoding: 72 72 72
Width: 1000
LayerCount: 2
Fore
SplineSet
0 134 m 0
 333 134 l 0
 333 -199 l 0
 0 -199 l 0
 0 134 l 0
0 467 m 0
 333 467 l 0
 333 134 l 0
 0 134 l 0
 0 467 l 0
EndSplineSet
EndChar

StartChar: I
Encoding: 73 73 73
Width: 1000
LayerCount: 2
Fore
SplineSet
0 134 m 0
 333 134 l 0
 333 -199 l 0
 0 -199 l 0
 0 134 l 0
0 467 m 0
 333 467 l 0
 333 134 l 0
 0 134 l 0
 0 467 l 0
0 800 m 0
 333 800 l 0
 333 467 l 0
 0 467 l 0
 0 800 l 0
EndSplineSet
EndChar

StartChar: J
Encoding: 74 74 74
Width: 1000
LayerCount: 2
Fore
SplineSet
0 134 m 0
 333 134 l 0
 333 -199 l 0
 0 -199 l 0
 0 134 l 0
0 467 m 0
 333 467 l 0
 333 134 l 0
 0 134 l 0
 0 467 l 0
333 800 m 0
 666 800 l 0
 666 467 l 0
 333 467 l 0
 333 800 l 0
EndSplineSet
EndChar

StartChar: K
Encoding: 75 75 75
Width: 1000
LayerCount: 2
Fore
SplineSet
0 134 m 0
 333 134 l 0
 333 -199 l 0
 0 -199 l 0
 0 134 l 0
0 467 m 0
 333 467 l 0
 333 134 l 0
 0 134 l 0
 0 467 l 0
333 800 m 0
 666 800 l 0
 666 467 l 0
 333 467 l 0
 333 800 l 0
0 800 m 0
 333 800 l 0
 333 467 l 0
 0 467 l 0
 0 800 l 0
EndSplineSet
EndChar

StartChar: L
Encoding: 76 76 76
Width: 1000
LayerCount: 2
Fore
SplineSet
0 134 m 0
 333 134 l 0
 333 -199 l 0
 0 -199 l 0
 0 134 l 0
0 467 m 0
 333 467 l 0
 333 134 l 0
 0 134 l 0
 0 467 l 0
666 800 m 0
 999 800 l 0
 999 467 l 0
 666 467 l 0
 666 800 l 0
EndSplineSet
EndChar

StartChar: M
Encoding: 77 77 77
Width: 1000
LayerCount: 2
Fore
SplineSet
0 134 m 0
 333 134 l 0
 333 -199 l 0
 0 -199 l 0
 0 134 l 0
0 467 m 0
 333 467 l 0
 333 134 l 0
 0 134 l 0
 0 467 l 0
666 800 m 0
 999 800 l 0
 999 467 l 0
 666 467 l 0
 666 800 l 0
0 800 m 0
 333 800 l 0
 333 467 l 0
 0 467 l 0
 0 800 l 0
EndSplineSet
EndChar

StartChar: N
Encoding: 78 78 78
Width: 1000
LayerCount: 2
Fore
SplineSet
0 134 m 0
 333 134 l 0
 333 -199 l 0
 0 -199 l 0
 0 134 l 0
0 467 m 0
 333 467 l 0
 333 134 l 0
 0 134 l 0
 0 467 l 0
666 800 m 0
 999 800 l 0
 999 467 l 0
 666 467 l 0
 666 800 l 0
333 800 m 0
 666 800 l 0
 666 467 l 0
 333 467 l 0
 333 800 l 0
EndSplineSet
EndChar

StartChar: O
Encoding: 79 79 79
Width: 1000
LayerCount: 2
Fore
SplineSet
0 134 m 0
 333 134 l 0
 333 -199 l 0
 0 -199 l 0
 0 134 l 0
0 467 m 0
 333 467 l 0
 333 134 l 0
 0 134 l 0
 0 467 l 0
666 800 m 0
 999 800 l 0
 999 467 l 0
 666 467 l 0
 666 800 l 0
333 800 m 0
 666 800 l 0
 666 467 l 0
 333 467 l 0
 333 800 l 0
0 800 m 0
 333 800 l 0
 333 467 l 0
 0 467 l 0
 0 800 l 0
EndSplineSet
EndChar

StartChar: P
Encoding: 80 80 80
Width: 1000
LayerCount: 2
Fore
SplineSet
0 134 m 0
 333 134 l 0
 333 -199 l 0
 0 -199 l 0
 0 134 l 0
333 467 m 0
 666 467 l 0
 666 134 l 0
 333 134 l 0
 333 467 l 0
EndSplineSet
EndChar

StartChar: Q
Encoding: 81 81 81
Width: 1000
LayerCount: 2
Fore
SplineSet
0 134 m 0
 333 134 l 0
 333 -199 l 0
 0 -199 l 0
 0 134 l 0
333 467 m 0
 666 467 l 0
 666 134 l 0
 333 134 l 0
 333 467 l 0
0 800 m 0
 333 800 l 0
 333 467 l 0
 0 467 l 0
 0 800 l 0
EndSplineSet
EndChar

StartChar: R
Encoding: 82 82 82
Width: 1000
LayerCount: 2
Fore
SplineSet
0 134 m 0
 333 134 l 0
 333 -199 l 0
 0 -199 l 0
 0 134 l 0
333 467 m 0
 666 467 l 0
 666 134 l 0
 333 134 l 0
 333 467 l 0
333 800 m 0
 666 800 l 0
 666 467 l 0
 333 467 l 0
 333 800 l 0
EndSplineSet
EndChar

StartChar: S
Encoding: 83 83 83
Width: 1000
LayerCount: 2
Fore
SplineSet
0 134 m 0
 333 134 l 0
 333 -199 l 0
 0 -199 l 0
 0 134 l 0
333 467 m 0
 666 467 l 0
 666 134 l 0
 333 134 l 0
 333 467 l 0
333 800 m 0
 666 800 l 0
 666 467 l 0
 333 467 l 0
 333 800 l 0
0 800 m 0
 333 800 l 0
 333 467 l 0
 0 467 l 0
 0 800 l 0
EndSplineSet
EndChar

StartChar: T
Encoding: 84 84 84
Width: 1000
LayerCount: 2
Fore
SplineSet
0 134 m 0
 333 134 l 0
 333 -199 l 0
 0 -199 l 0
 0 134 l 0
333 467 m 0
 666 467 l 0
 666 134 l 0
 333 134 l 0
 333 467 l 0
666 800 m 0
 999 800 l 0
 999 467 l 0
 666 467 l 0
 666 800 l 0
EndSplineSet
EndChar

StartChar: U
Encoding: 85 85 85
Width: 1000
LayerCount: 2
Fore
SplineSet
0 134 m 0
 333 134 l 0
 333 -199 l 0
 0 -199 l 0
 0 134 l 0
333 467 m 0
 666 467 l 0
 666 134 l 0
 333 134 l 0
 333 467 l 0
666 800 m 0
 999 800 l 0
 999 467 l 0
 666 467 l 0
 666 800 l 0
0 800 m 0
 333 800 l 0
 333 467 l 0
 0 467 l 0
 0 800 l 0
EndSplineSet
EndChar

StartChar: V
Encoding: 86 86 86
Width: 1000
LayerCount: 2
Fore
SplineSet
0 134 m 0
 333 134 l 0
 333 -199 l 0
 0 -199 l 0
 0 134 l 0
333 467 m 0
 666 467 l 0
 666 134 l 0
 333 134 l 0
 333 467 l 0
666 800 m 0
 999 800 l 0
 999 467 l 0
 666 467 l 0
 666 800 l 0
333 800 m 0
 666 800 l 0
 666 467 l 0
 333 467 l 0
 333 800 l 0
EndSplineSet
EndChar

StartChar: W
Encoding: 87 87 87
Width: 1000
LayerCount: 2
Fore
SplineSet
0 134 m 0
 333 134 l 0
 333 -199 l 0
 0 -199 l 0
 0 134 l 0
333 467 m 0
 666 467 l 0
 666 134 l 0
 333 134 l 0
 333 467 l 0
666 800 m 0
 999 800 l 0
 999 467 l 0
 666 467 l 0
 666 800 l 0
333 800 m 0
 666 800 l 0
 666 467 l 0
 333 467 l 0
 333 800 l 0
0 800 m 0
 333 800 l 0
 333 467 l 0
 0 467 l 0
 0 800 l 0
EndSplineSet
EndChar

StartChar: X
Encoding: 88 88 88
Width: 1000
LayerCount: 2
Fore
SplineSet
0 134 m 0
 333 134 l 0
 333 -199 l 0
 0 -199 l 0
 0 134 l 0
333 467 m 0
 666 467 l 0
 666 134 l 0
 333 134 l 0
 333 467 l 0
0 467 m 0
 333 467 l 0
 333 134 l 0
 0 134 l 0
 0 467 l 0
EndSplineSet
EndChar

StartChar: Y
Encoding: 89 89 89
Width: 1000
LayerCount: 2
Fore
SplineSet
0 134 m 0
 333 134 l 0
 333 -199 l 0
 0 -199 l 0
 0 134 l 0
333 467 m 0
 666 467 l 0
 666 134 l 0
 333 134 l 0
 333 467 l 0
0 467 m 0
 333 467 l 0
 333 134 l 0
 0 134 l 0
 0 467 l 0
0 800 m 0
 333 800 l 0
 333 467 l 0
 0 467 l 0
 0 800 l 0
EndSplineSet
EndChar

StartChar: Z
Encoding: 90 90 90
Width: 1000
LayerCount: 2
Fore
SplineSet
0 134 m 0
 333 134 l 0
 333 -199 l 0
 0 -199 l 0
 0 134 l 0
333 467 m 0
 666 467 l 0
 666 134 l 0
 333 134 l 0
 333 467 l 0
0 467 m 0
 333 467 l 0
 333 134 l 0
 0 134 l 0
 0 467 l 0
333 800 m 0
 666 800 l 0
 666 467 l 0
 333 467 l 0
 333 800 l 0
EndSplineSet
EndChar

StartChar: bracketleft
Encoding: 91 91 91
Width: 1000
LayerCount: 2
Fore
SplineSet
0 134 m 0
 333 134 l 0
 333 -199 l 0
 0 -199 l 0
 0 134 l 0
333 467 m 0
 666 467 l 0
 666 134 l 0
 333 134 l 0
 333 467 l 0
0 467 m 0
 333 467 l 0
 333 134 l 0
 0 134 l 0
 0 467 l 0
333 800 m 0
 666 800 l 0
 666 467 l 0
 333 467 l 0
 333 800 l 0
0 800 m 0
 333 800 l 0
 333 467 l 0
 0 467 l 0
 0 800 l 0
EndSplineSet
EndChar

StartChar: backslash
Encoding: 92 92 92
Width: 1000
LayerCount: 2
Fore
SplineSet
0 134 m 0
 333 134 l 0
 333 -199 l 0
 0 -199 l 0
 0 134 l 0
333 467 m 0
 666 467 l 0
 666 134 l 0
 333 134 l 0
 333 467 l 0
0 467 m 0
 333 467 l 0
 333 134 l 0
 0 134 l 0
 0 467 l 0
666 800 m 0
 999 800 l 0
 999 467 l 0
 666 467 l 0
 666 800 l 0
EndSplineSet
EndChar

StartChar: bracketright
Encoding: 93 93 93
Width: 1000
LayerCount: 2
Fore
SplineSet
0 134 m 0
 333 134 l 0
 333 -199 l 0
 0 -199 l 0
 0 134 l 0
333 467 m 0
 666 467 l 0
 666 134 l 0
 333 134 l 0
 333 467 l 0
0 467 m 0
 333 467 l 0
 333 134 l 0
 0 134 l 0
 0 467 l 0
666 800 m 0
 999 800 l 0
 999 467 l 0
 666 467 l 0
 666 800 l 0
0 800 m 0
 333 800 l 0
 333 467 l 0
 0 467 l 0
 0 800 l 0
EndSplineSet
EndChar

StartChar: asciicircum
Encoding: 94 94 94
Width: 1000
LayerCount: 2
Fore
SplineSet
0 134 m 0
 333 134 l 0
 333 -199 l 0
 0 -199 l 0
 0 134 l 0
333 467 m 0
 666 467 l 0
 666 134 l 0
 333 134 l 0
 333 467 l 0
0 467 m 0
 333 467 l 0
 333 134 l 0
 0 134 l 0
 0 467 l 0
666 800 m 0
 999 800 l 0
 999 467 l 0
 666 467 l 0
 666 800 l 0
333 800 m 0
 666 800 l 0
 666 467 l 0
 333 467 l 0
 333 800 l 0
EndSplineSet
EndChar

StartChar: underscore
Encoding: 95 95 95
Width: 1000
LayerCount: 2
Fore
SplineSet
0 134 m 0
 333 134 l 0
 333 -199 l 0
 0 -199 l 0
 0 134 l 0
333 467 m 0
 666 467 l 0
 666 134 l 0
 333 134 l 0
 333 467 l 0
0 467 m 0
 333 467 l 0
 333 134 l 0
 0 134 l 0
 0 467 l 0
666 800 m 0
 999 800 l 0
 999 467 l 0
 666 467 l 0
 666 800 l 0
333 800 m 0
 666 800 l 0
 666 467 l 0
 333 467 l 0
 333 800 l 0
0 800 m 0
 333 800 l 0
 333 467 l 0
 0 467 l 0
 0 800 l 0
EndSplineSet
EndChar

StartChar: grave
Encoding: 96 96 96
Width: 1000
LayerCount: 2
Fore
SplineSet
0 134 m 0
 333 134 l 0
 333 -199 l 0
 0 -199 l 0
 0 134 l 0
666 467 m 0
 999 467 l 0
 999 134 l 0
 666 134 l 0
 666 467 l 0
EndSplineSet
EndChar

StartChar: a
Encoding: 97 97 97
Width: 1000
LayerCount: 2
Fore
SplineSet
0 134 m 0
 333 134 l 0
 333 -199 l 0
 0 -199 l 0
 0 134 l 0
666 467 m 0
 999 467 l 0
 999 134 l 0
 666 134 l 0
 666 467 l 0
0 800 m 0
 333 800 l 0
 333 467 l 0
 0 467 l 0
 0 800 l 0
EndSplineSet
EndChar

StartChar: b
Encoding: 98 98 98
Width: 1000
LayerCount: 2
Fore
SplineSet
0 134 m 0
 333 134 l 0
 333 -199 l 0
 0 -199 l 0
 0 134 l 0
666 467 m 0
 999 467 l 0
 999 134 l 0
 666 134 l 0
 666 467 l 0
333 800 m 0
 666 800 l 0
 666 467 l 0
 333 467 l 0
 333 800 l 0
EndSplineSet
EndChar

StartChar: c
Encoding: 99 99 99
Width: 1000
LayerCount: 2
Fore
SplineSet
0 134 m 0
 333 134 l 0
 333 -199 l 0
 0 -199 l 0
 0 134 l 0
666 467 m 0
 999 467 l 0
 999 134 l 0
 666 134 l 0
 666 467 l 0
333 800 m 0
 666 800 l 0
 666 467 l 0
 333 467 l 0
 333 800 l 0
0 800 m 0
 333 800 l 0
 333 467 l 0
 0 467 l 0
 0 800 l 0
EndSplineSet
EndChar

StartChar: d
Encoding: 100 100 100
Width: 1000
LayerCount: 2
Fore
SplineSet
0 134 m 0
 333 134 l 0
 333 -199 l 0
 0 -199 l 0
 0 134 l 0
666 467 m 0
 999 467 l 0
 999 134 l 0
 666 134 l 0
 666 467 l 0
666 800 m 0
 999 800 l 0
 999 467 l 0
 666 467 l 0
 666 800 l 0
EndSplineSet
EndChar

StartChar: e
Encoding: 101 101 101
Width: 1000
LayerCount: 2
Fore
SplineSet
0 134 m 0
 333 134 l 0
 333 -199 l 0
 0 -199 l 0
 0 134 l 0
666 467 m 0
 999 467 l 0
 999 134 l 0
 666 134 l 0
 666 467 l 0
666 800 m 0
 999 800 l 0
 999 467 l 0
 666 467 l 0
 666 800 l 0
0 800 m 0
 333 800 l 0
 333 467 l 0
 0 467 l 0
 0 800 l 0
EndSplineSet
EndChar

StartChar: f
Encoding: 102 102 102
Width: 1000
LayerCount: 2
Fore
SplineSet
0 134 m 0
 333 134 l 0
 333 -199 l 0
 0 -199 l 0
 0 134 l 0
666 467 m 0
 999 467 l 0
 999 134 l 0
 666 134 l 0
 666 467 l 0
666 800 m 0
 999 800 l 0
 999 467 l 0
 666 467 l 0
 666 800 l 0
333 800 m 0
 666 800 l 0
 666 467 l 0
 333 467 l 0
 333 800 l 0
EndSplineSet
EndChar

StartChar: g
Encoding: 103 103 103
Width: 1000
LayerCount: 2
Fore
SplineSet
0 134 m 0
 333 134 l 0
 333 -199 l 0
 0 -199 l 0
 0 134 l 0
666 467 m 0
 999 467 l 0
 999 134 l 0
 666 134 l 0
 666 467 l 0
666 800 m 0
 999 800 l 0
 999 467 l 0
 666 467 l 0
 666 800 l 0
333 800 m 0
 666 800 l 0
 666 467 l 0
 333 467 l 0
 333 800 l 0
0 800 m 0
 333 800 l 0
 333 467 l 0
 0 467 l 0
 0 800 l 0
EndSplineSet
EndChar

StartChar: h
Encoding: 104 104 104
Width: 1000
LayerCount: 2
Fore
SplineSet
0 134 m 0
 333 134 l 0
 333 -199 l 0
 0 -199 l 0
 0 134 l 0
666 467 m 0
 999 467 l 0
 999 134 l 0
 666 134 l 0
 666 467 l 0
0 467 m 0
 333 467 l 0
 333 134 l 0
 0 134 l 0
 0 467 l 0
EndSplineSet
EndChar

StartChar: i
Encoding: 105 105 105
Width: 1000
LayerCount: 2
Fore
SplineSet
0 134 m 0
 333 134 l 0
 333 -199 l 0
 0 -199 l 0
 0 134 l 0
666 467 m 0
 999 467 l 0
 999 134 l 0
 666 134 l 0
 666 467 l 0
0 467 m 0
 333 467 l 0
 333 134 l 0
 0 134 l 0
 0 467 l 0
0 800 m 0
 333 800 l 0
 333 467 l 0
 0 467 l 0
 0 800 l 0
EndSplineSet
EndChar

StartChar: j
Encoding: 106 106 106
Width: 1000
LayerCount: 2
Fore
SplineSet
0 134 m 0
 333 134 l 0
 333 -199 l 0
 0 -199 l 0
 0 134 l 0
666 467 m 0
 999 467 l 0
 999 134 l 0
 666 134 l 0
 666 467 l 0
0 467 m 0
 333 467 l 0
 333 134 l 0
 0 134 l 0
 0 467 l 0
333 800 m 0
 666 800 l 0
 666 467 l 0
 333 467 l 0
 333 800 l 0
EndSplineSet
EndChar

StartChar: k
Encoding: 107 107 107
Width: 1000
LayerCount: 2
Fore
SplineSet
0 134 m 0
 333 134 l 0
 333 -199 l 0
 0 -199 l 0
 0 134 l 0
666 467 m 0
 999 467 l 0
 999 134 l 0
 666 134 l 0
 666 467 l 0
0 467 m 0
 333 467 l 0
 333 134 l 0
 0 134 l 0
 0 467 l 0
333 800 m 0
 666 800 l 0
 666 467 l 0
 333 467 l 0
 333 800 l 0
0 800 m 0
 333 800 l 0
 333 467 l 0
 0 467 l 0
 0 800 l 0
EndSplineSet
EndChar

StartChar: l
Encoding: 108 108 108
Width: 1000
LayerCount: 2
Fore
SplineSet
0 134 m 0
 333 134 l 0
 333 -199 l 0
 0 -199 l 0
 0 134 l 0
666 467 m 0
 999 467 l 0
 999 134 l 0
 666 134 l 0
 666 467 l 0
0 467 m 0
 333 467 l 0
 333 134 l 0
 0 134 l 0
 0 467 l 0
666 800 m 0
 999 800 l 0
 999 467 l 0
 666 467 l 0
 666 800 l 0
EndSplineSet
EndChar

StartChar: m
Encoding: 109 109 109
Width: 1000
LayerCount: 2
Fore
SplineSet
0 134 m 0
 333 134 l 0
 333 -199 l 0
 0 -199 l 0
 0 134 l 0
666 467 m 0
 999 467 l 0
 999 134 l 0
 666 134 l 0
 666 467 l 0
0 467 m 0
 333 467 l 0
 333 134 l 0
 0 134 l 0
 0 467 l 0
666 800 m 0
 999 800 l 0
 999 467 l 0
 666 467 l 0
 666 800 l 0
0 800 m 0
 333 800 l 0
 333 467 l 0
 0 467 l 0
 0 800 l 0
EndSplineSet
EndChar

StartChar: n
Encoding: 110 110 110
Width: 1000
LayerCount: 2
Fore
SplineSet
0 134 m 0
 333 134 l 0
 333 -199 l 0
 0 -199 l 0
 0 134 l 0
666 467 m 0
 999 467 l 0
 999 134 l 0
 666 134 l 0
 666 467 l 0
0 467 m 0
 333 467 l 0
 333 134 l 0
 0 134 l 0
 0 467 l 0
666 800 m 0
 999 800 l 0
 999 467 l 0
 666 467 l 0
 666 800 l 0
333 800 m 0
 666 800 l 0
 666 467 l 0
 333 467 l 0
 333 800 l 0
EndSplineSet
EndChar

StartChar: o
Encoding: 111 111 111
Width: 1000
LayerCount: 2
Fore
SplineSet
0 134 m 0
 333 134 l 0
 333 -199 l 0
 0 -199 l 0
 0 134 l 0
666 467 m 0
 999 467 l 0
 999 134 l 0
 666 134 l 0
 666 467 l 0
0 467 m 0
 333 467 l 0
 333 134 l 0
 0 134 l 0
 0 467 l 0
666 800 m 0
 999 800 l 0
 999 467 l 0
 666 467 l 0
 666 800 l 0
333 800 m 0
 666 800 l 0
 666 467 l 0
 333 467 l 0
 333 800 l 0
0 800 m 0
 333 800 l 0
 333 467 l 0
 0 467 l 0
 0 800 l 0
EndSplineSet
EndChar

StartChar: p
Encoding: 112 112 112
Width: 1000
LayerCount: 2
Fore
SplineSet
0 134 m 0
 333 134 l 0
 333 -199 l 0
 0 -199 l 0
 0 134 l 0
666 467 m 0
 999 467 l 0
 999 134 l 0
 666 134 l 0
 666 467 l 0
333 467 m 0
 666 467 l 0
 666 134 l 0
 333 134 l 0
 333 467 l 0
EndSplineSet
EndChar

StartChar: q
Encoding: 113 113 113
Width: 1000
LayerCount: 2
Fore
SplineSet
0 134 m 0
 333 134 l 0
 333 -199 l 0
 0 -199 l 0
 0 134 l 0
666 467 m 0
 999 467 l 0
 999 134 l 0
 666 134 l 0
 666 467 l 0
333 467 m 0
 666 467 l 0
 666 134 l 0
 333 134 l 0
 333 467 l 0
0 800 m 0
 333 800 l 0
 333 467 l 0
 0 467 l 0
 0 800 l 0
EndSplineSet
EndChar

StartChar: r
Encoding: 114 114 114
Width: 1000
LayerCount: 2
Fore
SplineSet
0 134 m 0
 333 134 l 0
 333 -199 l 0
 0 -199 l 0
 0 134 l 0
666 467 m 0
 999 467 l 0
 999 134 l 0
 666 134 l 0
 666 467 l 0
333 467 m 0
 666 467 l 0
 666 134 l 0
 333 134 l 0
 333 467 l 0
333 800 m 0
 666 800 l 0
 666 467 l 0
 333 467 l 0
 333 800 l 0
EndSplineSet
EndChar

StartChar: s
Encoding: 115 115 115
Width: 1000
LayerCount: 2
Fore
SplineSet
0 134 m 0
 333 134 l 0
 333 -199 l 0
 0 -199 l 0
 0 134 l 0
666 467 m 0
 999 467 l 0
 999 134 l 0
 666 134 l 0
 666 467 l 0
333 467 m 0
 666 467 l 0
 666 134 l 0
 333 134 l 0
 333 467 l 0
333 800 m 0
 666 800 l 0
 666 467 l 0
 333 467 l 0
 333 800 l 0
0 800 m 0
 333 800 l 0
 333 467 l 0
 0 467 l 0
 0 800 l 0
EndSplineSet
EndChar

StartChar: t
Encoding: 116 116 116
Width: 1000
LayerCount: 2
Fore
SplineSet
0 134 m 0
 333 134 l 0
 333 -199 l 0
 0 -199 l 0
 0 134 l 0
666 467 m 0
 999 467 l 0
 999 134 l 0
 666 134 l 0
 666 467 l 0
333 467 m 0
 666 467 l 0
 666 134 l 0
 333 134 l 0
 333 467 l 0
666 800 m 0
 999 800 l 0
 999 467 l 0
 666 467 l 0
 666 800 l 0
EndSplineSet
EndChar

StartChar: u
Encoding: 117 117 117
Width: 1000
LayerCount: 2
Fore
SplineSet
0 134 m 0
 333 134 l 0
 333 -199 l 0
 0 -199 l 0
 0 134 l 0
666 467 m 0
 999 467 l 0
 999 134 l 0
 666 134 l 0
 666 467 l 0
333 467 m 0
 666 467 l 0
 666 134 l 0
 333 134 l 0
 333 467 l 0
666 800 m 0
 999 800 l 0
 999 467 l 0
 666 467 l 0
 666 800 l 0
0 800 m 0
 333 800 l 0
 333 467 l 0
 0 467 l 0
 0 800 l 0
EndSplineSet
EndChar

StartChar: v
Encoding: 118 118 118
Width: 1000
LayerCount: 2
Fore
SplineSet
0 134 m 0
 333 134 l 0
 333 -199 l 0
 0 -199 l 0
 0 134 l 0
666 467 m 0
 999 467 l 0
 999 134 l 0
 666 134 l 0
 666 467 l 0
333 467 m 0
 666 467 l 0
 666 134 l 0
 333 134 l 0
 333 467 l 0
666 800 m 0
 999 800 l 0
 999 467 l 0
 666 467 l 0
 666 800 l 0
333 800 m 0
 666 800 l 0
 666 467 l 0
 333 467 l 0
 333 800 l 0
EndSplineSet
EndChar

StartChar: w
Encoding: 119 119 119
Width: 1000
LayerCount: 2
Fore
SplineSet
0 134 m 0
 333 134 l 0
 333 -199 l 0
 0 -199 l 0
 0 134 l 0
666 467 m 0
 999 467 l 0
 999 134 l 0
 666 134 l 0
 666 467 l 0
333 467 m 0
 666 467 l 0
 666 134 l 0
 333 134 l 0
 333 467 l 0
666 800 m 0
 999 800 l 0
 999 467 l 0
 666 467 l 0
 666 800 l 0
333 800 m 0
 666 800 l 0
 666 467 l 0
 333 467 l 0
 333 800 l 0
0 800 m 0
 333 800 l 0
 333 467 l 0
 0 467 l 0
 0 800 l 0
EndSplineSet
EndChar

StartChar: x
Encoding: 120 120 120
Width: 1000
LayerCount: 2
Fore
SplineSet
0 134 m 0
 333 134 l 0
 333 -199 l 0
 0 -199 l 0
 0 134 l 0
666 467 m 0
 999 467 l 0
 999 134 l 0
 666 134 l 0
 666 467 l 0
333 467 m 0
 666 467 l 0
 666 134 l 0
 333 134 l 0
 333 467 l 0
0 467 m 0
 333 467 l 0
 333 134 l 0
 0 134 l 0
 0 467 l 0
EndSplineSet
EndChar

StartChar: y
Encoding: 121 121 121
Width: 1000
LayerCount: 2
Fore
SplineSet
0 134 m 0
 333 134 l 0
 333 -199 l 0
 0 -199 l 0
 0 134 l 0
666 467 m 0
 999 467 l 0
 999 134 l 0
 666 134 l 0
 666 467 l 0
333 467 m 0
 666 467 l 0
 666 134 l 0
 333 134 l 0
 333 467 l 0
0 467 m 0
 333 467 l 0
 333 134 l 0
 0 134 l 0
 0 467 l 0
0 800 m 0
 333 800 l 0
 333 467 l 0
 0 467 l 0
 0 800 l 0
EndSplineSet
EndChar

StartChar: z
Encoding: 122 122 122
Width: 1000
LayerCount: 2
Fore
SplineSet
0 134 m 0
 333 134 l 0
 333 -199 l 0
 0 -199 l 0
 0 134 l 0
666 467 m 0
 999 467 l 0
 999 134 l 0
 666 134 l 0
 666 467 l 0
333 467 m 0
 666 467 l 0
 666 134 l 0
 333 134 l 0
 333 467 l 0
0 467 m 0
 333 467 l 0
 333 134 l 0
 0 134 l 0
 0 467 l 0
333 800 m 0
 666 800 l 0
 666 467 l 0
 333 467 l 0
 333 800 l 0
EndSplineSet
EndChar

StartChar: braceleft
Encoding: 123 123 123
Width: 1000
LayerCount: 2
Fore
SplineSet
0 134 m 0
 333 134 l 0
 333 -199 l 0
 0 -199 l 0
 0 134 l 0
666 467 m 0
 999 467 l 0
 999 134 l 0
 666 134 l 0
 666 467 l 0
333 467 m 0
 666 467 l 0
 666 134 l 0
 333 134 l 0
 333 467 l 0
0 467 m 0
 333 467 l 0
 333 134 l 0
 0 134 l 0
 0 467 l 0
333 800 m 0
 666 800 l 0
 666 467 l 0
 333 467 l 0
 333 800 l 0
0 800 m 0
 333 800 l 0
 333 467 l 0
 0 467 l 0
 0 800 l 0
EndSplineSet
EndChar

StartChar: bar
Encoding: 124 124 124
Width: 1000
LayerCount: 2
Fore
SplineSet
0 134 m 0
 333 134 l 0
 333 -199 l 0
 0 -199 l 0
 0 134 l 0
666 467 m 0
 999 467 l 0
 999 134 l 0
 666 134 l 0
 666 467 l 0
333 467 m 0
 666 467 l 0
 666 134 l 0
 333 134 l 0
 333 467 l 0
0 467 m 0
 333 467 l 0
 333 134 l 0
 0 134 l 0
 0 467 l 0
666 800 m 0
 999 800 l 0
 999 467 l 0
 666 467 l 0
 666 800 l 0
EndSplineSet
EndChar

StartChar: braceright
Encoding: 125 125 125
Width: 1000
LayerCount: 2
Fore
SplineSet
0 134 m 0
 333 134 l 0
 333 -199 l 0
 0 -199 l 0
 0 134 l 0
666 467 m 0
 999 467 l 0
 999 134 l 0
 666 134 l 0
 666 467 l 0
333 467 m 0
 666 467 l 0
 666 134 l 0
 333 134 l 0
 333 467 l 0
0 467 m 0
 333 467 l 0
 333 134 l 0
 0 134 l 0
 0 467 l 0
666 800 m 0
 999 800 l 0
 999 467 l 0
 666 467 l 0
 666 800 l 0
0 800 m 0
 333 800 l 0
 333 467 l 0
 0 467 l 0
 0 800 l 0
EndSplineSet
EndChar

StartChar: asciitilde
Encoding: 126 126 126
Width: 1000
LayerCount: 2
Fore
SplineSet
0 134 m 0
 333 134 l 0
 333 -199 l 0
 0 -199 l 0
 0 134 l 0
666 467 m 0
 999 467 l 0
 999 134 l 0
 666 134 l 0
 666 467 l 0
333 467 m 0
 666 467 l 0
 666 134 l 0
 333 134 l 0
 333 467 l 0
0 467 m 0
 333 467 l 0
 333 134 l 0
 0 134 l 0
 0 467 l 0
666 800 m 0
 999 800 l 0
 999 467 l 0
 666 467 l 0
 666 800 l 0
333 800 m 0
 666 800 l 0
 666 467 l 0
 333 467 l 0
 333 800 l 0
EndSplineSet
EndChar

StartChar: uni007F
Encoding: 127 127 127
Width: 1000
LayerCount: 2
Fore
SplineSet
0 134 m 0
 333 134 l 0
 333 -199 l 0
 0 -199 l 0
 0 134 l 0
666 467 m 0
 999 467 l 0
 999 134 l 0
 666 134 l 0
 666 467 l 0
333 467 m 0
 666 467 l 0
 666 134 l 0
 333 134 l 0
 333 467 l 0
0 467 m 0
 333 467 l 0
 333 134 l 0
 0 134 l 0
 0 467 l 0
666 800 m 0
 999 800 l 0
 999 467 l 0
 666 467 l 0
 666 800 l 0
333 800 m 0
 666 800 l 0
 666 467 l 0
 333 467 l 0
 333 800 l 0
0 800 m 0
 333 800 l 0
 333 467 l 0
 0 467 l 0
 0 800 l 0
EndSplineSet
EndChar

StartChar: uni0080
Encoding: 128 128 128
Width: 1000
LayerCount: 2
Fore
SplineSet
333 134 m 0
 666 134 l 0
 666 -199 l 0
 333 -199 l 0
 333 134 l 0
EndSplineSet
EndChar

StartChar: uni0081
Encoding: 129 129 129
Width: 1000
LayerCount: 2
Fore
SplineSet
333 134 m 0
 666 134 l 0
 666 -199 l 0
 333 -199 l 0
 333 134 l 0
0 800 m 0
 333 800 l 0
 333 467 l 0
 0 467 l 0
 0 800 l 0
EndSplineSet
EndChar

StartChar: uni0082
Encoding: 130 130 130
Width: 1000
LayerCount: 2
Fore
SplineSet
333 134 m 0
 666 134 l 0
 666 -199 l 0
 333 -199 l 0
 333 134 l 0
333 800 m 0
 666 800 l 0
 666 467 l 0
 333 467 l 0
 333 800 l 0
EndSplineSet
EndChar

StartChar: uni0083
Encoding: 131 131 131
Width: 1000
LayerCount: 2
Fore
SplineSet
333 134 m 0
 666 134 l 0
 666 -199 l 0
 333 -199 l 0
 333 134 l 0
333 800 m 0
 666 800 l 0
 666 467 l 0
 333 467 l 0
 333 800 l 0
0 800 m 0
 333 800 l 0
 333 467 l 0
 0 467 l 0
 0 800 l 0
EndSplineSet
EndChar

StartChar: uni0084
Encoding: 132 132 132
Width: 1000
LayerCount: 2
Fore
SplineSet
333 134 m 0
 666 134 l 0
 666 -199 l 0
 333 -199 l 0
 333 134 l 0
666 800 m 0
 999 800 l 0
 999 467 l 0
 666 467 l 0
 666 800 l 0
EndSplineSet
EndChar

StartChar: uni0085
Encoding: 133 133 133
Width: 1000
LayerCount: 2
Fore
SplineSet
333 134 m 0
 666 134 l 0
 666 -199 l 0
 333 -199 l 0
 333 134 l 0
666 800 m 0
 999 800 l 0
 999 467 l 0
 666 467 l 0
 666 800 l 0
0 800 m 0
 333 800 l 0
 333 467 l 0
 0 467 l 0
 0 800 l 0
EndSplineSet
EndChar

StartChar: uni0086
Encoding: 134 134 134
Width: 1000
LayerCount: 2
Fore
SplineSet
333 134 m 0
 666 134 l 0
 666 -199 l 0
 333 -199 l 0
 333 134 l 0
666 800 m 0
 999 800 l 0
 999 467 l 0
 666 467 l 0
 666 800 l 0
333 800 m 0
 666 800 l 0
 666 467 l 0
 333 467 l 0
 333 800 l 0
EndSplineSet
EndChar

StartChar: uni0087
Encoding: 135 135 135
Width: 1000
LayerCount: 2
Fore
SplineSet
333 134 m 0
 666 134 l 0
 666 -199 l 0
 333 -199 l 0
 333 134 l 0
666 800 m 0
 999 800 l 0
 999 467 l 0
 666 467 l 0
 666 800 l 0
333 800 m 0
 666 800 l 0
 666 467 l 0
 333 467 l 0
 333 800 l 0
0 800 m 0
 333 800 l 0
 333 467 l 0
 0 467 l 0
 0 800 l 0
EndSplineSet
EndChar

StartChar: uni0088
Encoding: 136 136 136
Width: 1000
LayerCount: 2
Fore
SplineSet
333 134 m 0
 666 134 l 0
 666 -199 l 0
 333 -199 l 0
 333 134 l 0
0 467 m 0
 333 467 l 0
 333 134 l 0
 0 134 l 0
 0 467 l 0
EndSplineSet
EndChar

StartChar: uni0089
Encoding: 137 137 137
Width: 1000
LayerCount: 2
Fore
SplineSet
333 134 m 0
 666 134 l 0
 666 -199 l 0
 333 -199 l 0
 333 134 l 0
0 467 m 0
 333 467 l 0
 333 134 l 0
 0 134 l 0
 0 467 l 0
0 800 m 0
 333 800 l 0
 333 467 l 0
 0 467 l 0
 0 800 l 0
EndSplineSet
EndChar

StartChar: uni008A
Encoding: 138 138 138
Width: 1000
LayerCount: 2
Fore
SplineSet
333 134 m 0
 666 134 l 0
 666 -199 l 0
 333 -199 l 0
 333 134 l 0
0 467 m 0
 333 467 l 0
 333 134 l 0
 0 134 l 0
 0 467 l 0
333 800 m 0
 666 800 l 0
 666 467 l 0
 333 467 l 0
 333 800 l 0
EndSplineSet
EndChar

StartChar: uni008B
Encoding: 139 139 139
Width: 1000
LayerCount: 2
Fore
SplineSet
333 134 m 0
 666 134 l 0
 666 -199 l 0
 333 -199 l 0
 333 134 l 0
0 467 m 0
 333 467 l 0
 333 134 l 0
 0 134 l 0
 0 467 l 0
333 800 m 0
 666 800 l 0
 666 467 l 0
 333 467 l 0
 333 800 l 0
0 800 m 0
 333 800 l 0
 333 467 l 0
 0 467 l 0
 0 800 l 0
EndSplineSet
EndChar

StartChar: uni008C
Encoding: 140 140 140
Width: 1000
LayerCount: 2
Fore
SplineSet
333 134 m 0
 666 134 l 0
 666 -199 l 0
 333 -199 l 0
 333 134 l 0
0 467 m 0
 333 467 l 0
 333 134 l 0
 0 134 l 0
 0 467 l 0
666 800 m 0
 999 800 l 0
 999 467 l 0
 666 467 l 0
 666 800 l 0
EndSplineSet
EndChar

StartChar: uni008D
Encoding: 141 141 141
Width: 1000
LayerCount: 2
Fore
SplineSet
333 134 m 0
 666 134 l 0
 666 -199 l 0
 333 -199 l 0
 333 134 l 0
0 467 m 0
 333 467 l 0
 333 134 l 0
 0 134 l 0
 0 467 l 0
666 800 m 0
 999 800 l 0
 999 467 l 0
 666 467 l 0
 666 800 l 0
0 800 m 0
 333 800 l 0
 333 467 l 0
 0 467 l 0
 0 800 l 0
EndSplineSet
EndChar

StartChar: uni008E
Encoding: 142 142 142
Width: 1000
LayerCount: 2
Fore
SplineSet
333 134 m 0
 666 134 l 0
 666 -199 l 0
 333 -199 l 0
 333 134 l 0
0 467 m 0
 333 467 l 0
 333 134 l 0
 0 134 l 0
 0 467 l 0
666 800 m 0
 999 800 l 0
 999 467 l 0
 666 467 l 0
 666 800 l 0
333 800 m 0
 666 800 l 0
 666 467 l 0
 333 467 l 0
 333 800 l 0
EndSplineSet
EndChar

StartChar: uni008F
Encoding: 143 143 143
Width: 1000
LayerCount: 2
Fore
SplineSet
333 134 m 0
 666 134 l 0
 666 -199 l 0
 333 -199 l 0
 333 134 l 0
0 467 m 0
 333 467 l 0
 333 134 l 0
 0 134 l 0
 0 467 l 0
666 800 m 0
 999 800 l 0
 999 467 l 0
 666 467 l 0
 666 800 l 0
333 800 m 0
 666 800 l 0
 666 467 l 0
 333 467 l 0
 333 800 l 0
0 800 m 0
 333 800 l 0
 333 467 l 0
 0 467 l 0
 0 800 l 0
EndSplineSet
EndChar

StartChar: uni0090
Encoding: 144 144 144
Width: 1000
LayerCount: 2
Fore
SplineSet
333 134 m 0
 666 134 l 0
 666 -199 l 0
 333 -199 l 0
 333 134 l 0
333 467 m 0
 666 467 l 0
 666 134 l 0
 333 134 l 0
 333 467 l 0
EndSplineSet
EndChar

StartChar: uni0091
Encoding: 145 145 145
Width: 1000
LayerCount: 2
Fore
SplineSet
333 134 m 0
 666 134 l 0
 666 -199 l 0
 333 -199 l 0
 333 134 l 0
333 467 m 0
 666 467 l 0
 666 134 l 0
 333 134 l 0
 333 467 l 0
0 800 m 0
 333 800 l 0
 333 467 l 0
 0 467 l 0
 0 800 l 0
EndSplineSet
EndChar

StartChar: uni0092
Encoding: 146 146 146
Width: 1000
LayerCount: 2
Fore
SplineSet
333 134 m 0
 666 134 l 0
 666 -199 l 0
 333 -199 l 0
 333 134 l 0
333 467 m 0
 666 467 l 0
 666 134 l 0
 333 134 l 0
 333 467 l 0
333 800 m 0
 666 800 l 0
 666 467 l 0
 333 467 l 0
 333 800 l 0
EndSplineSet
EndChar

StartChar: uni0093
Encoding: 147 147 147
Width: 1000
LayerCount: 2
Fore
SplineSet
333 134 m 0
 666 134 l 0
 666 -199 l 0
 333 -199 l 0
 333 134 l 0
333 467 m 0
 666 467 l 0
 666 134 l 0
 333 134 l 0
 333 467 l 0
333 800 m 0
 666 800 l 0
 666 467 l 0
 333 467 l 0
 333 800 l 0
0 800 m 0
 333 800 l 0
 333 467 l 0
 0 467 l 0
 0 800 l 0
EndSplineSet
EndChar

StartChar: uni0094
Encoding: 148 148 148
Width: 1000
LayerCount: 2
Fore
SplineSet
333 134 m 0
 666 134 l 0
 666 -199 l 0
 333 -199 l 0
 333 134 l 0
333 467 m 0
 666 467 l 0
 666 134 l 0
 333 134 l 0
 333 467 l 0
666 800 m 0
 999 800 l 0
 999 467 l 0
 666 467 l 0
 666 800 l 0
EndSplineSet
EndChar

StartChar: uni0095
Encoding: 149 149 149
Width: 1000
LayerCount: 2
Fore
SplineSet
333 134 m 0
 666 134 l 0
 666 -199 l 0
 333 -199 l 0
 333 134 l 0
333 467 m 0
 666 467 l 0
 666 134 l 0
 333 134 l 0
 333 467 l 0
666 800 m 0
 999 800 l 0
 999 467 l 0
 666 467 l 0
 666 800 l 0
0 800 m 0
 333 800 l 0
 333 467 l 0
 0 467 l 0
 0 800 l 0
EndSplineSet
EndChar

StartChar: uni0096
Encoding: 150 150 150
Width: 1000
LayerCount: 2
Fore
SplineSet
333 134 m 0
 666 134 l 0
 666 -199 l 0
 333 -199 l 0
 333 134 l 0
333 467 m 0
 666 467 l 0
 666 134 l 0
 333 134 l 0
 333 467 l 0
666 800 m 0
 999 800 l 0
 999 467 l 0
 666 467 l 0
 666 800 l 0
333 800 m 0
 666 800 l 0
 666 467 l 0
 333 467 l 0
 333 800 l 0
EndSplineSet
EndChar

StartChar: uni0097
Encoding: 151 151 151
Width: 1000
LayerCount: 2
Fore
SplineSet
333 134 m 0
 666 134 l 0
 666 -199 l 0
 333 -199 l 0
 333 134 l 0
333 467 m 0
 666 467 l 0
 666 134 l 0
 333 134 l 0
 333 467 l 0
666 800 m 0
 999 800 l 0
 999 467 l 0
 666 467 l 0
 666 800 l 0
333 800 m 0
 666 800 l 0
 666 467 l 0
 333 467 l 0
 333 800 l 0
0 800 m 0
 333 800 l 0
 333 467 l 0
 0 467 l 0
 0 800 l 0
EndSplineSet
EndChar

StartChar: uni0098
Encoding: 152 152 152
Width: 1000
LayerCount: 2
Fore
SplineSet
333 134 m 0
 666 134 l 0
 666 -199 l 0
 333 -199 l 0
 333 134 l 0
333 467 m 0
 666 467 l 0
 666 134 l 0
 333 134 l 0
 333 467 l 0
0 467 m 0
 333 467 l 0
 333 134 l 0
 0 134 l 0
 0 467 l 0
EndSplineSet
EndChar

StartChar: uni0099
Encoding: 153 153 153
Width: 1000
LayerCount: 2
Fore
SplineSet
333 134 m 0
 666 134 l 0
 666 -199 l 0
 333 -199 l 0
 333 134 l 0
333 467 m 0
 666 467 l 0
 666 134 l 0
 333 134 l 0
 333 467 l 0
0 467 m 0
 333 467 l 0
 333 134 l 0
 0 134 l 0
 0 467 l 0
0 800 m 0
 333 800 l 0
 333 467 l 0
 0 467 l 0
 0 800 l 0
EndSplineSet
EndChar

StartChar: uni009A
Encoding: 154 154 154
Width: 1000
LayerCount: 2
Fore
SplineSet
333 134 m 0
 666 134 l 0
 666 -199 l 0
 333 -199 l 0
 333 134 l 0
333 467 m 0
 666 467 l 0
 666 134 l 0
 333 134 l 0
 333 467 l 0
0 467 m 0
 333 467 l 0
 333 134 l 0
 0 134 l 0
 0 467 l 0
333 800 m 0
 666 800 l 0
 666 467 l 0
 333 467 l 0
 333 800 l 0
EndSplineSet
EndChar

StartChar: uni009B
Encoding: 155 155 155
Width: 1000
LayerCount: 2
Fore
SplineSet
333 134 m 0
 666 134 l 0
 666 -199 l 0
 333 -199 l 0
 333 134 l 0
333 467 m 0
 666 467 l 0
 666 134 l 0
 333 134 l 0
 333 467 l 0
0 467 m 0
 333 467 l 0
 333 134 l 0
 0 134 l 0
 0 467 l 0
333 800 m 0
 666 800 l 0
 666 467 l 0
 333 467 l 0
 333 800 l 0
0 800 m 0
 333 800 l 0
 333 467 l 0
 0 467 l 0
 0 800 l 0
EndSplineSet
EndChar

StartChar: uni009C
Encoding: 156 156 156
Width: 1000
LayerCount: 2
Fore
SplineSet
333 134 m 0
 666 134 l 0
 666 -199 l 0
 333 -199 l 0
 333 134 l 0
333 467 m 0
 666 467 l 0
 666 134 l 0
 333 134 l 0
 333 467 l 0
0 467 m 0
 333 467 l 0
 333 134 l 0
 0 134 l 0
 0 467 l 0
666 800 m 0
 999 800 l 0
 999 467 l 0
 666 467 l 0
 666 800 l 0
EndSplineSet
EndChar

StartChar: uni009D
Encoding: 157 157 157
Width: 1000
LayerCount: 2
Fore
SplineSet
333 134 m 0
 666 134 l 0
 666 -199 l 0
 333 -199 l 0
 333 134 l 0
333 467 m 0
 666 467 l 0
 666 134 l 0
 333 134 l 0
 333 467 l 0
0 467 m 0
 333 467 l 0
 333 134 l 0
 0 134 l 0
 0 467 l 0
666 800 m 0
 999 800 l 0
 999 467 l 0
 666 467 l 0
 666 800 l 0
0 800 m 0
 333 800 l 0
 333 467 l 0
 0 467 l 0
 0 800 l 0
EndSplineSet
EndChar

StartChar: uni009E
Encoding: 158 158 158
Width: 1000
LayerCount: 2
Fore
SplineSet
333 134 m 0
 666 134 l 0
 666 -199 l 0
 333 -199 l 0
 333 134 l 0
333 467 m 0
 666 467 l 0
 666 134 l 0
 333 134 l 0
 333 467 l 0
0 467 m 0
 333 467 l 0
 333 134 l 0
 0 134 l 0
 0 467 l 0
666 800 m 0
 999 800 l 0
 999 467 l 0
 666 467 l 0
 666 800 l 0
333 800 m 0
 666 800 l 0
 666 467 l 0
 333 467 l 0
 333 800 l 0
EndSplineSet
EndChar

StartChar: uni009F
Encoding: 159 159 159
Width: 1000
LayerCount: 2
Fore
SplineSet
333 134 m 0
 666 134 l 0
 666 -199 l 0
 333 -199 l 0
 333 134 l 0
333 467 m 0
 666 467 l 0
 666 134 l 0
 333 134 l 0
 333 467 l 0
0 467 m 0
 333 467 l 0
 333 134 l 0
 0 134 l 0
 0 467 l 0
666 800 m 0
 999 800 l 0
 999 467 l 0
 666 467 l 0
 666 800 l 0
333 800 m 0
 666 800 l 0
 666 467 l 0
 333 467 l 0
 333 800 l 0
0 800 m 0
 333 800 l 0
 333 467 l 0
 0 467 l 0
 0 800 l 0
EndSplineSet
EndChar

StartChar: uni00A0
Encoding: 160 160 160
Width: 1000
LayerCount: 2
Fore
SplineSet
333 134 m 0
 666 134 l 0
 666 -199 l 0
 333 -199 l 0
 333 134 l 0
666 467 m 0
 999 467 l 0
 999 134 l 0
 666 134 l 0
 666 467 l 0
EndSplineSet
EndChar

StartChar: exclamdown
Encoding: 161 161 161
Width: 1000
LayerCount: 2
Fore
SplineSet
333 134 m 0
 666 134 l 0
 666 -199 l 0
 333 -199 l 0
 333 134 l 0
666 467 m 0
 999 467 l 0
 999 134 l 0
 666 134 l 0
 666 467 l 0
0 800 m 0
 333 800 l 0
 333 467 l 0
 0 467 l 0
 0 800 l 0
EndSplineSet
EndChar

StartChar: cent
Encoding: 162 162 162
Width: 1000
LayerCount: 2
Fore
SplineSet
333 134 m 0
 666 134 l 0
 666 -199 l 0
 333 -199 l 0
 333 134 l 0
666 467 m 0
 999 467 l 0
 999 134 l 0
 666 134 l 0
 666 467 l 0
333 800 m 0
 666 800 l 0
 666 467 l 0
 333 467 l 0
 333 800 l 0
EndSplineSet
EndChar

StartChar: sterling
Encoding: 163 163 163
Width: 1000
LayerCount: 2
Fore
SplineSet
333 134 m 0
 666 134 l 0
 666 -199 l 0
 333 -199 l 0
 333 134 l 0
666 467 m 0
 999 467 l 0
 999 134 l 0
 666 134 l 0
 666 467 l 0
333 800 m 0
 666 800 l 0
 666 467 l 0
 333 467 l 0
 333 800 l 0
0 800 m 0
 333 800 l 0
 333 467 l 0
 0 467 l 0
 0 800 l 0
EndSplineSet
EndChar

StartChar: currency
Encoding: 164 164 164
Width: 1000
LayerCount: 2
Fore
SplineSet
333 134 m 0
 666 134 l 0
 666 -199 l 0
 333 -199 l 0
 333 134 l 0
666 467 m 0
 999 467 l 0
 999 134 l 0
 666 134 l 0
 666 467 l 0
666 800 m 0
 999 800 l 0
 999 467 l 0
 666 467 l 0
 666 800 l 0
EndSplineSet
EndChar

StartChar: yen
Encoding: 165 165 165
Width: 1000
LayerCount: 2
Fore
SplineSet
333 134 m 0
 666 134 l 0
 666 -199 l 0
 333 -199 l 0
 333 134 l 0
666 467 m 0
 999 467 l 0
 999 134 l 0
 666 134 l 0
 666 467 l 0
666 800 m 0
 999 800 l 0
 999 467 l 0
 666 467 l 0
 666 800 l 0
0 800 m 0
 333 800 l 0
 333 467 l 0
 0 467 l 0
 0 800 l 0
EndSplineSet
EndChar

StartChar: brokenbar
Encoding: 166 166 166
Width: 1000
LayerCount: 2
Fore
SplineSet
333 134 m 0
 666 134 l 0
 666 -199 l 0
 333 -199 l 0
 333 134 l 0
666 467 m 0
 999 467 l 0
 999 134 l 0
 666 134 l 0
 666 467 l 0
666 800 m 0
 999 800 l 0
 999 467 l 0
 666 467 l 0
 666 800 l 0
333 800 m 0
 666 800 l 0
 666 467 l 0
 333 467 l 0
 333 800 l 0
EndSplineSet
EndChar

StartChar: section
Encoding: 167 167 167
Width: 1000
LayerCount: 2
Fore
SplineSet
333 134 m 0
 666 134 l 0
 666 -199 l 0
 333 -199 l 0
 333 134 l 0
666 467 m 0
 999 467 l 0
 999 134 l 0
 666 134 l 0
 666 467 l 0
666 800 m 0
 999 800 l 0
 999 467 l 0
 666 467 l 0
 666 800 l 0
333 800 m 0
 666 800 l 0
 666 467 l 0
 333 467 l 0
 333 800 l 0
0 800 m 0
 333 800 l 0
 333 467 l 0
 0 467 l 0
 0 800 l 0
EndSplineSet
EndChar

StartChar: dieresis
Encoding: 168 168 168
Width: 1000
LayerCount: 2
Fore
SplineSet
333 134 m 0
 666 134 l 0
 666 -199 l 0
 333 -199 l 0
 333 134 l 0
666 467 m 0
 999 467 l 0
 999 134 l 0
 666 134 l 0
 666 467 l 0
0 467 m 0
 333 467 l 0
 333 134 l 0
 0 134 l 0
 0 467 l 0
EndSplineSet
EndChar

StartChar: copyright
Encoding: 169 169 169
Width: 1000
LayerCount: 2
Fore
SplineSet
333 134 m 0
 666 134 l 0
 666 -199 l 0
 333 -199 l 0
 333 134 l 0
666 467 m 0
 999 467 l 0
 999 134 l 0
 666 134 l 0
 666 467 l 0
0 467 m 0
 333 467 l 0
 333 134 l 0
 0 134 l 0
 0 467 l 0
0 800 m 0
 333 800 l 0
 333 467 l 0
 0 467 l 0
 0 800 l 0
EndSplineSet
EndChar

StartChar: ordfeminine
Encoding: 170 170 170
Width: 1000
LayerCount: 2
Fore
SplineSet
333 134 m 0
 666 134 l 0
 666 -199 l 0
 333 -199 l 0
 333 134 l 0
666 467 m 0
 999 467 l 0
 999 134 l 0
 666 134 l 0
 666 467 l 0
0 467 m 0
 333 467 l 0
 333 134 l 0
 0 134 l 0
 0 467 l 0
333 800 m 0
 666 800 l 0
 666 467 l 0
 333 467 l 0
 333 800 l 0
EndSplineSet
EndChar

StartChar: guillemotleft
Encoding: 171 171 171
Width: 1000
LayerCount: 2
Fore
SplineSet
333 134 m 0
 666 134 l 0
 666 -199 l 0
 333 -199 l 0
 333 134 l 0
666 467 m 0
 999 467 l 0
 999 134 l 0
 666 134 l 0
 666 467 l 0
0 467 m 0
 333 467 l 0
 333 134 l 0
 0 134 l 0
 0 467 l 0
333 800 m 0
 666 800 l 0
 666 467 l 0
 333 467 l 0
 333 800 l 0
0 800 m 0
 333 800 l 0
 333 467 l 0
 0 467 l 0
 0 800 l 0
EndSplineSet
EndChar

StartChar: logicalnot
Encoding: 172 172 172
Width: 1000
LayerCount: 2
Fore
SplineSet
333 134 m 0
 666 134 l 0
 666 -199 l 0
 333 -199 l 0
 333 134 l 0
666 467 m 0
 999 467 l 0
 999 134 l 0
 666 134 l 0
 666 467 l 0
0 467 m 0
 333 467 l 0
 333 134 l 0
 0 134 l 0
 0 467 l 0
666 800 m 0
 999 800 l 0
 999 467 l 0
 666 467 l 0
 666 800 l 0
EndSplineSet
EndChar

StartChar: uni00AD
Encoding: 173 173 173
Width: 1000
LayerCount: 2
Fore
SplineSet
333 134 m 0
 666 134 l 0
 666 -199 l 0
 333 -199 l 0
 333 134 l 0
666 467 m 0
 999 467 l 0
 999 134 l 0
 666 134 l 0
 666 467 l 0
0 467 m 0
 333 467 l 0
 333 134 l 0
 0 134 l 0
 0 467 l 0
666 800 m 0
 999 800 l 0
 999 467 l 0
 666 467 l 0
 666 800 l 0
0 800 m 0
 333 800 l 0
 333 467 l 0
 0 467 l 0
 0 800 l 0
EndSplineSet
EndChar

StartChar: registered
Encoding: 174 174 174
Width: 1000
LayerCount: 2
Fore
SplineSet
333 134 m 0
 666 134 l 0
 666 -199 l 0
 333 -199 l 0
 333 134 l 0
666 467 m 0
 999 467 l 0
 999 134 l 0
 666 134 l 0
 666 467 l 0
0 467 m 0
 333 467 l 0
 333 134 l 0
 0 134 l 0
 0 467 l 0
666 800 m 0
 999 800 l 0
 999 467 l 0
 666 467 l 0
 666 800 l 0
333 800 m 0
 666 800 l 0
 666 467 l 0
 333 467 l 0
 333 800 l 0
EndSplineSet
EndChar

StartChar: macron
Encoding: 175 175 175
Width: 1000
LayerCount: 2
Fore
SplineSet
333 134 m 0
 666 134 l 0
 666 -199 l 0
 333 -199 l 0
 333 134 l 0
666 467 m 0
 999 467 l 0
 999 134 l 0
 666 134 l 0
 666 467 l 0
0 467 m 0
 333 467 l 0
 333 134 l 0
 0 134 l 0
 0 467 l 0
666 800 m 0
 999 800 l 0
 999 467 l 0
 666 467 l 0
 666 800 l 0
333 800 m 0
 666 800 l 0
 666 467 l 0
 333 467 l 0
 333 800 l 0
0 800 m 0
 333 800 l 0
 333 467 l 0
 0 467 l 0
 0 800 l 0
EndSplineSet
EndChar

StartChar: degree
Encoding: 176 176 176
Width: 1000
LayerCount: 2
Fore
SplineSet
333 134 m 0
 666 134 l 0
 666 -199 l 0
 333 -199 l 0
 333 134 l 0
666 467 m 0
 999 467 l 0
 999 134 l 0
 666 134 l 0
 666 467 l 0
333 467 m 0
 666 467 l 0
 666 134 l 0
 333 134 l 0
 333 467 l 0
EndSplineSet
EndChar

StartChar: plusminus
Encoding: 177 177 177
Width: 1000
LayerCount: 2
Fore
SplineSet
333 134 m 0
 666 134 l 0
 666 -199 l 0
 333 -199 l 0
 333 134 l 0
666 467 m 0
 999 467 l 0
 999 134 l 0
 666 134 l 0
 666 467 l 0
333 467 m 0
 666 467 l 0
 666 134 l 0
 333 134 l 0
 333 467 l 0
0 800 m 0
 333 800 l 0
 333 467 l 0
 0 467 l 0
 0 800 l 0
EndSplineSet
EndChar

StartChar: uni00B2
Encoding: 178 178 178
Width: 1000
LayerCount: 2
Fore
SplineSet
333 134 m 0
 666 134 l 0
 666 -199 l 0
 333 -199 l 0
 333 134 l 0
666 467 m 0
 999 467 l 0
 999 134 l 0
 666 134 l 0
 666 467 l 0
333 467 m 0
 666 467 l 0
 666 134 l 0
 333 134 l 0
 333 467 l 0
333 800 m 0
 666 800 l 0
 666 467 l 0
 333 467 l 0
 333 800 l 0
EndSplineSet
EndChar

StartChar: uni00B3
Encoding: 179 179 179
Width: 1000
LayerCount: 2
Fore
SplineSet
333 134 m 0
 666 134 l 0
 666 -199 l 0
 333 -199 l 0
 333 134 l 0
666 467 m 0
 999 467 l 0
 999 134 l 0
 666 134 l 0
 666 467 l 0
333 467 m 0
 666 467 l 0
 666 134 l 0
 333 134 l 0
 333 467 l 0
333 800 m 0
 666 800 l 0
 666 467 l 0
 333 467 l 0
 333 800 l 0
0 800 m 0
 333 800 l 0
 333 467 l 0
 0 467 l 0
 0 800 l 0
EndSplineSet
EndChar

StartChar: acute
Encoding: 180 180 180
Width: 1000
LayerCount: 2
Fore
SplineSet
333 134 m 0
 666 134 l 0
 666 -199 l 0
 333 -199 l 0
 333 134 l 0
666 467 m 0
 999 467 l 0
 999 134 l 0
 666 134 l 0
 666 467 l 0
333 467 m 0
 666 467 l 0
 666 134 l 0
 333 134 l 0
 333 467 l 0
666 800 m 0
 999 800 l 0
 999 467 l 0
 666 467 l 0
 666 800 l 0
EndSplineSet
EndChar

StartChar: mu
Encoding: 181 181 181
Width: 1000
LayerCount: 2
Fore
SplineSet
333 134 m 0
 666 134 l 0
 666 -199 l 0
 333 -199 l 0
 333 134 l 0
666 467 m 0
 999 467 l 0
 999 134 l 0
 666 134 l 0
 666 467 l 0
333 467 m 0
 666 467 l 0
 666 134 l 0
 333 134 l 0
 333 467 l 0
666 800 m 0
 999 800 l 0
 999 467 l 0
 666 467 l 0
 666 800 l 0
0 800 m 0
 333 800 l 0
 333 467 l 0
 0 467 l 0
 0 800 l 0
EndSplineSet
EndChar

StartChar: paragraph
Encoding: 182 182 182
Width: 1000
LayerCount: 2
Fore
SplineSet
333 134 m 0
 666 134 l 0
 666 -199 l 0
 333 -199 l 0
 333 134 l 0
666 467 m 0
 999 467 l 0
 999 134 l 0
 666 134 l 0
 666 467 l 0
333 467 m 0
 666 467 l 0
 666 134 l 0
 333 134 l 0
 333 467 l 0
666 800 m 0
 999 800 l 0
 999 467 l 0
 666 467 l 0
 666 800 l 0
333 800 m 0
 666 800 l 0
 666 467 l 0
 333 467 l 0
 333 800 l 0
EndSplineSet
EndChar

StartChar: periodcentered
Encoding: 183 183 183
Width: 1000
LayerCount: 2
Fore
SplineSet
333 134 m 0
 666 134 l 0
 666 -199 l 0
 333 -199 l 0
 333 134 l 0
666 467 m 0
 999 467 l 0
 999 134 l 0
 666 134 l 0
 666 467 l 0
333 467 m 0
 666 467 l 0
 666 134 l 0
 333 134 l 0
 333 467 l 0
666 800 m 0
 999 800 l 0
 999 467 l 0
 666 467 l 0
 666 800 l 0
333 800 m 0
 666 800 l 0
 666 467 l 0
 333 467 l 0
 333 800 l 0
0 800 m 0
 333 800 l 0
 333 467 l 0
 0 467 l 0
 0 800 l 0
EndSplineSet
EndChar

StartChar: cedilla
Encoding: 184 184 184
Width: 1000
LayerCount: 2
Fore
SplineSet
333 134 m 0
 666 134 l 0
 666 -199 l 0
 333 -199 l 0
 333 134 l 0
666 467 m 0
 999 467 l 0
 999 134 l 0
 666 134 l 0
 666 467 l 0
333 467 m 0
 666 467 l 0
 666 134 l 0
 333 134 l 0
 333 467 l 0
0 467 m 0
 333 467 l 0
 333 134 l 0
 0 134 l 0
 0 467 l 0
EndSplineSet
EndChar

StartChar: uni00B9
Encoding: 185 185 185
Width: 1000
LayerCount: 2
Fore
SplineSet
333 134 m 0
 666 134 l 0
 666 -199 l 0
 333 -199 l 0
 333 134 l 0
666 467 m 0
 999 467 l 0
 999 134 l 0
 666 134 l 0
 666 467 l 0
333 467 m 0
 666 467 l 0
 666 134 l 0
 333 134 l 0
 333 467 l 0
0 467 m 0
 333 467 l 0
 333 134 l 0
 0 134 l 0
 0 467 l 0
0 800 m 0
 333 800 l 0
 333 467 l 0
 0 467 l 0
 0 800 l 0
EndSplineSet
EndChar

StartChar: ordmasculine
Encoding: 186 186 186
Width: 1000
LayerCount: 2
Fore
SplineSet
333 134 m 0
 666 134 l 0
 666 -199 l 0
 333 -199 l 0
 333 134 l 0
666 467 m 0
 999 467 l 0
 999 134 l 0
 666 134 l 0
 666 467 l 0
333 467 m 0
 666 467 l 0
 666 134 l 0
 333 134 l 0
 333 467 l 0
0 467 m 0
 333 467 l 0
 333 134 l 0
 0 134 l 0
 0 467 l 0
333 800 m 0
 666 800 l 0
 666 467 l 0
 333 467 l 0
 333 800 l 0
EndSplineSet
EndChar

StartChar: guillemotright
Encoding: 187 187 187
Width: 1000
LayerCount: 2
Fore
SplineSet
333 134 m 0
 666 134 l 0
 666 -199 l 0
 333 -199 l 0
 333 134 l 0
666 467 m 0
 999 467 l 0
 999 134 l 0
 666 134 l 0
 666 467 l 0
333 467 m 0
 666 467 l 0
 666 134 l 0
 333 134 l 0
 333 467 l 0
0 467 m 0
 333 467 l 0
 333 134 l 0
 0 134 l 0
 0 467 l 0
333 800 m 0
 666 800 l 0
 666 467 l 0
 333 467 l 0
 333 800 l 0
0 800 m 0
 333 800 l 0
 333 467 l 0
 0 467 l 0
 0 800 l 0
EndSplineSet
EndChar

StartChar: onequarter
Encoding: 188 188 188
Width: 1000
LayerCount: 2
Fore
SplineSet
333 134 m 0
 666 134 l 0
 666 -199 l 0
 333 -199 l 0
 333 134 l 0
666 467 m 0
 999 467 l 0
 999 134 l 0
 666 134 l 0
 666 467 l 0
333 467 m 0
 666 467 l 0
 666 134 l 0
 333 134 l 0
 333 467 l 0
0 467 m 0
 333 467 l 0
 333 134 l 0
 0 134 l 0
 0 467 l 0
666 800 m 0
 999 800 l 0
 999 467 l 0
 666 467 l 0
 666 800 l 0
EndSplineSet
EndChar

StartChar: onehalf
Encoding: 189 189 189
Width: 1000
LayerCount: 2
Fore
SplineSet
333 134 m 0
 666 134 l 0
 666 -199 l 0
 333 -199 l 0
 333 134 l 0
666 467 m 0
 999 467 l 0
 999 134 l 0
 666 134 l 0
 666 467 l 0
333 467 m 0
 666 467 l 0
 666 134 l 0
 333 134 l 0
 333 467 l 0
0 467 m 0
 333 467 l 0
 333 134 l 0
 0 134 l 0
 0 467 l 0
666 800 m 0
 999 800 l 0
 999 467 l 0
 666 467 l 0
 666 800 l 0
0 800 m 0
 333 800 l 0
 333 467 l 0
 0 467 l 0
 0 800 l 0
EndSplineSet
EndChar

StartChar: threequarters
Encoding: 190 190 190
Width: 1000
LayerCount: 2
Fore
SplineSet
333 134 m 0
 666 134 l 0
 666 -199 l 0
 333 -199 l 0
 333 134 l 0
666 467 m 0
 999 467 l 0
 999 134 l 0
 666 134 l 0
 666 467 l 0
333 467 m 0
 666 467 l 0
 666 134 l 0
 333 134 l 0
 333 467 l 0
0 467 m 0
 333 467 l 0
 333 134 l 0
 0 134 l 0
 0 467 l 0
666 800 m 0
 999 800 l 0
 999 467 l 0
 666 467 l 0
 666 800 l 0
333 800 m 0
 666 800 l 0
 666 467 l 0
 333 467 l 0
 333 800 l 0
EndSplineSet
EndChar

StartChar: questiondown
Encoding: 191 191 191
Width: 1000
LayerCount: 2
Fore
SplineSet
333 134 m 0
 666 134 l 0
 666 -199 l 0
 333 -199 l 0
 333 134 l 0
666 467 m 0
 999 467 l 0
 999 134 l 0
 666 134 l 0
 666 467 l 0
333 467 m 0
 666 467 l 0
 666 134 l 0
 333 134 l 0
 333 467 l 0
0 467 m 0
 333 467 l 0
 333 134 l 0
 0 134 l 0
 0 467 l 0
666 800 m 0
 999 800 l 0
 999 467 l 0
 666 467 l 0
 666 800 l 0
333 800 m 0
 666 800 l 0
 666 467 l 0
 333 467 l 0
 333 800 l 0
0 800 m 0
 333 800 l 0
 333 467 l 0
 0 467 l 0
 0 800 l 0
EndSplineSet
EndChar

StartChar: Agrave
Encoding: 192 192 192
Width: 1000
LayerCount: 2
Fore
SplineSet
333 134 m 0
 666 134 l 0
 666 -199 l 0
 333 -199 l 0
 333 134 l 0
0 134 m 0
 333 134 l 0
 333 -199 l 0
 0 -199 l 0
 0 134 l 0
EndSplineSet
EndChar

StartChar: Aacute
Encoding: 193 193 193
Width: 1000
LayerCount: 2
Fore
SplineSet
333 134 m 0
 666 134 l 0
 666 -199 l 0
 333 -199 l 0
 333 134 l 0
0 134 m 0
 333 134 l 0
 333 -199 l 0
 0 -199 l 0
 0 134 l 0
0 800 m 0
 333 800 l 0
 333 467 l 0
 0 467 l 0
 0 800 l 0
EndSplineSet
EndChar

StartChar: Acircumflex
Encoding: 194 194 194
Width: 1000
LayerCount: 2
Fore
SplineSet
333 134 m 0
 666 134 l 0
 666 -199 l 0
 333 -199 l 0
 333 134 l 0
0 134 m 0
 333 134 l 0
 333 -199 l 0
 0 -199 l 0
 0 134 l 0
333 800 m 0
 666 800 l 0
 666 467 l 0
 333 467 l 0
 333 800 l 0
EndSplineSet
EndChar

StartChar: Atilde
Encoding: 195 195 195
Width: 1000
LayerCount: 2
Fore
SplineSet
333 134 m 0
 666 134 l 0
 666 -199 l 0
 333 -199 l 0
 333 134 l 0
0 134 m 0
 333 134 l 0
 333 -199 l 0
 0 -199 l 0
 0 134 l 0
333 800 m 0
 666 800 l 0
 666 467 l 0
 333 467 l 0
 333 800 l 0
0 800 m 0
 333 800 l 0
 333 467 l 0
 0 467 l 0
 0 800 l 0
EndSplineSet
EndChar

StartChar: Adieresis
Encoding: 196 196 196
Width: 1000
LayerCount: 2
Fore
SplineSet
333 134 m 0
 666 134 l 0
 666 -199 l 0
 333 -199 l 0
 333 134 l 0
0 134 m 0
 333 134 l 0
 333 -199 l 0
 0 -199 l 0
 0 134 l 0
666 800 m 0
 999 800 l 0
 999 467 l 0
 666 467 l 0
 666 800 l 0
EndSplineSet
EndChar

StartChar: Aring
Encoding: 197 197 197
Width: 1000
LayerCount: 2
Fore
SplineSet
333 134 m 0
 666 134 l 0
 666 -199 l 0
 333 -199 l 0
 333 134 l 0
0 134 m 0
 333 134 l 0
 333 -199 l 0
 0 -199 l 0
 0 134 l 0
666 800 m 0
 999 800 l 0
 999 467 l 0
 666 467 l 0
 666 800 l 0
0 800 m 0
 333 800 l 0
 333 467 l 0
 0 467 l 0
 0 800 l 0
EndSplineSet
EndChar

StartChar: AE
Encoding: 198 198 198
Width: 1000
LayerCount: 2
Fore
SplineSet
333 134 m 0
 666 134 l 0
 666 -199 l 0
 333 -199 l 0
 333 134 l 0
0 134 m 0
 333 134 l 0
 333 -199 l 0
 0 -199 l 0
 0 134 l 0
666 800 m 0
 999 800 l 0
 999 467 l 0
 666 467 l 0
 666 800 l 0
333 800 m 0
 666 800 l 0
 666 467 l 0
 333 467 l 0
 333 800 l 0
EndSplineSet
EndChar

StartChar: Ccedilla
Encoding: 199 199 199
Width: 1000
LayerCount: 2
Fore
SplineSet
333 134 m 0
 666 134 l 0
 666 -199 l 0
 333 -199 l 0
 333 134 l 0
0 134 m 0
 333 134 l 0
 333 -199 l 0
 0 -199 l 0
 0 134 l 0
666 800 m 0
 999 800 l 0
 999 467 l 0
 666 467 l 0
 666 800 l 0
333 800 m 0
 666 800 l 0
 666 467 l 0
 333 467 l 0
 333 800 l 0
0 800 m 0
 333 800 l 0
 333 467 l 0
 0 467 l 0
 0 800 l 0
EndSplineSet
EndChar

StartChar: Egrave
Encoding: 200 200 200
Width: 1000
LayerCount: 2
Fore
SplineSet
333 134 m 0
 666 134 l 0
 666 -199 l 0
 333 -199 l 0
 333 134 l 0
0 134 m 0
 333 134 l 0
 333 -199 l 0
 0 -199 l 0
 0 134 l 0
0 467 m 0
 333 467 l 0
 333 134 l 0
 0 134 l 0
 0 467 l 0
EndSplineSet
EndChar

StartChar: Eacute
Encoding: 201 201 201
Width: 1000
LayerCount: 2
Fore
SplineSet
333 134 m 0
 666 134 l 0
 666 -199 l 0
 333 -199 l 0
 333 134 l 0
0 134 m 0
 333 134 l 0
 333 -199 l 0
 0 -199 l 0
 0 134 l 0
0 467 m 0
 333 467 l 0
 333 134 l 0
 0 134 l 0
 0 467 l 0
0 800 m 0
 333 800 l 0
 333 467 l 0
 0 467 l 0
 0 800 l 0
EndSplineSet
EndChar

StartChar: Ecircumflex
Encoding: 202 202 202
Width: 1000
LayerCount: 2
Fore
SplineSet
333 134 m 0
 666 134 l 0
 666 -199 l 0
 333 -199 l 0
 333 134 l 0
0 134 m 0
 333 134 l 0
 333 -199 l 0
 0 -199 l 0
 0 134 l 0
0 467 m 0
 333 467 l 0
 333 134 l 0
 0 134 l 0
 0 467 l 0
333 800 m 0
 666 800 l 0
 666 467 l 0
 333 467 l 0
 333 800 l 0
EndSplineSet
EndChar

StartChar: Edieresis
Encoding: 203 203 203
Width: 1000
LayerCount: 2
Fore
SplineSet
333 134 m 0
 666 134 l 0
 666 -199 l 0
 333 -199 l 0
 333 134 l 0
0 134 m 0
 333 134 l 0
 333 -199 l 0
 0 -199 l 0
 0 134 l 0
0 467 m 0
 333 467 l 0
 333 134 l 0
 0 134 l 0
 0 467 l 0
333 800 m 0
 666 800 l 0
 666 467 l 0
 333 467 l 0
 333 800 l 0
0 800 m 0
 333 800 l 0
 333 467 l 0
 0 467 l 0
 0 800 l 0
EndSplineSet
EndChar

StartChar: Igrave
Encoding: 204 204 204
Width: 1000
LayerCount: 2
Fore
SplineSet
333 134 m 0
 666 134 l 0
 666 -199 l 0
 333 -199 l 0
 333 134 l 0
0 134 m 0
 333 134 l 0
 333 -199 l 0
 0 -199 l 0
 0 134 l 0
0 467 m 0
 333 467 l 0
 333 134 l 0
 0 134 l 0
 0 467 l 0
666 800 m 0
 999 800 l 0
 999 467 l 0
 666 467 l 0
 666 800 l 0
EndSplineSet
EndChar

StartChar: Iacute
Encoding: 205 205 205
Width: 1000
LayerCount: 2
Fore
SplineSet
333 134 m 0
 666 134 l 0
 666 -199 l 0
 333 -199 l 0
 333 134 l 0
0 134 m 0
 333 134 l 0
 333 -199 l 0
 0 -199 l 0
 0 134 l 0
0 467 m 0
 333 467 l 0
 333 134 l 0
 0 134 l 0
 0 467 l 0
666 800 m 0
 999 800 l 0
 999 467 l 0
 666 467 l 0
 666 800 l 0
0 800 m 0
 333 800 l 0
 333 467 l 0
 0 467 l 0
 0 800 l 0
EndSplineSet
EndChar

StartChar: Icircumflex
Encoding: 206 206 206
Width: 1000
LayerCount: 2
Fore
SplineSet
333 134 m 0
 666 134 l 0
 666 -199 l 0
 333 -199 l 0
 333 134 l 0
0 134 m 0
 333 134 l 0
 333 -199 l 0
 0 -199 l 0
 0 134 l 0
0 467 m 0
 333 467 l 0
 333 134 l 0
 0 134 l 0
 0 467 l 0
666 800 m 0
 999 800 l 0
 999 467 l 0
 666 467 l 0
 666 800 l 0
333 800 m 0
 666 800 l 0
 666 467 l 0
 333 467 l 0
 333 800 l 0
EndSplineSet
EndChar

StartChar: Idieresis
Encoding: 207 207 207
Width: 1000
LayerCount: 2
Fore
SplineSet
333 134 m 0
 666 134 l 0
 666 -199 l 0
 333 -199 l 0
 333 134 l 0
0 134 m 0
 333 134 l 0
 333 -199 l 0
 0 -199 l 0
 0 134 l 0
0 467 m 0
 333 467 l 0
 333 134 l 0
 0 134 l 0
 0 467 l 0
666 800 m 0
 999 800 l 0
 999 467 l 0
 666 467 l 0
 666 800 l 0
333 800 m 0
 666 800 l 0
 666 467 l 0
 333 467 l 0
 333 800 l 0
0 800 m 0
 333 800 l 0
 333 467 l 0
 0 467 l 0
 0 800 l 0
EndSplineSet
EndChar

StartChar: Eth
Encoding: 208 208 208
Width: 1000
LayerCount: 2
Fore
SplineSet
333 134 m 0
 666 134 l 0
 666 -199 l 0
 333 -199 l 0
 333 134 l 0
0 134 m 0
 333 134 l 0
 333 -199 l 0
 0 -199 l 0
 0 134 l 0
333 467 m 0
 666 467 l 0
 666 134 l 0
 333 134 l 0
 333 467 l 0
EndSplineSet
EndChar

StartChar: Ntilde
Encoding: 209 209 209
Width: 1000
LayerCount: 2
Fore
SplineSet
333 134 m 0
 666 134 l 0
 666 -199 l 0
 333 -199 l 0
 333 134 l 0
0 134 m 0
 333 134 l 0
 333 -199 l 0
 0 -199 l 0
 0 134 l 0
333 467 m 0
 666 467 l 0
 666 134 l 0
 333 134 l 0
 333 467 l 0
0 800 m 0
 333 800 l 0
 333 467 l 0
 0 467 l 0
 0 800 l 0
EndSplineSet
EndChar

StartChar: Ograve
Encoding: 210 210 210
Width: 1000
LayerCount: 2
Fore
SplineSet
333 134 m 0
 666 134 l 0
 666 -199 l 0
 333 -199 l 0
 333 134 l 0
0 134 m 0
 333 134 l 0
 333 -199 l 0
 0 -199 l 0
 0 134 l 0
333 467 m 0
 666 467 l 0
 666 134 l 0
 333 134 l 0
 333 467 l 0
333 800 m 0
 666 800 l 0
 666 467 l 0
 333 467 l 0
 333 800 l 0
EndSplineSet
EndChar

StartChar: Oacute
Encoding: 211 211 211
Width: 1000
LayerCount: 2
Fore
SplineSet
333 134 m 0
 666 134 l 0
 666 -199 l 0
 333 -199 l 0
 333 134 l 0
0 134 m 0
 333 134 l 0
 333 -199 l 0
 0 -199 l 0
 0 134 l 0
333 467 m 0
 666 467 l 0
 666 134 l 0
 333 134 l 0
 333 467 l 0
333 800 m 0
 666 800 l 0
 666 467 l 0
 333 467 l 0
 333 800 l 0
0 800 m 0
 333 800 l 0
 333 467 l 0
 0 467 l 0
 0 800 l 0
EndSplineSet
EndChar

StartChar: Ocircumflex
Encoding: 212 212 212
Width: 1000
LayerCount: 2
Fore
SplineSet
333 134 m 0
 666 134 l 0
 666 -199 l 0
 333 -199 l 0
 333 134 l 0
0 134 m 0
 333 134 l 0
 333 -199 l 0
 0 -199 l 0
 0 134 l 0
333 467 m 0
 666 467 l 0
 666 134 l 0
 333 134 l 0
 333 467 l 0
666 800 m 0
 999 800 l 0
 999 467 l 0
 666 467 l 0
 666 800 l 0
EndSplineSet
EndChar

StartChar: Otilde
Encoding: 213 213 213
Width: 1000
LayerCount: 2
Fore
SplineSet
333 134 m 0
 666 134 l 0
 666 -199 l 0
 333 -199 l 0
 333 134 l 0
0 134 m 0
 333 134 l 0
 333 -199 l 0
 0 -199 l 0
 0 134 l 0
333 467 m 0
 666 467 l 0
 666 134 l 0
 333 134 l 0
 333 467 l 0
666 800 m 0
 999 800 l 0
 999 467 l 0
 666 467 l 0
 666 800 l 0
0 800 m 0
 333 800 l 0
 333 467 l 0
 0 467 l 0
 0 800 l 0
EndSplineSet
EndChar

StartChar: Odieresis
Encoding: 214 214 214
Width: 1000
LayerCount: 2
Fore
SplineSet
333 134 m 0
 666 134 l 0
 666 -199 l 0
 333 -199 l 0
 333 134 l 0
0 134 m 0
 333 134 l 0
 333 -199 l 0
 0 -199 l 0
 0 134 l 0
333 467 m 0
 666 467 l 0
 666 134 l 0
 333 134 l 0
 333 467 l 0
666 800 m 0
 999 800 l 0
 999 467 l 0
 666 467 l 0
 666 800 l 0
333 800 m 0
 666 800 l 0
 666 467 l 0
 333 467 l 0
 333 800 l 0
EndSplineSet
EndChar

StartChar: multiply
Encoding: 215 215 215
Width: 1000
LayerCount: 2
Fore
SplineSet
333 134 m 0
 666 134 l 0
 666 -199 l 0
 333 -199 l 0
 333 134 l 0
0 134 m 0
 333 134 l 0
 333 -199 l 0
 0 -199 l 0
 0 134 l 0
333 467 m 0
 666 467 l 0
 666 134 l 0
 333 134 l 0
 333 467 l 0
666 800 m 0
 999 800 l 0
 999 467 l 0
 666 467 l 0
 666 800 l 0
333 800 m 0
 666 800 l 0
 666 467 l 0
 333 467 l 0
 333 800 l 0
0 800 m 0
 333 800 l 0
 333 467 l 0
 0 467 l 0
 0 800 l 0
EndSplineSet
EndChar

StartChar: Oslash
Encoding: 216 216 216
Width: 1000
LayerCount: 2
Fore
SplineSet
333 134 m 0
 666 134 l 0
 666 -199 l 0
 333 -199 l 0
 333 134 l 0
0 134 m 0
 333 134 l 0
 333 -199 l 0
 0 -199 l 0
 0 134 l 0
333 467 m 0
 666 467 l 0
 666 134 l 0
 333 134 l 0
 333 467 l 0
0 467 m 0
 333 467 l 0
 333 134 l 0
 0 134 l 0
 0 467 l 0
EndSplineSet
EndChar

StartChar: Ugrave
Encoding: 217 217 217
Width: 1000
LayerCount: 2
Fore
SplineSet
333 134 m 0
 666 134 l 0
 666 -199 l 0
 333 -199 l 0
 333 134 l 0
0 134 m 0
 333 134 l 0
 333 -199 l 0
 0 -199 l 0
 0 134 l 0
333 467 m 0
 666 467 l 0
 666 134 l 0
 333 134 l 0
 333 467 l 0
0 467 m 0
 333 467 l 0
 333 134 l 0
 0 134 l 0
 0 467 l 0
0 800 m 0
 333 800 l 0
 333 467 l 0
 0 467 l 0
 0 800 l 0
EndSplineSet
EndChar

StartChar: Uacute
Encoding: 218 218 218
Width: 1000
LayerCount: 2
Fore
SplineSet
333 134 m 0
 666 134 l 0
 666 -199 l 0
 333 -199 l 0
 333 134 l 0
0 134 m 0
 333 134 l 0
 333 -199 l 0
 0 -199 l 0
 0 134 l 0
333 467 m 0
 666 467 l 0
 666 134 l 0
 333 134 l 0
 333 467 l 0
0 467 m 0
 333 467 l 0
 333 134 l 0
 0 134 l 0
 0 467 l 0
333 800 m 0
 666 800 l 0
 666 467 l 0
 333 467 l 0
 333 800 l 0
EndSplineSet
EndChar

StartChar: Ucircumflex
Encoding: 219 219 219
Width: 1000
LayerCount: 2
Fore
SplineSet
333 134 m 0
 666 134 l 0
 666 -199 l 0
 333 -199 l 0
 333 134 l 0
0 134 m 0
 333 134 l 0
 333 -199 l 0
 0 -199 l 0
 0 134 l 0
333 467 m 0
 666 467 l 0
 666 134 l 0
 333 134 l 0
 333 467 l 0
0 467 m 0
 333 467 l 0
 333 134 l 0
 0 134 l 0
 0 467 l 0
333 800 m 0
 666 800 l 0
 666 467 l 0
 333 467 l 0
 333 800 l 0
0 800 m 0
 333 800 l 0
 333 467 l 0
 0 467 l 0
 0 800 l 0
EndSplineSet
EndChar

StartChar: Udieresis
Encoding: 220 220 220
Width: 1000
LayerCount: 2
Fore
SplineSet
333 134 m 0
 666 134 l 0
 666 -199 l 0
 333 -199 l 0
 333 134 l 0
0 134 m 0
 333 134 l 0
 333 -199 l 0
 0 -199 l 0
 0 134 l 0
333 467 m 0
 666 467 l 0
 666 134 l 0
 333 134 l 0
 333 467 l 0
0 467 m 0
 333 467 l 0
 333 134 l 0
 0 134 l 0
 0 467 l 0
666 800 m 0
 999 800 l 0
 999 467 l 0
 666 467 l 0
 666 800 l 0
EndSplineSet
EndChar

StartChar: Yacute
Encoding: 221 221 221
Width: 1000
LayerCount: 2
Fore
SplineSet
333 134 m 0
 666 134 l 0
 666 -199 l 0
 333 -199 l 0
 333 134 l 0
0 134 m 0
 333 134 l 0
 333 -199 l 0
 0 -199 l 0
 0 134 l 0
333 467 m 0
 666 467 l 0
 666 134 l 0
 333 134 l 0
 333 467 l 0
0 467 m 0
 333 467 l 0
 333 134 l 0
 0 134 l 0
 0 467 l 0
666 800 m 0
 999 800 l 0
 999 467 l 0
 666 467 l 0
 666 800 l 0
0 800 m 0
 333 800 l 0
 333 467 l 0
 0 467 l 0
 0 800 l 0
EndSplineSet
EndChar

StartChar: Thorn
Encoding: 222 222 222
Width: 1000
LayerCount: 2
Fore
SplineSet
333 134 m 0
 666 134 l 0
 666 -199 l 0
 333 -199 l 0
 333 134 l 0
0 134 m 0
 333 134 l 0
 333 -199 l 0
 0 -199 l 0
 0 134 l 0
333 467 m 0
 666 467 l 0
 666 134 l 0
 333 134 l 0
 333 467 l 0
0 467 m 0
 333 467 l 0
 333 134 l 0
 0 134 l 0
 0 467 l 0
666 800 m 0
 999 800 l 0
 999 467 l 0
 666 467 l 0
 666 800 l 0
333 800 m 0
 666 800 l 0
 666 467 l 0
 333 467 l 0
 333 800 l 0
EndSplineSet
EndChar

StartChar: germandbls
Encoding: 223 223 223
Width: 1000
LayerCount: 2
Fore
SplineSet
333 134 m 0
 666 134 l 0
 666 -199 l 0
 333 -199 l 0
 333 134 l 0
0 134 m 0
 333 134 l 0
 333 -199 l 0
 0 -199 l 0
 0 134 l 0
333 467 m 0
 666 467 l 0
 666 134 l 0
 333 134 l 0
 333 467 l 0
0 467 m 0
 333 467 l 0
 333 134 l 0
 0 134 l 0
 0 467 l 0
666 800 m 0
 999 800 l 0
 999 467 l 0
 666 467 l 0
 666 800 l 0
333 800 m 0
 666 800 l 0
 666 467 l 0
 333 467 l 0
 333 800 l 0
0 800 m 0
 333 800 l 0
 333 467 l 0
 0 467 l 0
 0 800 l 0
EndSplineSet
EndChar

StartChar: agrave
Encoding: 224 224 224
Width: 1000
LayerCount: 2
Fore
SplineSet
333 134 m 0
 666 134 l 0
 666 -199 l 0
 333 -199 l 0
 333 134 l 0
0 134 m 0
 333 134 l 0
 333 -199 l 0
 0 -199 l 0
 0 134 l 0
666 467 m 0
 999 467 l 0
 999 134 l 0
 666 134 l 0
 666 467 l 0
EndSplineSet
EndChar

StartChar: aacute
Encoding: 225 225 225
Width: 1000
LayerCount: 2
Fore
SplineSet
333 134 m 0
 666 134 l 0
 666 -199 l 0
 333 -199 l 0
 333 134 l 0
0 134 m 0
 333 134 l 0
 333 -199 l 0
 0 -199 l 0
 0 134 l 0
666 467 m 0
 999 467 l 0
 999 134 l 0
 666 134 l 0
 666 467 l 0
0 800 m 0
 333 800 l 0
 333 467 l 0
 0 467 l 0
 0 800 l 0
EndSplineSet
EndChar

StartChar: acircumflex
Encoding: 226 226 226
Width: 1000
LayerCount: 2
Fore
SplineSet
333 134 m 0
 666 134 l 0
 666 -199 l 0
 333 -199 l 0
 333 134 l 0
0 134 m 0
 333 134 l 0
 333 -199 l 0
 0 -199 l 0
 0 134 l 0
666 467 m 0
 999 467 l 0
 999 134 l 0
 666 134 l 0
 666 467 l 0
333 800 m 0
 666 800 l 0
 666 467 l 0
 333 467 l 0
 333 800 l 0
EndSplineSet
EndChar

StartChar: atilde
Encoding: 227 227 227
Width: 1000
LayerCount: 2
Fore
SplineSet
333 134 m 0
 666 134 l 0
 666 -199 l 0
 333 -199 l 0
 333 134 l 0
0 134 m 0
 333 134 l 0
 333 -199 l 0
 0 -199 l 0
 0 134 l 0
666 467 m 0
 999 467 l 0
 999 134 l 0
 666 134 l 0
 666 467 l 0
333 800 m 0
 666 800 l 0
 666 467 l 0
 333 467 l 0
 333 800 l 0
0 800 m 0
 333 800 l 0
 333 467 l 0
 0 467 l 0
 0 800 l 0
EndSplineSet
EndChar

StartChar: adieresis
Encoding: 228 228 228
Width: 1000
LayerCount: 2
Fore
SplineSet
333 134 m 0
 666 134 l 0
 666 -199 l 0
 333 -199 l 0
 333 134 l 0
0 134 m 0
 333 134 l 0
 333 -199 l 0
 0 -199 l 0
 0 134 l 0
666 467 m 0
 999 467 l 0
 999 134 l 0
 666 134 l 0
 666 467 l 0
666 800 m 0
 999 800 l 0
 999 467 l 0
 666 467 l 0
 666 800 l 0
EndSplineSet
EndChar

StartChar: aring
Encoding: 229 229 229
Width: 1000
LayerCount: 2
Fore
SplineSet
333 134 m 0
 666 134 l 0
 666 -199 l 0
 333 -199 l 0
 333 134 l 0
0 134 m 0
 333 134 l 0
 333 -199 l 0
 0 -199 l 0
 0 134 l 0
666 467 m 0
 999 467 l 0
 999 134 l 0
 666 134 l 0
 666 467 l 0
666 800 m 0
 999 800 l 0
 999 467 l 0
 666 467 l 0
 666 800 l 0
0 800 m 0
 333 800 l 0
 333 467 l 0
 0 467 l 0
 0 800 l 0
EndSplineSet
EndChar

StartChar: ae
Encoding: 230 230 230
Width: 1000
LayerCount: 2
Fore
SplineSet
333 134 m 0
 666 134 l 0
 666 -199 l 0
 333 -199 l 0
 333 134 l 0
0 134 m 0
 333 134 l 0
 333 -199 l 0
 0 -199 l 0
 0 134 l 0
666 467 m 0
 999 467 l 0
 999 134 l 0
 666 134 l 0
 666 467 l 0
666 800 m 0
 999 800 l 0
 999 467 l 0
 666 467 l 0
 666 800 l 0
333 800 m 0
 666 800 l 0
 666 467 l 0
 333 467 l 0
 333 800 l 0
EndSplineSet
EndChar

StartChar: ccedilla
Encoding: 231 231 231
Width: 1000
LayerCount: 2
Fore
SplineSet
333 134 m 0
 666 134 l 0
 666 -199 l 0
 333 -199 l 0
 333 134 l 0
0 134 m 0
 333 134 l 0
 333 -199 l 0
 0 -199 l 0
 0 134 l 0
666 467 m 0
 999 467 l 0
 999 134 l 0
 666 134 l 0
 666 467 l 0
666 800 m 0
 999 800 l 0
 999 467 l 0
 666 467 l 0
 666 800 l 0
333 800 m 0
 666 800 l 0
 666 467 l 0
 333 467 l 0
 333 800 l 0
0 800 m 0
 333 800 l 0
 333 467 l 0
 0 467 l 0
 0 800 l 0
EndSplineSet
EndChar

StartChar: egrave
Encoding: 232 232 232
Width: 1000
LayerCount: 2
Fore
SplineSet
333 134 m 0
 666 134 l 0
 666 -199 l 0
 333 -199 l 0
 333 134 l 0
0 134 m 0
 333 134 l 0
 333 -199 l 0
 0 -199 l 0
 0 134 l 0
666 467 m 0
 999 467 l 0
 999 134 l 0
 666 134 l 0
 666 467 l 0
0 467 m 0
 333 467 l 0
 333 134 l 0
 0 134 l 0
 0 467 l 0
EndSplineSet
EndChar

StartChar: eacute
Encoding: 233 233 233
Width: 1000
LayerCount: 2
Fore
SplineSet
333 134 m 0
 666 134 l 0
 666 -199 l 0
 333 -199 l 0
 333 134 l 0
0 134 m 0
 333 134 l 0
 333 -199 l 0
 0 -199 l 0
 0 134 l 0
666 467 m 0
 999 467 l 0
 999 134 l 0
 666 134 l 0
 666 467 l 0
0 467 m 0
 333 467 l 0
 333 134 l 0
 0 134 l 0
 0 467 l 0
0 800 m 0
 333 800 l 0
 333 467 l 0
 0 467 l 0
 0 800 l 0
EndSplineSet
EndChar

StartChar: ecircumflex
Encoding: 234 234 234
Width: 1000
LayerCount: 2
Fore
SplineSet
333 134 m 0
 666 134 l 0
 666 -199 l 0
 333 -199 l 0
 333 134 l 0
0 134 m 0
 333 134 l 0
 333 -199 l 0
 0 -199 l 0
 0 134 l 0
666 467 m 0
 999 467 l 0
 999 134 l 0
 666 134 l 0
 666 467 l 0
0 467 m 0
 333 467 l 0
 333 134 l 0
 0 134 l 0
 0 467 l 0
333 800 m 0
 666 800 l 0
 666 467 l 0
 333 467 l 0
 333 800 l 0
EndSplineSet
EndChar

StartChar: edieresis
Encoding: 235 235 235
Width: 1000
LayerCount: 2
Fore
SplineSet
333 134 m 0
 666 134 l 0
 666 -199 l 0
 333 -199 l 0
 333 134 l 0
0 134 m 0
 333 134 l 0
 333 -199 l 0
 0 -199 l 0
 0 134 l 0
666 467 m 0
 999 467 l 0
 999 134 l 0
 666 134 l 0
 666 467 l 0
0 467 m 0
 333 467 l 0
 333 134 l 0
 0 134 l 0
 0 467 l 0
333 800 m 0
 666 800 l 0
 666 467 l 0
 333 467 l 0
 333 800 l 0
0 800 m 0
 333 800 l 0
 333 467 l 0
 0 467 l 0
 0 800 l 0
EndSplineSet
EndChar

StartChar: igrave
Encoding: 236 236 236
Width: 1000
LayerCount: 2
Fore
SplineSet
333 134 m 0
 666 134 l 0
 666 -199 l 0
 333 -199 l 0
 333 134 l 0
0 134 m 0
 333 134 l 0
 333 -199 l 0
 0 -199 l 0
 0 134 l 0
666 467 m 0
 999 467 l 0
 999 134 l 0
 666 134 l 0
 666 467 l 0
0 467 m 0
 333 467 l 0
 333 134 l 0
 0 134 l 0
 0 467 l 0
666 800 m 0
 999 800 l 0
 999 467 l 0
 666 467 l 0
 666 800 l 0
EndSplineSet
EndChar

StartChar: iacute
Encoding: 237 237 237
Width: 1000
LayerCount: 2
Fore
SplineSet
333 134 m 0
 666 134 l 0
 666 -199 l 0
 333 -199 l 0
 333 134 l 0
0 134 m 0
 333 134 l 0
 333 -199 l 0
 0 -199 l 0
 0 134 l 0
666 467 m 0
 999 467 l 0
 999 134 l 0
 666 134 l 0
 666 467 l 0
0 467 m 0
 333 467 l 0
 333 134 l 0
 0 134 l 0
 0 467 l 0
666 800 m 0
 999 800 l 0
 999 467 l 0
 666 467 l 0
 666 800 l 0
0 800 m 0
 333 800 l 0
 333 467 l 0
 0 467 l 0
 0 800 l 0
EndSplineSet
EndChar

StartChar: icircumflex
Encoding: 238 238 238
Width: 1000
LayerCount: 2
Fore
SplineSet
333 134 m 0
 666 134 l 0
 666 -199 l 0
 333 -199 l 0
 333 134 l 0
0 134 m 0
 333 134 l 0
 333 -199 l 0
 0 -199 l 0
 0 134 l 0
666 467 m 0
 999 467 l 0
 999 134 l 0
 666 134 l 0
 666 467 l 0
0 467 m 0
 333 467 l 0
 333 134 l 0
 0 134 l 0
 0 467 l 0
666 800 m 0
 999 800 l 0
 999 467 l 0
 666 467 l 0
 666 800 l 0
333 800 m 0
 666 800 l 0
 666 467 l 0
 333 467 l 0
 333 800 l 0
EndSplineSet
EndChar

StartChar: idieresis
Encoding: 239 239 239
Width: 1000
LayerCount: 2
Fore
SplineSet
333 134 m 0
 666 134 l 0
 666 -199 l 0
 333 -199 l 0
 333 134 l 0
0 134 m 0
 333 134 l 0
 333 -199 l 0
 0 -199 l 0
 0 134 l 0
666 467 m 0
 999 467 l 0
 999 134 l 0
 666 134 l 0
 666 467 l 0
0 467 m 0
 333 467 l 0
 333 134 l 0
 0 134 l 0
 0 467 l 0
666 800 m 0
 999 800 l 0
 999 467 l 0
 666 467 l 0
 666 800 l 0
333 800 m 0
 666 800 l 0
 666 467 l 0
 333 467 l 0
 333 800 l 0
0 800 m 0
 333 800 l 0
 333 467 l 0
 0 467 l 0
 0 800 l 0
EndSplineSet
EndChar

StartChar: eth
Encoding: 240 240 240
Width: 1000
LayerCount: 2
Fore
SplineSet
333 134 m 0
 666 134 l 0
 666 -199 l 0
 333 -199 l 0
 333 134 l 0
0 134 m 0
 333 134 l 0
 333 -199 l 0
 0 -199 l 0
 0 134 l 0
666 467 m 0
 999 467 l 0
 999 134 l 0
 666 134 l 0
 666 467 l 0
333 467 m 0
 666 467 l 0
 666 134 l 0
 333 134 l 0
 333 467 l 0
EndSplineSet
EndChar

StartChar: ntilde
Encoding: 241 241 241
Width: 1000
LayerCount: 2
Fore
SplineSet
333 134 m 0
 666 134 l 0
 666 -199 l 0
 333 -199 l 0
 333 134 l 0
0 134 m 0
 333 134 l 0
 333 -199 l 0
 0 -199 l 0
 0 134 l 0
666 467 m 0
 999 467 l 0
 999 134 l 0
 666 134 l 0
 666 467 l 0
333 467 m 0
 666 467 l 0
 666 134 l 0
 333 134 l 0
 333 467 l 0
0 800 m 0
 333 800 l 0
 333 467 l 0
 0 467 l 0
 0 800 l 0
EndSplineSet
EndChar

StartChar: ograve
Encoding: 242 242 242
Width: 1000
LayerCount: 2
Fore
SplineSet
333 134 m 0
 666 134 l 0
 666 -199 l 0
 333 -199 l 0
 333 134 l 0
0 134 m 0
 333 134 l 0
 333 -199 l 0
 0 -199 l 0
 0 134 l 0
666 467 m 0
 999 467 l 0
 999 134 l 0
 666 134 l 0
 666 467 l 0
333 467 m 0
 666 467 l 0
 666 134 l 0
 333 134 l 0
 333 467 l 0
333 800 m 0
 666 800 l 0
 666 467 l 0
 333 467 l 0
 333 800 l 0
EndSplineSet
EndChar

StartChar: oacute
Encoding: 243 243 243
Width: 1000
LayerCount: 2
Fore
SplineSet
333 134 m 0
 666 134 l 0
 666 -199 l 0
 333 -199 l 0
 333 134 l 0
0 134 m 0
 333 134 l 0
 333 -199 l 0
 0 -199 l 0
 0 134 l 0
666 467 m 0
 999 467 l 0
 999 134 l 0
 666 134 l 0
 666 467 l 0
333 467 m 0
 666 467 l 0
 666 134 l 0
 333 134 l 0
 333 467 l 0
333 800 m 0
 666 800 l 0
 666 467 l 0
 333 467 l 0
 333 800 l 0
0 800 m 0
 333 800 l 0
 333 467 l 0
 0 467 l 0
 0 800 l 0
EndSplineSet
EndChar

StartChar: ocircumflex
Encoding: 244 244 244
Width: 1000
LayerCount: 2
Fore
SplineSet
333 134 m 0
 666 134 l 0
 666 -199 l 0
 333 -199 l 0
 333 134 l 0
0 134 m 0
 333 134 l 0
 333 -199 l 0
 0 -199 l 0
 0 134 l 0
666 467 m 0
 999 467 l 0
 999 134 l 0
 666 134 l 0
 666 467 l 0
333 467 m 0
 666 467 l 0
 666 134 l 0
 333 134 l 0
 333 467 l 0
666 800 m 0
 999 800 l 0
 999 467 l 0
 666 467 l 0
 666 800 l 0
EndSplineSet
EndChar

StartChar: otilde
Encoding: 245 245 245
Width: 1000
LayerCount: 2
Fore
SplineSet
333 134 m 0
 666 134 l 0
 666 -199 l 0
 333 -199 l 0
 333 134 l 0
0 134 m 0
 333 134 l 0
 333 -199 l 0
 0 -199 l 0
 0 134 l 0
666 467 m 0
 999 467 l 0
 999 134 l 0
 666 134 l 0
 666 467 l 0
333 467 m 0
 666 467 l 0
 666 134 l 0
 333 134 l 0
 333 467 l 0
666 800 m 0
 999 800 l 0
 999 467 l 0
 666 467 l 0
 666 800 l 0
0 800 m 0
 333 800 l 0
 333 467 l 0
 0 467 l 0
 0 800 l 0
EndSplineSet
EndChar

StartChar: odieresis
Encoding: 246 246 246
Width: 1000
LayerCount: 2
Fore
SplineSet
333 134 m 0
 666 134 l 0
 666 -199 l 0
 333 -199 l 0
 333 134 l 0
0 134 m 0
 333 134 l 0
 333 -199 l 0
 0 -199 l 0
 0 134 l 0
666 467 m 0
 999 467 l 0
 999 134 l 0
 666 134 l 0
 666 467 l 0
333 467 m 0
 666 467 l 0
 666 134 l 0
 333 134 l 0
 333 467 l 0
666 800 m 0
 999 800 l 0
 999 467 l 0
 666 467 l 0
 666 800 l 0
333 800 m 0
 666 800 l 0
 666 467 l 0
 333 467 l 0
 333 800 l 0
EndSplineSet
EndChar

StartChar: divide
Encoding: 247 247 247
Width: 1000
LayerCount: 2
Fore
SplineSet
333 134 m 0
 666 134 l 0
 666 -199 l 0
 333 -199 l 0
 333 134 l 0
0 134 m 0
 333 134 l 0
 333 -199 l 0
 0 -199 l 0
 0 134 l 0
666 467 m 0
 999 467 l 0
 999 134 l 0
 666 134 l 0
 666 467 l 0
333 467 m 0
 666 467 l 0
 666 134 l 0
 333 134 l 0
 333 467 l 0
666 800 m 0
 999 800 l 0
 999 467 l 0
 666 467 l 0
 666 800 l 0
333 800 m 0
 666 800 l 0
 666 467 l 0
 333 467 l 0
 333 800 l 0
0 800 m 0
 333 800 l 0
 333 467 l 0
 0 467 l 0
 0 800 l 0
EndSplineSet
EndChar

StartChar: oslash
Encoding: 248 248 248
Width: 1000
LayerCount: 2
Fore
SplineSet
333 134 m 0
 666 134 l 0
 666 -199 l 0
 333 -199 l 0
 333 134 l 0
0 134 m 0
 333 134 l 0
 333 -199 l 0
 0 -199 l 0
 0 134 l 0
666 467 m 0
 999 467 l 0
 999 134 l 0
 666 134 l 0
 666 467 l 0
333 467 m 0
 666 467 l 0
 666 134 l 0
 333 134 l 0
 333 467 l 0
0 467 m 0
 333 467 l 0
 333 134 l 0
 0 134 l 0
 0 467 l 0
EndSplineSet
EndChar

StartChar: ugrave
Encoding: 249 249 249
Width: 1000
LayerCount: 2
Fore
SplineSet
333 134 m 0
 666 134 l 0
 666 -199 l 0
 333 -199 l 0
 333 134 l 0
0 134 m 0
 333 134 l 0
 333 -199 l 0
 0 -199 l 0
 0 134 l 0
666 467 m 0
 999 467 l 0
 999 134 l 0
 666 134 l 0
 666 467 l 0
333 467 m 0
 666 467 l 0
 666 134 l 0
 333 134 l 0
 333 467 l 0
0 467 m 0
 333 467 l 0
 333 134 l 0
 0 134 l 0
 0 467 l 0
0 800 m 0
 333 800 l 0
 333 467 l 0
 0 467 l 0
 0 800 l 0
EndSplineSet
EndChar

StartChar: uacute
Encoding: 250 250 250
Width: 1000
LayerCount: 2
Fore
SplineSet
333 134 m 0
 666 134 l 0
 666 -199 l 0
 333 -199 l 0
 333 134 l 0
0 134 m 0
 333 134 l 0
 333 -199 l 0
 0 -199 l 0
 0 134 l 0
666 467 m 0
 999 467 l 0
 999 134 l 0
 666 134 l 0
 666 467 l 0
333 467 m 0
 666 467 l 0
 666 134 l 0
 333 134 l 0
 333 467 l 0
0 467 m 0
 333 467 l 0
 333 134 l 0
 0 134 l 0
 0 467 l 0
333 800 m 0
 666 800 l 0
 666 467 l 0
 333 467 l 0
 333 800 l 0
EndSplineSet
EndChar

StartChar: ucircumflex
Encoding: 251 251 251
Width: 1000
LayerCount: 2
Fore
SplineSet
333 134 m 0
 666 134 l 0
 666 -199 l 0
 333 -199 l 0
 333 134 l 0
0 134 m 0
 333 134 l 0
 333 -199 l 0
 0 -199 l 0
 0 134 l 0
666 467 m 0
 999 467 l 0
 999 134 l 0
 666 134 l 0
 666 467 l 0
333 467 m 0
 666 467 l 0
 666 134 l 0
 333 134 l 0
 333 467 l 0
0 467 m 0
 333 467 l 0
 333 134 l 0
 0 134 l 0
 0 467 l 0
333 800 m 0
 666 800 l 0
 666 467 l 0
 333 467 l 0
 333 800 l 0
0 800 m 0
 333 800 l 0
 333 467 l 0
 0 467 l 0
 0 800 l 0
EndSplineSet
EndChar

StartChar: udieresis
Encoding: 252 252 252
Width: 1000
LayerCount: 2
Fore
SplineSet
333 134 m 0
 666 134 l 0
 666 -199 l 0
 333 -199 l 0
 333 134 l 0
0 134 m 0
 333 134 l 0
 333 -199 l 0
 0 -199 l 0
 0 134 l 0
666 467 m 0
 999 467 l 0
 999 134 l 0
 666 134 l 0
 666 467 l 0
333 467 m 0
 666 467 l 0
 666 134 l 0
 333 134 l 0
 333 467 l 0
0 467 m 0
 333 467 l 0
 333 134 l 0
 0 134 l 0
 0 467 l 0
666 800 m 0
 999 800 l 0
 999 467 l 0
 666 467 l 0
 666 800 l 0
EndSplineSet
EndChar

StartChar: yacute
Encoding: 253 253 253
Width: 1000
LayerCount: 2
Fore
SplineSet
333 134 m 0
 666 134 l 0
 666 -199 l 0
 333 -199 l 0
 333 134 l 0
0 134 m 0
 333 134 l 0
 333 -199 l 0
 0 -199 l 0
 0 134 l 0
666 467 m 0
 999 467 l 0
 999 134 l 0
 666 134 l 0
 666 467 l 0
333 467 m 0
 666 467 l 0
 666 134 l 0
 333 134 l 0
 333 467 l 0
0 467 m 0
 333 467 l 0
 333 134 l 0
 0 134 l 0
 0 467 l 0
666 800 m 0
 999 800 l 0
 999 467 l 0
 666 467 l 0
 666 800 l 0
0 800 m 0
 333 800 l 0
 333 467 l 0
 0 467 l 0
 0 800 l 0
EndSplineSet
EndChar

StartChar: thorn
Encoding: 254 254 254
Width: 1000
LayerCount: 2
Fore
SplineSet
333 134 m 0
 666 134 l 0
 666 -199 l 0
 333 -199 l 0
 333 134 l 0
0 134 m 0
 333 134 l 0
 333 -199 l 0
 0 -199 l 0
 0 134 l 0
666 467 m 0
 999 467 l 0
 999 134 l 0
 666 134 l 0
 666 467 l 0
333 467 m 0
 666 467 l 0
 666 134 l 0
 333 134 l 0
 333 467 l 0
0 467 m 0
 333 467 l 0
 333 134 l 0
 0 134 l 0
 0 467 l 0
666 800 m 0
 999 800 l 0
 999 467 l 0
 666 467 l 0
 666 800 l 0
333 800 m 0
 666 800 l 0
 666 467 l 0
 333 467 l 0
 333 800 l 0
EndSplineSet
EndChar

StartChar: ydieresis
Encoding: 255 255 255
Width: 1000
LayerCount: 2
Fore
SplineSet
333 134 m 0
 666 134 l 0
 666 -199 l 0
 333 -199 l 0
 333 134 l 0
0 134 m 0
 333 134 l 0
 333 -199 l 0
 0 -199 l 0
 0 134 l 0
666 467 m 0
 999 467 l 0
 999 134 l 0
 666 134 l 0
 666 467 l 0
333 467 m 0
 666 467 l 0
 666 134 l 0
 333 134 l 0
 333 467 l 0
0 467 m 0
 333 467 l 0
 333 134 l 0
 0 134 l 0
 0 467 l 0
666 800 m 0
 999 800 l 0
 999 467 l 0
 666 467 l 0
 666 800 l 0
333 800 m 0
 666 800 l 0
 666 467 l 0
 333 467 l 0
 333 800 l 0
0 800 m 0
 333 800 l 0
 333 467 l 0
 0 467 l 0
 0 800 l 0
EndSplineSet
EndChar

StartChar: glyph256
Encoding: 256 256 256
Width: 1000
LayerCount: 2
Fore
SplineSet
666 134 m 0
 999 134 l 0
 999 -199 l 0
 666 -199 l 0
 666 134 l 0
EndSplineSet
EndChar

StartChar: glyph257
Encoding: 257 257 257
Width: 1000
LayerCount: 2
Fore
SplineSet
666 134 m 0
 999 134 l 0
 999 -199 l 0
 666 -199 l 0
 666 134 l 0
0 800 m 0
 333 800 l 0
 333 467 l 0
 0 467 l 0
 0 800 l 0
EndSplineSet
EndChar

StartChar: glyph258
Encoding: 258 258 258
Width: 1000
LayerCount: 2
Fore
SplineSet
666 134 m 0
 999 134 l 0
 999 -199 l 0
 666 -199 l 0
 666 134 l 0
333 800 m 0
 666 800 l 0
 666 467 l 0
 333 467 l 0
 333 800 l 0
EndSplineSet
EndChar

StartChar: glyph259
Encoding: 259 259 259
Width: 1000
LayerCount: 2
Fore
SplineSet
666 134 m 0
 999 134 l 0
 999 -199 l 0
 666 -199 l 0
 666 134 l 0
333 800 m 0
 666 800 l 0
 666 467 l 0
 333 467 l 0
 333 800 l 0
0 800 m 0
 333 800 l 0
 333 467 l 0
 0 467 l 0
 0 800 l 0
EndSplineSet
EndChar

StartChar: glyph260
Encoding: 260 260 260
Width: 1000
LayerCount: 2
Fore
SplineSet
666 134 m 0
 999 134 l 0
 999 -199 l 0
 666 -199 l 0
 666 134 l 0
666 800 m 0
 999 800 l 0
 999 467 l 0
 666 467 l 0
 666 800 l 0
EndSplineSet
EndChar

StartChar: glyph261
Encoding: 261 261 261
Width: 1000
LayerCount: 2
Fore
SplineSet
666 134 m 0
 999 134 l 0
 999 -199 l 0
 666 -199 l 0
 666 134 l 0
666 800 m 0
 999 800 l 0
 999 467 l 0
 666 467 l 0
 666 800 l 0
0 800 m 0
 333 800 l 0
 333 467 l 0
 0 467 l 0
 0 800 l 0
EndSplineSet
EndChar

StartChar: glyph262
Encoding: 262 262 262
Width: 1000
LayerCount: 2
Fore
SplineSet
666 134 m 0
 999 134 l 0
 999 -199 l 0
 666 -199 l 0
 666 134 l 0
666 800 m 0
 999 800 l 0
 999 467 l 0
 666 467 l 0
 666 800 l 0
333 800 m 0
 666 800 l 0
 666 467 l 0
 333 467 l 0
 333 800 l 0
EndSplineSet
EndChar

StartChar: glyph263
Encoding: 263 263 263
Width: 1000
LayerCount: 2
Fore
SplineSet
666 134 m 0
 999 134 l 0
 999 -199 l 0
 666 -199 l 0
 666 134 l 0
666 800 m 0
 999 800 l 0
 999 467 l 0
 666 467 l 0
 666 800 l 0
333 800 m 0
 666 800 l 0
 666 467 l 0
 333 467 l 0
 333 800 l 0
0 800 m 0
 333 800 l 0
 333 467 l 0
 0 467 l 0
 0 800 l 0
EndSplineSet
EndChar

StartChar: glyph264
Encoding: 264 264 264
Width: 1000
LayerCount: 2
Fore
SplineSet
666 134 m 0
 999 134 l 0
 999 -199 l 0
 666 -199 l 0
 666 134 l 0
0 467 m 0
 333 467 l 0
 333 134 l 0
 0 134 l 0
 0 467 l 0
EndSplineSet
EndChar

StartChar: glyph265
Encoding: 265 265 265
Width: 1000
LayerCount: 2
Fore
SplineSet
666 134 m 0
 999 134 l 0
 999 -199 l 0
 666 -199 l 0
 666 134 l 0
0 467 m 0
 333 467 l 0
 333 134 l 0
 0 134 l 0
 0 467 l 0
0 800 m 0
 333 800 l 0
 333 467 l 0
 0 467 l 0
 0 800 l 0
EndSplineSet
EndChar

StartChar: glyph266
Encoding: 266 266 266
Width: 1000
LayerCount: 2
Fore
SplineSet
666 134 m 0
 999 134 l 0
 999 -199 l 0
 666 -199 l 0
 666 134 l 0
0 467 m 0
 333 467 l 0
 333 134 l 0
 0 134 l 0
 0 467 l 0
333 800 m 0
 666 800 l 0
 666 467 l 0
 333 467 l 0
 333 800 l 0
EndSplineSet
EndChar

StartChar: glyph267
Encoding: 267 267 267
Width: 1000
LayerCount: 2
Fore
SplineSet
666 134 m 0
 999 134 l 0
 999 -199 l 0
 666 -199 l 0
 666 134 l 0
0 467 m 0
 333 467 l 0
 333 134 l 0
 0 134 l 0
 0 467 l 0
333 800 m 0
 666 800 l 0
 666 467 l 0
 333 467 l 0
 333 800 l 0
0 800 m 0
 333 800 l 0
 333 467 l 0
 0 467 l 0
 0 800 l 0
EndSplineSet
EndChar

StartChar: glyph268
Encoding: 268 268 268
Width: 1000
LayerCount: 2
Fore
SplineSet
666 134 m 0
 999 134 l 0
 999 -199 l 0
 666 -199 l 0
 666 134 l 0
0 467 m 0
 333 467 l 0
 333 134 l 0
 0 134 l 0
 0 467 l 0
666 800 m 0
 999 800 l 0
 999 467 l 0
 666 467 l 0
 666 800 l 0
EndSplineSet
EndChar

StartChar: glyph269
Encoding: 269 269 269
Width: 1000
LayerCount: 2
Fore
SplineSet
666 134 m 0
 999 134 l 0
 999 -199 l 0
 666 -199 l 0
 666 134 l 0
0 467 m 0
 333 467 l 0
 333 134 l 0
 0 134 l 0
 0 467 l 0
666 800 m 0
 999 800 l 0
 999 467 l 0
 666 467 l 0
 666 800 l 0
0 800 m 0
 333 800 l 0
 333 467 l 0
 0 467 l 0
 0 800 l 0
EndSplineSet
EndChar

StartChar: glyph270
Encoding: 270 270 270
Width: 1000
LayerCount: 2
Fore
SplineSet
666 134 m 0
 999 134 l 0
 999 -199 l 0
 666 -199 l 0
 666 134 l 0
0 467 m 0
 333 467 l 0
 333 134 l 0
 0 134 l 0
 0 467 l 0
666 800 m 0
 999 800 l 0
 999 467 l 0
 666 467 l 0
 666 800 l 0
333 800 m 0
 666 800 l 0
 666 467 l 0
 333 467 l 0
 333 800 l 0
EndSplineSet
EndChar

StartChar: glyph271
Encoding: 271 271 271
Width: 1000
LayerCount: 2
Fore
SplineSet
666 134 m 0
 999 134 l 0
 999 -199 l 0
 666 -199 l 0
 666 134 l 0
0 467 m 0
 333 467 l 0
 333 134 l 0
 0 134 l 0
 0 467 l 0
666 800 m 0
 999 800 l 0
 999 467 l 0
 666 467 l 0
 666 800 l 0
333 800 m 0
 666 800 l 0
 666 467 l 0
 333 467 l 0
 333 800 l 0
0 800 m 0
 333 800 l 0
 333 467 l 0
 0 467 l 0
 0 800 l 0
EndSplineSet
EndChar

StartChar: glyph272
Encoding: 272 272 272
Width: 1000
LayerCount: 2
Fore
SplineSet
666 134 m 0
 999 134 l 0
 999 -199 l 0
 666 -199 l 0
 666 134 l 0
333 467 m 0
 666 467 l 0
 666 134 l 0
 333 134 l 0
 333 467 l 0
EndSplineSet
EndChar

StartChar: glyph273
Encoding: 273 273 273
Width: 1000
LayerCount: 2
Fore
SplineSet
666 134 m 0
 999 134 l 0
 999 -199 l 0
 666 -199 l 0
 666 134 l 0
333 467 m 0
 666 467 l 0
 666 134 l 0
 333 134 l 0
 333 467 l 0
0 800 m 0
 333 800 l 0
 333 467 l 0
 0 467 l 0
 0 800 l 0
EndSplineSet
EndChar

StartChar: glyph274
Encoding: 274 274 274
Width: 1000
LayerCount: 2
Fore
SplineSet
666 134 m 0
 999 134 l 0
 999 -199 l 0
 666 -199 l 0
 666 134 l 0
333 467 m 0
 666 467 l 0
 666 134 l 0
 333 134 l 0
 333 467 l 0
333 800 m 0
 666 800 l 0
 666 467 l 0
 333 467 l 0
 333 800 l 0
EndSplineSet
EndChar

StartChar: glyph275
Encoding: 275 275 275
Width: 1000
LayerCount: 2
Fore
SplineSet
666 134 m 0
 999 134 l 0
 999 -199 l 0
 666 -199 l 0
 666 134 l 0
333 467 m 0
 666 467 l 0
 666 134 l 0
 333 134 l 0
 333 467 l 0
333 800 m 0
 666 800 l 0
 666 467 l 0
 333 467 l 0
 333 800 l 0
0 800 m 0
 333 800 l 0
 333 467 l 0
 0 467 l 0
 0 800 l 0
EndSplineSet
EndChar

StartChar: glyph276
Encoding: 276 276 276
Width: 1000
LayerCount: 2
Fore
SplineSet
666 134 m 0
 999 134 l 0
 999 -199 l 0
 666 -199 l 0
 666 134 l 0
333 467 m 0
 666 467 l 0
 666 134 l 0
 333 134 l 0
 333 467 l 0
666 800 m 0
 999 800 l 0
 999 467 l 0
 666 467 l 0
 666 800 l 0
EndSplineSet
EndChar

StartChar: glyph277
Encoding: 277 277 277
Width: 1000
LayerCount: 2
Fore
SplineSet
666 134 m 0
 999 134 l 0
 999 -199 l 0
 666 -199 l 0
 666 134 l 0
333 467 m 0
 666 467 l 0
 666 134 l 0
 333 134 l 0
 333 467 l 0
666 800 m 0
 999 800 l 0
 999 467 l 0
 666 467 l 0
 666 800 l 0
0 800 m 0
 333 800 l 0
 333 467 l 0
 0 467 l 0
 0 800 l 0
EndSplineSet
EndChar

StartChar: glyph278
Encoding: 278 278 278
Width: 1000
LayerCount: 2
Fore
SplineSet
666 134 m 0
 999 134 l 0
 999 -199 l 0
 666 -199 l 0
 666 134 l 0
333 467 m 0
 666 467 l 0
 666 134 l 0
 333 134 l 0
 333 467 l 0
666 800 m 0
 999 800 l 0
 999 467 l 0
 666 467 l 0
 666 800 l 0
333 800 m 0
 666 800 l 0
 666 467 l 0
 333 467 l 0
 333 800 l 0
EndSplineSet
EndChar

StartChar: glyph279
Encoding: 279 279 279
Width: 1000
LayerCount: 2
Fore
SplineSet
666 134 m 0
 999 134 l 0
 999 -199 l 0
 666 -199 l 0
 666 134 l 0
333 467 m 0
 666 467 l 0
 666 134 l 0
 333 134 l 0
 333 467 l 0
666 800 m 0
 999 800 l 0
 999 467 l 0
 666 467 l 0
 666 800 l 0
333 800 m 0
 666 800 l 0
 666 467 l 0
 333 467 l 0
 333 800 l 0
0 800 m 0
 333 800 l 0
 333 467 l 0
 0 467 l 0
 0 800 l 0
EndSplineSet
EndChar

StartChar: glyph280
Encoding: 280 280 280
Width: 1000
LayerCount: 2
Fore
SplineSet
666 134 m 0
 999 134 l 0
 999 -199 l 0
 666 -199 l 0
 666 134 l 0
333 467 m 0
 666 467 l 0
 666 134 l 0
 333 134 l 0
 333 467 l 0
0 467 m 0
 333 467 l 0
 333 134 l 0
 0 134 l 0
 0 467 l 0
EndSplineSet
EndChar

StartChar: glyph281
Encoding: 281 281 281
Width: 1000
LayerCount: 2
Fore
SplineSet
666 134 m 0
 999 134 l 0
 999 -199 l 0
 666 -199 l 0
 666 134 l 0
333 467 m 0
 666 467 l 0
 666 134 l 0
 333 134 l 0
 333 467 l 0
0 467 m 0
 333 467 l 0
 333 134 l 0
 0 134 l 0
 0 467 l 0
0 800 m 0
 333 800 l 0
 333 467 l 0
 0 467 l 0
 0 800 l 0
EndSplineSet
EndChar

StartChar: glyph282
Encoding: 282 282 282
Width: 1000
LayerCount: 2
Fore
SplineSet
666 134 m 0
 999 134 l 0
 999 -199 l 0
 666 -199 l 0
 666 134 l 0
333 467 m 0
 666 467 l 0
 666 134 l 0
 333 134 l 0
 333 467 l 0
0 467 m 0
 333 467 l 0
 333 134 l 0
 0 134 l 0
 0 467 l 0
333 800 m 0
 666 800 l 0
 666 467 l 0
 333 467 l 0
 333 800 l 0
EndSplineSet
EndChar

StartChar: glyph283
Encoding: 283 283 283
Width: 1000
LayerCount: 2
Fore
SplineSet
666 134 m 0
 999 134 l 0
 999 -199 l 0
 666 -199 l 0
 666 134 l 0
333 467 m 0
 666 467 l 0
 666 134 l 0
 333 134 l 0
 333 467 l 0
0 467 m 0
 333 467 l 0
 333 134 l 0
 0 134 l 0
 0 467 l 0
333 800 m 0
 666 800 l 0
 666 467 l 0
 333 467 l 0
 333 800 l 0
0 800 m 0
 333 800 l 0
 333 467 l 0
 0 467 l 0
 0 800 l 0
EndSplineSet
EndChar

StartChar: glyph284
Encoding: 284 284 284
Width: 1000
LayerCount: 2
Fore
SplineSet
666 134 m 0
 999 134 l 0
 999 -199 l 0
 666 -199 l 0
 666 134 l 0
333 467 m 0
 666 467 l 0
 666 134 l 0
 333 134 l 0
 333 467 l 0
0 467 m 0
 333 467 l 0
 333 134 l 0
 0 134 l 0
 0 467 l 0
666 800 m 0
 999 800 l 0
 999 467 l 0
 666 467 l 0
 666 800 l 0
EndSplineSet
EndChar

StartChar: glyph285
Encoding: 285 285 285
Width: 1000
LayerCount: 2
Fore
SplineSet
666 134 m 0
 999 134 l 0
 999 -199 l 0
 666 -199 l 0
 666 134 l 0
333 467 m 0
 666 467 l 0
 666 134 l 0
 333 134 l 0
 333 467 l 0
0 467 m 0
 333 467 l 0
 333 134 l 0
 0 134 l 0
 0 467 l 0
666 800 m 0
 999 800 l 0
 999 467 l 0
 666 467 l 0
 666 800 l 0
0 800 m 0
 333 800 l 0
 333 467 l 0
 0 467 l 0
 0 800 l 0
EndSplineSet
EndChar

StartChar: glyph286
Encoding: 286 286 286
Width: 1000
LayerCount: 2
Fore
SplineSet
666 134 m 0
 999 134 l 0
 999 -199 l 0
 666 -199 l 0
 666 134 l 0
333 467 m 0
 666 467 l 0
 666 134 l 0
 333 134 l 0
 333 467 l 0
0 467 m 0
 333 467 l 0
 333 134 l 0
 0 134 l 0
 0 467 l 0
666 800 m 0
 999 800 l 0
 999 467 l 0
 666 467 l 0
 666 800 l 0
333 800 m 0
 666 800 l 0
 666 467 l 0
 333 467 l 0
 333 800 l 0
EndSplineSet
EndChar

StartChar: glyph287
Encoding: 287 287 287
Width: 1000
LayerCount: 2
Fore
SplineSet
666 134 m 0
 999 134 l 0
 999 -199 l 0
 666 -199 l 0
 666 134 l 0
333 467 m 0
 666 467 l 0
 666 134 l 0
 333 134 l 0
 333 467 l 0
0 467 m 0
 333 467 l 0
 333 134 l 0
 0 134 l 0
 0 467 l 0
666 800 m 0
 999 800 l 0
 999 467 l 0
 666 467 l 0
 666 800 l 0
333 800 m 0
 666 800 l 0
 666 467 l 0
 333 467 l 0
 333 800 l 0
0 800 m 0
 333 800 l 0
 333 467 l 0
 0 467 l 0
 0 800 l 0
EndSplineSet
EndChar

StartChar: glyph288
Encoding: 288 288 288
Width: 1000
LayerCount: 2
Fore
SplineSet
666 134 m 0
 999 134 l 0
 999 -199 l 0
 666 -199 l 0
 666 134 l 0
666 467 m 0
 999 467 l 0
 999 134 l 0
 666 134 l 0
 666 467 l 0
EndSplineSet
EndChar

StartChar: glyph289
Encoding: 289 289 289
Width: 1000
LayerCount: 2
Fore
SplineSet
666 134 m 0
 999 134 l 0
 999 -199 l 0
 666 -199 l 0
 666 134 l 0
666 467 m 0
 999 467 l 0
 999 134 l 0
 666 134 l 0
 666 467 l 0
0 800 m 0
 333 800 l 0
 333 467 l 0
 0 467 l 0
 0 800 l 0
EndSplineSet
EndChar

StartChar: glyph290
Encoding: 290 290 290
Width: 1000
LayerCount: 2
Fore
SplineSet
666 134 m 0
 999 134 l 0
 999 -199 l 0
 666 -199 l 0
 666 134 l 0
666 467 m 0
 999 467 l 0
 999 134 l 0
 666 134 l 0
 666 467 l 0
333 800 m 0
 666 800 l 0
 666 467 l 0
 333 467 l 0
 333 800 l 0
EndSplineSet
EndChar

StartChar: glyph291
Encoding: 291 291 291
Width: 1000
LayerCount: 2
Fore
SplineSet
666 134 m 0
 999 134 l 0
 999 -199 l 0
 666 -199 l 0
 666 134 l 0
666 467 m 0
 999 467 l 0
 999 134 l 0
 666 134 l 0
 666 467 l 0
333 800 m 0
 666 800 l 0
 666 467 l 0
 333 467 l 0
 333 800 l 0
0 800 m 0
 333 800 l 0
 333 467 l 0
 0 467 l 0
 0 800 l 0
EndSplineSet
EndChar

StartChar: glyph292
Encoding: 292 292 292
Width: 1000
LayerCount: 2
Fore
SplineSet
666 134 m 0
 999 134 l 0
 999 -199 l 0
 666 -199 l 0
 666 134 l 0
666 467 m 0
 999 467 l 0
 999 134 l 0
 666 134 l 0
 666 467 l 0
666 800 m 0
 999 800 l 0
 999 467 l 0
 666 467 l 0
 666 800 l 0
EndSplineSet
EndChar

StartChar: glyph293
Encoding: 293 293 293
Width: 1000
LayerCount: 2
Fore
SplineSet
666 134 m 0
 999 134 l 0
 999 -199 l 0
 666 -199 l 0
 666 134 l 0
666 467 m 0
 999 467 l 0
 999 134 l 0
 666 134 l 0
 666 467 l 0
666 800 m 0
 999 800 l 0
 999 467 l 0
 666 467 l 0
 666 800 l 0
0 800 m 0
 333 800 l 0
 333 467 l 0
 0 467 l 0
 0 800 l 0
EndSplineSet
EndChar

StartChar: glyph294
Encoding: 294 294 294
Width: 1000
LayerCount: 2
Fore
SplineSet
666 134 m 0
 999 134 l 0
 999 -199 l 0
 666 -199 l 0
 666 134 l 0
666 467 m 0
 999 467 l 0
 999 134 l 0
 666 134 l 0
 666 467 l 0
666 800 m 0
 999 800 l 0
 999 467 l 0
 666 467 l 0
 666 800 l 0
333 800 m 0
 666 800 l 0
 666 467 l 0
 333 467 l 0
 333 800 l 0
EndSplineSet
EndChar

StartChar: glyph295
Encoding: 295 295 295
Width: 1000
LayerCount: 2
Fore
SplineSet
666 134 m 0
 999 134 l 0
 999 -199 l 0
 666 -199 l 0
 666 134 l 0
666 467 m 0
 999 467 l 0
 999 134 l 0
 666 134 l 0
 666 467 l 0
666 800 m 0
 999 800 l 0
 999 467 l 0
 666 467 l 0
 666 800 l 0
333 800 m 0
 666 800 l 0
 666 467 l 0
 333 467 l 0
 333 800 l 0
0 800 m 0
 333 800 l 0
 333 467 l 0
 0 467 l 0
 0 800 l 0
EndSplineSet
EndChar

StartChar: glyph296
Encoding: 296 296 296
Width: 1000
LayerCount: 2
Fore
SplineSet
666 134 m 0
 999 134 l 0
 999 -199 l 0
 666 -199 l 0
 666 134 l 0
666 467 m 0
 999 467 l 0
 999 134 l 0
 666 134 l 0
 666 467 l 0
0 467 m 0
 333 467 l 0
 333 134 l 0
 0 134 l 0
 0 467 l 0
EndSplineSet
EndChar

StartChar: glyph297
Encoding: 297 297 297
Width: 1000
LayerCount: 2
Fore
SplineSet
666 134 m 0
 999 134 l 0
 999 -199 l 0
 666 -199 l 0
 666 134 l 0
666 467 m 0
 999 467 l 0
 999 134 l 0
 666 134 l 0
 666 467 l 0
0 467 m 0
 333 467 l 0
 333 134 l 0
 0 134 l 0
 0 467 l 0
0 800 m 0
 333 800 l 0
 333 467 l 0
 0 467 l 0
 0 800 l 0
EndSplineSet
EndChar

StartChar: glyph298
Encoding: 298 298 298
Width: 1000
LayerCount: 2
Fore
SplineSet
666 134 m 0
 999 134 l 0
 999 -199 l 0
 666 -199 l 0
 666 134 l 0
666 467 m 0
 999 467 l 0
 999 134 l 0
 666 134 l 0
 666 467 l 0
0 467 m 0
 333 467 l 0
 333 134 l 0
 0 134 l 0
 0 467 l 0
333 800 m 0
 666 800 l 0
 666 467 l 0
 333 467 l 0
 333 800 l 0
EndSplineSet
EndChar

StartChar: glyph299
Encoding: 299 299 299
Width: 1000
LayerCount: 2
Fore
SplineSet
666 134 m 0
 999 134 l 0
 999 -199 l 0
 666 -199 l 0
 666 134 l 0
666 467 m 0
 999 467 l 0
 999 134 l 0
 666 134 l 0
 666 467 l 0
0 467 m 0
 333 467 l 0
 333 134 l 0
 0 134 l 0
 0 467 l 0
333 800 m 0
 666 800 l 0
 666 467 l 0
 333 467 l 0
 333 800 l 0
0 800 m 0
 333 800 l 0
 333 467 l 0
 0 467 l 0
 0 800 l 0
EndSplineSet
EndChar

StartChar: glyph300
Encoding: 300 300 300
Width: 1000
LayerCount: 2
Fore
SplineSet
666 134 m 0
 999 134 l 0
 999 -199 l 0
 666 -199 l 0
 666 134 l 0
666 467 m 0
 999 467 l 0
 999 134 l 0
 666 134 l 0
 666 467 l 0
0 467 m 0
 333 467 l 0
 333 134 l 0
 0 134 l 0
 0 467 l 0
666 800 m 0
 999 800 l 0
 999 467 l 0
 666 467 l 0
 666 800 l 0
EndSplineSet
EndChar

StartChar: glyph301
Encoding: 301 301 301
Width: 1000
LayerCount: 2
Fore
SplineSet
666 134 m 0
 999 134 l 0
 999 -199 l 0
 666 -199 l 0
 666 134 l 0
666 467 m 0
 999 467 l 0
 999 134 l 0
 666 134 l 0
 666 467 l 0
0 467 m 0
 333 467 l 0
 333 134 l 0
 0 134 l 0
 0 467 l 0
666 800 m 0
 999 800 l 0
 999 467 l 0
 666 467 l 0
 666 800 l 0
0 800 m 0
 333 800 l 0
 333 467 l 0
 0 467 l 0
 0 800 l 0
EndSplineSet
EndChar

StartChar: glyph302
Encoding: 302 302 302
Width: 1000
LayerCount: 2
Fore
SplineSet
666 134 m 0
 999 134 l 0
 999 -199 l 0
 666 -199 l 0
 666 134 l 0
666 467 m 0
 999 467 l 0
 999 134 l 0
 666 134 l 0
 666 467 l 0
0 467 m 0
 333 467 l 0
 333 134 l 0
 0 134 l 0
 0 467 l 0
666 800 m 0
 999 800 l 0
 999 467 l 0
 666 467 l 0
 666 800 l 0
333 800 m 0
 666 800 l 0
 666 467 l 0
 333 467 l 0
 333 800 l 0
EndSplineSet
EndChar

StartChar: glyph303
Encoding: 303 303 303
Width: 1000
LayerCount: 2
Fore
SplineSet
666 134 m 0
 999 134 l 0
 999 -199 l 0
 666 -199 l 0
 666 134 l 0
666 467 m 0
 999 467 l 0
 999 134 l 0
 666 134 l 0
 666 467 l 0
0 467 m 0
 333 467 l 0
 333 134 l 0
 0 134 l 0
 0 467 l 0
666 800 m 0
 999 800 l 0
 999 467 l 0
 666 467 l 0
 666 800 l 0
333 800 m 0
 666 800 l 0
 666 467 l 0
 333 467 l 0
 333 800 l 0
0 800 m 0
 333 800 l 0
 333 467 l 0
 0 467 l 0
 0 800 l 0
EndSplineSet
EndChar

StartChar: glyph304
Encoding: 304 304 304
Width: 1000
LayerCount: 2
Fore
SplineSet
666 134 m 0
 999 134 l 0
 999 -199 l 0
 666 -199 l 0
 666 134 l 0
666 467 m 0
 999 467 l 0
 999 134 l 0
 666 134 l 0
 666 467 l 0
333 467 m 0
 666 467 l 0
 666 134 l 0
 333 134 l 0
 333 467 l 0
EndSplineSet
EndChar

StartChar: glyph305
Encoding: 305 305 305
Width: 1000
LayerCount: 2
Fore
SplineSet
666 134 m 0
 999 134 l 0
 999 -199 l 0
 666 -199 l 0
 666 134 l 0
666 467 m 0
 999 467 l 0
 999 134 l 0
 666 134 l 0
 666 467 l 0
333 467 m 0
 666 467 l 0
 666 134 l 0
 333 134 l 0
 333 467 l 0
0 800 m 0
 333 800 l 0
 333 467 l 0
 0 467 l 0
 0 800 l 0
EndSplineSet
EndChar

StartChar: glyph306
Encoding: 306 306 306
Width: 1000
LayerCount: 2
Fore
SplineSet
666 134 m 0
 999 134 l 0
 999 -199 l 0
 666 -199 l 0
 666 134 l 0
666 467 m 0
 999 467 l 0
 999 134 l 0
 666 134 l 0
 666 467 l 0
333 467 m 0
 666 467 l 0
 666 134 l 0
 333 134 l 0
 333 467 l 0
333 800 m 0
 666 800 l 0
 666 467 l 0
 333 467 l 0
 333 800 l 0
EndSplineSet
EndChar

StartChar: glyph307
Encoding: 307 307 307
Width: 1000
LayerCount: 2
Fore
SplineSet
666 134 m 0
 999 134 l 0
 999 -199 l 0
 666 -199 l 0
 666 134 l 0
666 467 m 0
 999 467 l 0
 999 134 l 0
 666 134 l 0
 666 467 l 0
333 467 m 0
 666 467 l 0
 666 134 l 0
 333 134 l 0
 333 467 l 0
333 800 m 0
 666 800 l 0
 666 467 l 0
 333 467 l 0
 333 800 l 0
0 800 m 0
 333 800 l 0
 333 467 l 0
 0 467 l 0
 0 800 l 0
EndSplineSet
EndChar

StartChar: glyph308
Encoding: 308 308 308
Width: 1000
LayerCount: 2
Fore
SplineSet
666 134 m 0
 999 134 l 0
 999 -199 l 0
 666 -199 l 0
 666 134 l 0
666 467 m 0
 999 467 l 0
 999 134 l 0
 666 134 l 0
 666 467 l 0
333 467 m 0
 666 467 l 0
 666 134 l 0
 333 134 l 0
 333 467 l 0
666 800 m 0
 999 800 l 0
 999 467 l 0
 666 467 l 0
 666 800 l 0
EndSplineSet
EndChar

StartChar: glyph309
Encoding: 309 309 309
Width: 1000
LayerCount: 2
Fore
SplineSet
666 134 m 0
 999 134 l 0
 999 -199 l 0
 666 -199 l 0
 666 134 l 0
666 467 m 0
 999 467 l 0
 999 134 l 0
 666 134 l 0
 666 467 l 0
333 467 m 0
 666 467 l 0
 666 134 l 0
 333 134 l 0
 333 467 l 0
666 800 m 0
 999 800 l 0
 999 467 l 0
 666 467 l 0
 666 800 l 0
0 800 m 0
 333 800 l 0
 333 467 l 0
 0 467 l 0
 0 800 l 0
EndSplineSet
EndChar

StartChar: glyph310
Encoding: 310 310 310
Width: 1000
LayerCount: 2
Fore
SplineSet
666 134 m 0
 999 134 l 0
 999 -199 l 0
 666 -199 l 0
 666 134 l 0
666 467 m 0
 999 467 l 0
 999 134 l 0
 666 134 l 0
 666 467 l 0
333 467 m 0
 666 467 l 0
 666 134 l 0
 333 134 l 0
 333 467 l 0
666 800 m 0
 999 800 l 0
 999 467 l 0
 666 467 l 0
 666 800 l 0
333 800 m 0
 666 800 l 0
 666 467 l 0
 333 467 l 0
 333 800 l 0
EndSplineSet
EndChar

StartChar: glyph311
Encoding: 311 311 311
Width: 1000
LayerCount: 2
Fore
SplineSet
666 134 m 0
 999 134 l 0
 999 -199 l 0
 666 -199 l 0
 666 134 l 0
666 467 m 0
 999 467 l 0
 999 134 l 0
 666 134 l 0
 666 467 l 0
333 467 m 0
 666 467 l 0
 666 134 l 0
 333 134 l 0
 333 467 l 0
666 800 m 0
 999 800 l 0
 999 467 l 0
 666 467 l 0
 666 800 l 0
333 800 m 0
 666 800 l 0
 666 467 l 0
 333 467 l 0
 333 800 l 0
0 800 m 0
 333 800 l 0
 333 467 l 0
 0 467 l 0
 0 800 l 0
EndSplineSet
EndChar

StartChar: glyph312
Encoding: 312 312 312
Width: 1000
LayerCount: 2
Fore
SplineSet
666 134 m 0
 999 134 l 0
 999 -199 l 0
 666 -199 l 0
 666 134 l 0
666 467 m 0
 999 467 l 0
 999 134 l 0
 666 134 l 0
 666 467 l 0
333 467 m 0
 666 467 l 0
 666 134 l 0
 333 134 l 0
 333 467 l 0
0 467 m 0
 333 467 l 0
 333 134 l 0
 0 134 l 0
 0 467 l 0
EndSplineSet
EndChar

StartChar: glyph313
Encoding: 313 313 313
Width: 1000
LayerCount: 2
Fore
SplineSet
666 134 m 0
 999 134 l 0
 999 -199 l 0
 666 -199 l 0
 666 134 l 0
666 467 m 0
 999 467 l 0
 999 134 l 0
 666 134 l 0
 666 467 l 0
333 467 m 0
 666 467 l 0
 666 134 l 0
 333 134 l 0
 333 467 l 0
0 467 m 0
 333 467 l 0
 333 134 l 0
 0 134 l 0
 0 467 l 0
0 800 m 0
 333 800 l 0
 333 467 l 0
 0 467 l 0
 0 800 l 0
EndSplineSet
EndChar

StartChar: glyph314
Encoding: 314 314 314
Width: 1000
LayerCount: 2
Fore
SplineSet
666 134 m 0
 999 134 l 0
 999 -199 l 0
 666 -199 l 0
 666 134 l 0
666 467 m 0
 999 467 l 0
 999 134 l 0
 666 134 l 0
 666 467 l 0
333 467 m 0
 666 467 l 0
 666 134 l 0
 333 134 l 0
 333 467 l 0
0 467 m 0
 333 467 l 0
 333 134 l 0
 0 134 l 0
 0 467 l 0
333 800 m 0
 666 800 l 0
 666 467 l 0
 333 467 l 0
 333 800 l 0
EndSplineSet
EndChar

StartChar: glyph315
Encoding: 315 315 315
Width: 1000
LayerCount: 2
Fore
SplineSet
666 134 m 0
 999 134 l 0
 999 -199 l 0
 666 -199 l 0
 666 134 l 0
666 467 m 0
 999 467 l 0
 999 134 l 0
 666 134 l 0
 666 467 l 0
333 467 m 0
 666 467 l 0
 666 134 l 0
 333 134 l 0
 333 467 l 0
0 467 m 0
 333 467 l 0
 333 134 l 0
 0 134 l 0
 0 467 l 0
333 800 m 0
 666 800 l 0
 666 467 l 0
 333 467 l 0
 333 800 l 0
0 800 m 0
 333 800 l 0
 333 467 l 0
 0 467 l 0
 0 800 l 0
EndSplineSet
EndChar

StartChar: glyph316
Encoding: 316 316 316
Width: 1000
LayerCount: 2
Fore
SplineSet
666 134 m 0
 999 134 l 0
 999 -199 l 0
 666 -199 l 0
 666 134 l 0
666 467 m 0
 999 467 l 0
 999 134 l 0
 666 134 l 0
 666 467 l 0
333 467 m 0
 666 467 l 0
 666 134 l 0
 333 134 l 0
 333 467 l 0
0 467 m 0
 333 467 l 0
 333 134 l 0
 0 134 l 0
 0 467 l 0
666 800 m 0
 999 800 l 0
 999 467 l 0
 666 467 l 0
 666 800 l 0
EndSplineSet
EndChar

StartChar: glyph317
Encoding: 317 317 317
Width: 1000
LayerCount: 2
Fore
SplineSet
666 134 m 0
 999 134 l 0
 999 -199 l 0
 666 -199 l 0
 666 134 l 0
666 467 m 0
 999 467 l 0
 999 134 l 0
 666 134 l 0
 666 467 l 0
333 467 m 0
 666 467 l 0
 666 134 l 0
 333 134 l 0
 333 467 l 0
0 467 m 0
 333 467 l 0
 333 134 l 0
 0 134 l 0
 0 467 l 0
666 800 m 0
 999 800 l 0
 999 467 l 0
 666 467 l 0
 666 800 l 0
0 800 m 0
 333 800 l 0
 333 467 l 0
 0 467 l 0
 0 800 l 0
EndSplineSet
EndChar

StartChar: glyph318
Encoding: 318 318 318
Width: 1000
LayerCount: 2
Fore
SplineSet
666 134 m 0
 999 134 l 0
 999 -199 l 0
 666 -199 l 0
 666 134 l 0
666 467 m 0
 999 467 l 0
 999 134 l 0
 666 134 l 0
 666 467 l 0
333 467 m 0
 666 467 l 0
 666 134 l 0
 333 134 l 0
 333 467 l 0
0 467 m 0
 333 467 l 0
 333 134 l 0
 0 134 l 0
 0 467 l 0
666 800 m 0
 999 800 l 0
 999 467 l 0
 666 467 l 0
 666 800 l 0
333 800 m 0
 666 800 l 0
 666 467 l 0
 333 467 l 0
 333 800 l 0
EndSplineSet
EndChar

StartChar: glyph319
Encoding: 319 319 319
Width: 1000
LayerCount: 2
Fore
SplineSet
666 134 m 0
 999 134 l 0
 999 -199 l 0
 666 -199 l 0
 666 134 l 0
666 467 m 0
 999 467 l 0
 999 134 l 0
 666 134 l 0
 666 467 l 0
333 467 m 0
 666 467 l 0
 666 134 l 0
 333 134 l 0
 333 467 l 0
0 467 m 0
 333 467 l 0
 333 134 l 0
 0 134 l 0
 0 467 l 0
666 800 m 0
 999 800 l 0
 999 467 l 0
 666 467 l 0
 666 800 l 0
333 800 m 0
 666 800 l 0
 666 467 l 0
 333 467 l 0
 333 800 l 0
0 800 m 0
 333 800 l 0
 333 467 l 0
 0 467 l 0
 0 800 l 0
EndSplineSet
EndChar

StartChar: glyph320
Encoding: 320 320 320
Width: 1000
LayerCount: 2
Fore
SplineSet
666 134 m 0
 999 134 l 0
 999 -199 l 0
 666 -199 l 0
 666 134 l 0
0 134 m 0
 333 134 l 0
 333 -199 l 0
 0 -199 l 0
 0 134 l 0
EndSplineSet
EndChar

StartChar: glyph321
Encoding: 321 321 321
Width: 1000
LayerCount: 2
Fore
SplineSet
666 134 m 0
 999 134 l 0
 999 -199 l 0
 666 -199 l 0
 666 134 l 0
0 134 m 0
 333 134 l 0
 333 -199 l 0
 0 -199 l 0
 0 134 l 0
0 800 m 0
 333 800 l 0
 333 467 l 0
 0 467 l 0
 0 800 l 0
EndSplineSet
EndChar

StartChar: glyph322
Encoding: 322 322 322
Width: 1000
LayerCount: 2
Fore
SplineSet
666 134 m 0
 999 134 l 0
 999 -199 l 0
 666 -199 l 0
 666 134 l 0
0 134 m 0
 333 134 l 0
 333 -199 l 0
 0 -199 l 0
 0 134 l 0
333 800 m 0
 666 800 l 0
 666 467 l 0
 333 467 l 0
 333 800 l 0
EndSplineSet
EndChar

StartChar: glyph323
Encoding: 323 323 323
Width: 1000
LayerCount: 2
Fore
SplineSet
666 134 m 0
 999 134 l 0
 999 -199 l 0
 666 -199 l 0
 666 134 l 0
0 134 m 0
 333 134 l 0
 333 -199 l 0
 0 -199 l 0
 0 134 l 0
333 800 m 0
 666 800 l 0
 666 467 l 0
 333 467 l 0
 333 800 l 0
0 800 m 0
 333 800 l 0
 333 467 l 0
 0 467 l 0
 0 800 l 0
EndSplineSet
EndChar

StartChar: glyph324
Encoding: 324 324 324
Width: 1000
LayerCount: 2
Fore
SplineSet
666 134 m 0
 999 134 l 0
 999 -199 l 0
 666 -199 l 0
 666 134 l 0
0 134 m 0
 333 134 l 0
 333 -199 l 0
 0 -199 l 0
 0 134 l 0
666 800 m 0
 999 800 l 0
 999 467 l 0
 666 467 l 0
 666 800 l 0
EndSplineSet
EndChar

StartChar: glyph325
Encoding: 325 325 325
Width: 1000
LayerCount: 2
Fore
SplineSet
666 134 m 0
 999 134 l 0
 999 -199 l 0
 666 -199 l 0
 666 134 l 0
0 134 m 0
 333 134 l 0
 333 -199 l 0
 0 -199 l 0
 0 134 l 0
666 800 m 0
 999 800 l 0
 999 467 l 0
 666 467 l 0
 666 800 l 0
0 800 m 0
 333 800 l 0
 333 467 l 0
 0 467 l 0
 0 800 l 0
EndSplineSet
EndChar

StartChar: glyph326
Encoding: 326 326 326
Width: 1000
LayerCount: 2
Fore
SplineSet
666 134 m 0
 999 134 l 0
 999 -199 l 0
 666 -199 l 0
 666 134 l 0
0 134 m 0
 333 134 l 0
 333 -199 l 0
 0 -199 l 0
 0 134 l 0
666 800 m 0
 999 800 l 0
 999 467 l 0
 666 467 l 0
 666 800 l 0
333 800 m 0
 666 800 l 0
 666 467 l 0
 333 467 l 0
 333 800 l 0
EndSplineSet
EndChar

StartChar: glyph327
Encoding: 327 327 327
Width: 1000
LayerCount: 2
Fore
SplineSet
666 134 m 0
 999 134 l 0
 999 -199 l 0
 666 -199 l 0
 666 134 l 0
0 134 m 0
 333 134 l 0
 333 -199 l 0
 0 -199 l 0
 0 134 l 0
666 800 m 0
 999 800 l 0
 999 467 l 0
 666 467 l 0
 666 800 l 0
333 800 m 0
 666 800 l 0
 666 467 l 0
 333 467 l 0
 333 800 l 0
0 800 m 0
 333 800 l 0
 333 467 l 0
 0 467 l 0
 0 800 l 0
EndSplineSet
EndChar

StartChar: glyph328
Encoding: 328 328 328
Width: 1000
LayerCount: 2
Fore
SplineSet
666 134 m 0
 999 134 l 0
 999 -199 l 0
 666 -199 l 0
 666 134 l 0
0 134 m 0
 333 134 l 0
 333 -199 l 0
 0 -199 l 0
 0 134 l 0
0 467 m 0
 333 467 l 0
 333 134 l 0
 0 134 l 0
 0 467 l 0
EndSplineSet
EndChar

StartChar: glyph329
Encoding: 329 329 329
Width: 1000
LayerCount: 2
Fore
SplineSet
666 134 m 0
 999 134 l 0
 999 -199 l 0
 666 -199 l 0
 666 134 l 0
0 134 m 0
 333 134 l 0
 333 -199 l 0
 0 -199 l 0
 0 134 l 0
0 467 m 0
 333 467 l 0
 333 134 l 0
 0 134 l 0
 0 467 l 0
0 800 m 0
 333 800 l 0
 333 467 l 0
 0 467 l 0
 0 800 l 0
EndSplineSet
EndChar

StartChar: glyph330
Encoding: 330 330 330
Width: 1000
LayerCount: 2
Fore
SplineSet
666 134 m 0
 999 134 l 0
 999 -199 l 0
 666 -199 l 0
 666 134 l 0
0 134 m 0
 333 134 l 0
 333 -199 l 0
 0 -199 l 0
 0 134 l 0
0 467 m 0
 333 467 l 0
 333 134 l 0
 0 134 l 0
 0 467 l 0
333 800 m 0
 666 800 l 0
 666 467 l 0
 333 467 l 0
 333 800 l 0
EndSplineSet
EndChar

StartChar: glyph331
Encoding: 331 331 331
Width: 1000
LayerCount: 2
Fore
SplineSet
666 134 m 0
 999 134 l 0
 999 -199 l 0
 666 -199 l 0
 666 134 l 0
0 134 m 0
 333 134 l 0
 333 -199 l 0
 0 -199 l 0
 0 134 l 0
0 467 m 0
 333 467 l 0
 333 134 l 0
 0 134 l 0
 0 467 l 0
333 800 m 0
 666 800 l 0
 666 467 l 0
 333 467 l 0
 333 800 l 0
0 800 m 0
 333 800 l 0
 333 467 l 0
 0 467 l 0
 0 800 l 0
EndSplineSet
EndChar

StartChar: glyph332
Encoding: 332 332 332
Width: 1000
LayerCount: 2
Fore
SplineSet
666 134 m 0
 999 134 l 0
 999 -199 l 0
 666 -199 l 0
 666 134 l 0
0 134 m 0
 333 134 l 0
 333 -199 l 0
 0 -199 l 0
 0 134 l 0
0 467 m 0
 333 467 l 0
 333 134 l 0
 0 134 l 0
 0 467 l 0
666 800 m 0
 999 800 l 0
 999 467 l 0
 666 467 l 0
 666 800 l 0
EndSplineSet
EndChar

StartChar: glyph333
Encoding: 333 333 333
Width: 1000
LayerCount: 2
Fore
SplineSet
666 134 m 0
 999 134 l 0
 999 -199 l 0
 666 -199 l 0
 666 134 l 0
0 134 m 0
 333 134 l 0
 333 -199 l 0
 0 -199 l 0
 0 134 l 0
0 467 m 0
 333 467 l 0
 333 134 l 0
 0 134 l 0
 0 467 l 0
666 800 m 0
 999 800 l 0
 999 467 l 0
 666 467 l 0
 666 800 l 0
0 800 m 0
 333 800 l 0
 333 467 l 0
 0 467 l 0
 0 800 l 0
EndSplineSet
EndChar

StartChar: glyph334
Encoding: 334 334 334
Width: 1000
LayerCount: 2
Fore
SplineSet
666 134 m 0
 999 134 l 0
 999 -199 l 0
 666 -199 l 0
 666 134 l 0
0 134 m 0
 333 134 l 0
 333 -199 l 0
 0 -199 l 0
 0 134 l 0
0 467 m 0
 333 467 l 0
 333 134 l 0
 0 134 l 0
 0 467 l 0
666 800 m 0
 999 800 l 0
 999 467 l 0
 666 467 l 0
 666 800 l 0
333 800 m 0
 666 800 l 0
 666 467 l 0
 333 467 l 0
 333 800 l 0
EndSplineSet
EndChar

StartChar: glyph335
Encoding: 335 335 335
Width: 1000
LayerCount: 2
Fore
SplineSet
666 134 m 0
 999 134 l 0
 999 -199 l 0
 666 -199 l 0
 666 134 l 0
0 134 m 0
 333 134 l 0
 333 -199 l 0
 0 -199 l 0
 0 134 l 0
0 467 m 0
 333 467 l 0
 333 134 l 0
 0 134 l 0
 0 467 l 0
666 800 m 0
 999 800 l 0
 999 467 l 0
 666 467 l 0
 666 800 l 0
333 800 m 0
 666 800 l 0
 666 467 l 0
 333 467 l 0
 333 800 l 0
0 800 m 0
 333 800 l 0
 333 467 l 0
 0 467 l 0
 0 800 l 0
EndSplineSet
EndChar

StartChar: glyph336
Encoding: 336 336 336
Width: 1000
LayerCount: 2
Fore
SplineSet
666 134 m 0
 999 134 l 0
 999 -199 l 0
 666 -199 l 0
 666 134 l 0
0 134 m 0
 333 134 l 0
 333 -199 l 0
 0 -199 l 0
 0 134 l 0
333 467 m 0
 666 467 l 0
 666 134 l 0
 333 134 l 0
 333 467 l 0
EndSplineSet
EndChar

StartChar: glyph337
Encoding: 337 337 337
Width: 1000
LayerCount: 2
Fore
SplineSet
666 134 m 0
 999 134 l 0
 999 -199 l 0
 666 -199 l 0
 666 134 l 0
0 134 m 0
 333 134 l 0
 333 -199 l 0
 0 -199 l 0
 0 134 l 0
333 467 m 0
 666 467 l 0
 666 134 l 0
 333 134 l 0
 333 467 l 0
0 800 m 0
 333 800 l 0
 333 467 l 0
 0 467 l 0
 0 800 l 0
EndSplineSet
EndChar

StartChar: glyph338
Encoding: 338 338 338
Width: 1000
LayerCount: 2
Fore
SplineSet
666 134 m 0
 999 134 l 0
 999 -199 l 0
 666 -199 l 0
 666 134 l 0
0 134 m 0
 333 134 l 0
 333 -199 l 0
 0 -199 l 0
 0 134 l 0
333 467 m 0
 666 467 l 0
 666 134 l 0
 333 134 l 0
 333 467 l 0
333 800 m 0
 666 800 l 0
 666 467 l 0
 333 467 l 0
 333 800 l 0
EndSplineSet
EndChar

StartChar: glyph339
Encoding: 339 339 339
Width: 1000
LayerCount: 2
Fore
SplineSet
666 134 m 0
 999 134 l 0
 999 -199 l 0
 666 -199 l 0
 666 134 l 0
0 134 m 0
 333 134 l 0
 333 -199 l 0
 0 -199 l 0
 0 134 l 0
333 467 m 0
 666 467 l 0
 666 134 l 0
 333 134 l 0
 333 467 l 0
333 800 m 0
 666 800 l 0
 666 467 l 0
 333 467 l 0
 333 800 l 0
0 800 m 0
 333 800 l 0
 333 467 l 0
 0 467 l 0
 0 800 l 0
EndSplineSet
EndChar

StartChar: glyph340
Encoding: 340 340 340
Width: 1000
LayerCount: 2
Fore
SplineSet
666 134 m 0
 999 134 l 0
 999 -199 l 0
 666 -199 l 0
 666 134 l 0
0 134 m 0
 333 134 l 0
 333 -199 l 0
 0 -199 l 0
 0 134 l 0
333 467 m 0
 666 467 l 0
 666 134 l 0
 333 134 l 0
 333 467 l 0
666 800 m 0
 999 800 l 0
 999 467 l 0
 666 467 l 0
 666 800 l 0
EndSplineSet
EndChar

StartChar: glyph341
Encoding: 341 341 341
Width: 1000
LayerCount: 2
Fore
SplineSet
666 134 m 0
 999 134 l 0
 999 -199 l 0
 666 -199 l 0
 666 134 l 0
0 134 m 0
 333 134 l 0
 333 -199 l 0
 0 -199 l 0
 0 134 l 0
333 467 m 0
 666 467 l 0
 666 134 l 0
 333 134 l 0
 333 467 l 0
666 800 m 0
 999 800 l 0
 999 467 l 0
 666 467 l 0
 666 800 l 0
0 800 m 0
 333 800 l 0
 333 467 l 0
 0 467 l 0
 0 800 l 0
EndSplineSet
EndChar

StartChar: glyph342
Encoding: 342 342 342
Width: 1000
LayerCount: 2
Fore
SplineSet
666 134 m 0
 999 134 l 0
 999 -199 l 0
 666 -199 l 0
 666 134 l 0
0 134 m 0
 333 134 l 0
 333 -199 l 0
 0 -199 l 0
 0 134 l 0
333 467 m 0
 666 467 l 0
 666 134 l 0
 333 134 l 0
 333 467 l 0
666 800 m 0
 999 800 l 0
 999 467 l 0
 666 467 l 0
 666 800 l 0
333 800 m 0
 666 800 l 0
 666 467 l 0
 333 467 l 0
 333 800 l 0
EndSplineSet
EndChar

StartChar: glyph343
Encoding: 343 343 343
Width: 1000
LayerCount: 2
Fore
SplineSet
666 134 m 0
 999 134 l 0
 999 -199 l 0
 666 -199 l 0
 666 134 l 0
0 134 m 0
 333 134 l 0
 333 -199 l 0
 0 -199 l 0
 0 134 l 0
333 467 m 0
 666 467 l 0
 666 134 l 0
 333 134 l 0
 333 467 l 0
666 800 m 0
 999 800 l 0
 999 467 l 0
 666 467 l 0
 666 800 l 0
333 800 m 0
 666 800 l 0
 666 467 l 0
 333 467 l 0
 333 800 l 0
0 800 m 0
 333 800 l 0
 333 467 l 0
 0 467 l 0
 0 800 l 0
EndSplineSet
EndChar

StartChar: glyph344
Encoding: 344 344 344
Width: 1000
LayerCount: 2
Fore
SplineSet
666 134 m 0
 999 134 l 0
 999 -199 l 0
 666 -199 l 0
 666 134 l 0
0 134 m 0
 333 134 l 0
 333 -199 l 0
 0 -199 l 0
 0 134 l 0
333 467 m 0
 666 467 l 0
 666 134 l 0
 333 134 l 0
 333 467 l 0
0 467 m 0
 333 467 l 0
 333 134 l 0
 0 134 l 0
 0 467 l 0
EndSplineSet
EndChar

StartChar: glyph345
Encoding: 345 345 345
Width: 1000
LayerCount: 2
Fore
SplineSet
666 134 m 0
 999 134 l 0
 999 -199 l 0
 666 -199 l 0
 666 134 l 0
0 134 m 0
 333 134 l 0
 333 -199 l 0
 0 -199 l 0
 0 134 l 0
333 467 m 0
 666 467 l 0
 666 134 l 0
 333 134 l 0
 333 467 l 0
0 467 m 0
 333 467 l 0
 333 134 l 0
 0 134 l 0
 0 467 l 0
0 800 m 0
 333 800 l 0
 333 467 l 0
 0 467 l 0
 0 800 l 0
EndSplineSet
EndChar

StartChar: glyph346
Encoding: 346 346 346
Width: 1000
LayerCount: 2
Fore
SplineSet
666 134 m 0
 999 134 l 0
 999 -199 l 0
 666 -199 l 0
 666 134 l 0
0 134 m 0
 333 134 l 0
 333 -199 l 0
 0 -199 l 0
 0 134 l 0
333 467 m 0
 666 467 l 0
 666 134 l 0
 333 134 l 0
 333 467 l 0
0 467 m 0
 333 467 l 0
 333 134 l 0
 0 134 l 0
 0 467 l 0
333 800 m 0
 666 800 l 0
 666 467 l 0
 333 467 l 0
 333 800 l 0
EndSplineSet
EndChar

StartChar: glyph347
Encoding: 347 347 347
Width: 1000
LayerCount: 2
Fore
SplineSet
666 134 m 0
 999 134 l 0
 999 -199 l 0
 666 -199 l 0
 666 134 l 0
0 134 m 0
 333 134 l 0
 333 -199 l 0
 0 -199 l 0
 0 134 l 0
333 467 m 0
 666 467 l 0
 666 134 l 0
 333 134 l 0
 333 467 l 0
0 467 m 0
 333 467 l 0
 333 134 l 0
 0 134 l 0
 0 467 l 0
333 800 m 0
 666 800 l 0
 666 467 l 0
 333 467 l 0
 333 800 l 0
0 800 m 0
 333 800 l 0
 333 467 l 0
 0 467 l 0
 0 800 l 0
EndSplineSet
EndChar

StartChar: glyph348
Encoding: 348 348 348
Width: 1000
LayerCount: 2
Fore
SplineSet
666 134 m 0
 999 134 l 0
 999 -199 l 0
 666 -199 l 0
 666 134 l 0
0 134 m 0
 333 134 l 0
 333 -199 l 0
 0 -199 l 0
 0 134 l 0
333 467 m 0
 666 467 l 0
 666 134 l 0
 333 134 l 0
 333 467 l 0
0 467 m 0
 333 467 l 0
 333 134 l 0
 0 134 l 0
 0 467 l 0
666 800 m 0
 999 800 l 0
 999 467 l 0
 666 467 l 0
 666 800 l 0
EndSplineSet
EndChar

StartChar: glyph349
Encoding: 349 349 349
Width: 1000
LayerCount: 2
Fore
SplineSet
666 134 m 0
 999 134 l 0
 999 -199 l 0
 666 -199 l 0
 666 134 l 0
0 134 m 0
 333 134 l 0
 333 -199 l 0
 0 -199 l 0
 0 134 l 0
333 467 m 0
 666 467 l 0
 666 134 l 0
 333 134 l 0
 333 467 l 0
0 467 m 0
 333 467 l 0
 333 134 l 0
 0 134 l 0
 0 467 l 0
666 800 m 0
 999 800 l 0
 999 467 l 0
 666 467 l 0
 666 800 l 0
0 800 m 0
 333 800 l 0
 333 467 l 0
 0 467 l 0
 0 800 l 0
EndSplineSet
EndChar

StartChar: glyph350
Encoding: 350 350 350
Width: 1000
LayerCount: 2
Fore
SplineSet
666 134 m 0
 999 134 l 0
 999 -199 l 0
 666 -199 l 0
 666 134 l 0
0 134 m 0
 333 134 l 0
 333 -199 l 0
 0 -199 l 0
 0 134 l 0
333 467 m 0
 666 467 l 0
 666 134 l 0
 333 134 l 0
 333 467 l 0
0 467 m 0
 333 467 l 0
 333 134 l 0
 0 134 l 0
 0 467 l 0
666 800 m 0
 999 800 l 0
 999 467 l 0
 666 467 l 0
 666 800 l 0
333 800 m 0
 666 800 l 0
 666 467 l 0
 333 467 l 0
 333 800 l 0
EndSplineSet
EndChar

StartChar: glyph351
Encoding: 351 351 351
Width: 1000
LayerCount: 2
Fore
SplineSet
666 134 m 0
 999 134 l 0
 999 -199 l 0
 666 -199 l 0
 666 134 l 0
0 134 m 0
 333 134 l 0
 333 -199 l 0
 0 -199 l 0
 0 134 l 0
333 467 m 0
 666 467 l 0
 666 134 l 0
 333 134 l 0
 333 467 l 0
0 467 m 0
 333 467 l 0
 333 134 l 0
 0 134 l 0
 0 467 l 0
666 800 m 0
 999 800 l 0
 999 467 l 0
 666 467 l 0
 666 800 l 0
333 800 m 0
 666 800 l 0
 666 467 l 0
 333 467 l 0
 333 800 l 0
0 800 m 0
 333 800 l 0
 333 467 l 0
 0 467 l 0
 0 800 l 0
EndSplineSet
EndChar

StartChar: glyph352
Encoding: 352 352 352
Width: 1000
LayerCount: 2
Fore
SplineSet
666 134 m 0
 999 134 l 0
 999 -199 l 0
 666 -199 l 0
 666 134 l 0
0 134 m 0
 333 134 l 0
 333 -199 l 0
 0 -199 l 0
 0 134 l 0
666 467 m 0
 999 467 l 0
 999 134 l 0
 666 134 l 0
 666 467 l 0
EndSplineSet
EndChar

StartChar: glyph353
Encoding: 353 353 353
Width: 1000
LayerCount: 2
Fore
SplineSet
666 134 m 0
 999 134 l 0
 999 -199 l 0
 666 -199 l 0
 666 134 l 0
0 134 m 0
 333 134 l 0
 333 -199 l 0
 0 -199 l 0
 0 134 l 0
666 467 m 0
 999 467 l 0
 999 134 l 0
 666 134 l 0
 666 467 l 0
0 800 m 0
 333 800 l 0
 333 467 l 0
 0 467 l 0
 0 800 l 0
EndSplineSet
EndChar

StartChar: glyph354
Encoding: 354 354 354
Width: 1000
LayerCount: 2
Fore
SplineSet
666 134 m 0
 999 134 l 0
 999 -199 l 0
 666 -199 l 0
 666 134 l 0
0 134 m 0
 333 134 l 0
 333 -199 l 0
 0 -199 l 0
 0 134 l 0
666 467 m 0
 999 467 l 0
 999 134 l 0
 666 134 l 0
 666 467 l 0
333 800 m 0
 666 800 l 0
 666 467 l 0
 333 467 l 0
 333 800 l 0
EndSplineSet
EndChar

StartChar: glyph355
Encoding: 355 355 355
Width: 1000
LayerCount: 2
Fore
SplineSet
666 134 m 0
 999 134 l 0
 999 -199 l 0
 666 -199 l 0
 666 134 l 0
0 134 m 0
 333 134 l 0
 333 -199 l 0
 0 -199 l 0
 0 134 l 0
666 467 m 0
 999 467 l 0
 999 134 l 0
 666 134 l 0
 666 467 l 0
333 800 m 0
 666 800 l 0
 666 467 l 0
 333 467 l 0
 333 800 l 0
0 800 m 0
 333 800 l 0
 333 467 l 0
 0 467 l 0
 0 800 l 0
EndSplineSet
EndChar

StartChar: glyph356
Encoding: 356 356 356
Width: 1000
LayerCount: 2
Fore
SplineSet
666 134 m 0
 999 134 l 0
 999 -199 l 0
 666 -199 l 0
 666 134 l 0
0 134 m 0
 333 134 l 0
 333 -199 l 0
 0 -199 l 0
 0 134 l 0
666 467 m 0
 999 467 l 0
 999 134 l 0
 666 134 l 0
 666 467 l 0
666 800 m 0
 999 800 l 0
 999 467 l 0
 666 467 l 0
 666 800 l 0
EndSplineSet
EndChar

StartChar: glyph357
Encoding: 357 357 357
Width: 1000
LayerCount: 2
Fore
SplineSet
666 134 m 0
 999 134 l 0
 999 -199 l 0
 666 -199 l 0
 666 134 l 0
0 134 m 0
 333 134 l 0
 333 -199 l 0
 0 -199 l 0
 0 134 l 0
666 467 m 0
 999 467 l 0
 999 134 l 0
 666 134 l 0
 666 467 l 0
666 800 m 0
 999 800 l 0
 999 467 l 0
 666 467 l 0
 666 800 l 0
0 800 m 0
 333 800 l 0
 333 467 l 0
 0 467 l 0
 0 800 l 0
EndSplineSet
EndChar

StartChar: glyph358
Encoding: 358 358 358
Width: 1000
LayerCount: 2
Fore
SplineSet
666 134 m 0
 999 134 l 0
 999 -199 l 0
 666 -199 l 0
 666 134 l 0
0 134 m 0
 333 134 l 0
 333 -199 l 0
 0 -199 l 0
 0 134 l 0
666 467 m 0
 999 467 l 0
 999 134 l 0
 666 134 l 0
 666 467 l 0
666 800 m 0
 999 800 l 0
 999 467 l 0
 666 467 l 0
 666 800 l 0
333 800 m 0
 666 800 l 0
 666 467 l 0
 333 467 l 0
 333 800 l 0
EndSplineSet
EndChar

StartChar: glyph359
Encoding: 359 359 359
Width: 1000
LayerCount: 2
Fore
SplineSet
666 134 m 0
 999 134 l 0
 999 -199 l 0
 666 -199 l 0
 666 134 l 0
0 134 m 0
 333 134 l 0
 333 -199 l 0
 0 -199 l 0
 0 134 l 0
666 467 m 0
 999 467 l 0
 999 134 l 0
 666 134 l 0
 666 467 l 0
666 800 m 0
 999 800 l 0
 999 467 l 0
 666 467 l 0
 666 800 l 0
333 800 m 0
 666 800 l 0
 666 467 l 0
 333 467 l 0
 333 800 l 0
0 800 m 0
 333 800 l 0
 333 467 l 0
 0 467 l 0
 0 800 l 0
EndSplineSet
EndChar

StartChar: glyph360
Encoding: 360 360 360
Width: 1000
LayerCount: 2
Fore
SplineSet
666 134 m 0
 999 134 l 0
 999 -199 l 0
 666 -199 l 0
 666 134 l 0
0 134 m 0
 333 134 l 0
 333 -199 l 0
 0 -199 l 0
 0 134 l 0
666 467 m 0
 999 467 l 0
 999 134 l 0
 666 134 l 0
 666 467 l 0
0 467 m 0
 333 467 l 0
 333 134 l 0
 0 134 l 0
 0 467 l 0
EndSplineSet
EndChar

StartChar: glyph361
Encoding: 361 361 361
Width: 1000
LayerCount: 2
Fore
SplineSet
666 134 m 0
 999 134 l 0
 999 -199 l 0
 666 -199 l 0
 666 134 l 0
0 134 m 0
 333 134 l 0
 333 -199 l 0
 0 -199 l 0
 0 134 l 0
666 467 m 0
 999 467 l 0
 999 134 l 0
 666 134 l 0
 666 467 l 0
0 467 m 0
 333 467 l 0
 333 134 l 0
 0 134 l 0
 0 467 l 0
0 800 m 0
 333 800 l 0
 333 467 l 0
 0 467 l 0
 0 800 l 0
EndSplineSet
EndChar

StartChar: glyph362
Encoding: 362 362 362
Width: 1000
LayerCount: 2
Fore
SplineSet
666 134 m 0
 999 134 l 0
 999 -199 l 0
 666 -199 l 0
 666 134 l 0
0 134 m 0
 333 134 l 0
 333 -199 l 0
 0 -199 l 0
 0 134 l 0
666 467 m 0
 999 467 l 0
 999 134 l 0
 666 134 l 0
 666 467 l 0
0 467 m 0
 333 467 l 0
 333 134 l 0
 0 134 l 0
 0 467 l 0
333 800 m 0
 666 800 l 0
 666 467 l 0
 333 467 l 0
 333 800 l 0
EndSplineSet
EndChar

StartChar: glyph363
Encoding: 363 363 363
Width: 1000
LayerCount: 2
Fore
SplineSet
666 134 m 0
 999 134 l 0
 999 -199 l 0
 666 -199 l 0
 666 134 l 0
0 134 m 0
 333 134 l 0
 333 -199 l 0
 0 -199 l 0
 0 134 l 0
666 467 m 0
 999 467 l 0
 999 134 l 0
 666 134 l 0
 666 467 l 0
0 467 m 0
 333 467 l 0
 333 134 l 0
 0 134 l 0
 0 467 l 0
333 800 m 0
 666 800 l 0
 666 467 l 0
 333 467 l 0
 333 800 l 0
0 800 m 0
 333 800 l 0
 333 467 l 0
 0 467 l 0
 0 800 l 0
EndSplineSet
EndChar

StartChar: glyph364
Encoding: 364 364 364
Width: 1000
LayerCount: 2
Fore
SplineSet
666 134 m 0
 999 134 l 0
 999 -199 l 0
 666 -199 l 0
 666 134 l 0
0 134 m 0
 333 134 l 0
 333 -199 l 0
 0 -199 l 0
 0 134 l 0
666 467 m 0
 999 467 l 0
 999 134 l 0
 666 134 l 0
 666 467 l 0
0 467 m 0
 333 467 l 0
 333 134 l 0
 0 134 l 0
 0 467 l 0
666 800 m 0
 999 800 l 0
 999 467 l 0
 666 467 l 0
 666 800 l 0
EndSplineSet
EndChar

StartChar: glyph365
Encoding: 365 365 365
Width: 1000
LayerCount: 2
Fore
SplineSet
666 134 m 0
 999 134 l 0
 999 -199 l 0
 666 -199 l 0
 666 134 l 0
0 134 m 0
 333 134 l 0
 333 -199 l 0
 0 -199 l 0
 0 134 l 0
666 467 m 0
 999 467 l 0
 999 134 l 0
 666 134 l 0
 666 467 l 0
0 467 m 0
 333 467 l 0
 333 134 l 0
 0 134 l 0
 0 467 l 0
666 800 m 0
 999 800 l 0
 999 467 l 0
 666 467 l 0
 666 800 l 0
0 800 m 0
 333 800 l 0
 333 467 l 0
 0 467 l 0
 0 800 l 0
EndSplineSet
EndChar

StartChar: glyph366
Encoding: 366 366 366
Width: 1000
LayerCount: 2
Fore
SplineSet
666 134 m 0
 999 134 l 0
 999 -199 l 0
 666 -199 l 0
 666 134 l 0
0 134 m 0
 333 134 l 0
 333 -199 l 0
 0 -199 l 0
 0 134 l 0
666 467 m 0
 999 467 l 0
 999 134 l 0
 666 134 l 0
 666 467 l 0
0 467 m 0
 333 467 l 0
 333 134 l 0
 0 134 l 0
 0 467 l 0
666 800 m 0
 999 800 l 0
 999 467 l 0
 666 467 l 0
 666 800 l 0
333 800 m 0
 666 800 l 0
 666 467 l 0
 333 467 l 0
 333 800 l 0
EndSplineSet
EndChar

StartChar: glyph367
Encoding: 367 367 367
Width: 1000
LayerCount: 2
Fore
SplineSet
666 134 m 0
 999 134 l 0
 999 -199 l 0
 666 -199 l 0
 666 134 l 0
0 134 m 0
 333 134 l 0
 333 -199 l 0
 0 -199 l 0
 0 134 l 0
666 467 m 0
 999 467 l 0
 999 134 l 0
 666 134 l 0
 666 467 l 0
0 467 m 0
 333 467 l 0
 333 134 l 0
 0 134 l 0
 0 467 l 0
666 800 m 0
 999 800 l 0
 999 467 l 0
 666 467 l 0
 666 800 l 0
333 800 m 0
 666 800 l 0
 666 467 l 0
 333 467 l 0
 333 800 l 0
0 800 m 0
 333 800 l 0
 333 467 l 0
 0 467 l 0
 0 800 l 0
EndSplineSet
EndChar

StartChar: glyph368
Encoding: 368 368 368
Width: 1000
LayerCount: 2
Fore
SplineSet
666 134 m 0
 999 134 l 0
 999 -199 l 0
 666 -199 l 0
 666 134 l 0
0 134 m 0
 333 134 l 0
 333 -199 l 0
 0 -199 l 0
 0 134 l 0
666 467 m 0
 999 467 l 0
 999 134 l 0
 666 134 l 0
 666 467 l 0
333 467 m 0
 666 467 l 0
 666 134 l 0
 333 134 l 0
 333 467 l 0
EndSplineSet
EndChar

StartChar: glyph369
Encoding: 369 369 369
Width: 1000
LayerCount: 2
Fore
SplineSet
666 134 m 0
 999 134 l 0
 999 -199 l 0
 666 -199 l 0
 666 134 l 0
0 134 m 0
 333 134 l 0
 333 -199 l 0
 0 -199 l 0
 0 134 l 0
666 467 m 0
 999 467 l 0
 999 134 l 0
 666 134 l 0
 666 467 l 0
333 467 m 0
 666 467 l 0
 666 134 l 0
 333 134 l 0
 333 467 l 0
0 800 m 0
 333 800 l 0
 333 467 l 0
 0 467 l 0
 0 800 l 0
EndSplineSet
EndChar

StartChar: glyph370
Encoding: 370 370 370
Width: 1000
LayerCount: 2
Fore
SplineSet
666 134 m 0
 999 134 l 0
 999 -199 l 0
 666 -199 l 0
 666 134 l 0
0 134 m 0
 333 134 l 0
 333 -199 l 0
 0 -199 l 0
 0 134 l 0
666 467 m 0
 999 467 l 0
 999 134 l 0
 666 134 l 0
 666 467 l 0
333 467 m 0
 666 467 l 0
 666 134 l 0
 333 134 l 0
 333 467 l 0
333 800 m 0
 666 800 l 0
 666 467 l 0
 333 467 l 0
 333 800 l 0
EndSplineSet
EndChar

StartChar: glyph371
Encoding: 371 371 371
Width: 1000
LayerCount: 2
Fore
SplineSet
666 134 m 0
 999 134 l 0
 999 -199 l 0
 666 -199 l 0
 666 134 l 0
0 134 m 0
 333 134 l 0
 333 -199 l 0
 0 -199 l 0
 0 134 l 0
666 467 m 0
 999 467 l 0
 999 134 l 0
 666 134 l 0
 666 467 l 0
333 467 m 0
 666 467 l 0
 666 134 l 0
 333 134 l 0
 333 467 l 0
333 800 m 0
 666 800 l 0
 666 467 l 0
 333 467 l 0
 333 800 l 0
0 800 m 0
 333 800 l 0
 333 467 l 0
 0 467 l 0
 0 800 l 0
EndSplineSet
EndChar

StartChar: glyph372
Encoding: 372 372 372
Width: 1000
LayerCount: 2
Fore
SplineSet
666 134 m 0
 999 134 l 0
 999 -199 l 0
 666 -199 l 0
 666 134 l 0
0 134 m 0
 333 134 l 0
 333 -199 l 0
 0 -199 l 0
 0 134 l 0
666 467 m 0
 999 467 l 0
 999 134 l 0
 666 134 l 0
 666 467 l 0
333 467 m 0
 666 467 l 0
 666 134 l 0
 333 134 l 0
 333 467 l 0
666 800 m 0
 999 800 l 0
 999 467 l 0
 666 467 l 0
 666 800 l 0
EndSplineSet
EndChar

StartChar: glyph373
Encoding: 373 373 373
Width: 1000
LayerCount: 2
Fore
SplineSet
666 134 m 0
 999 134 l 0
 999 -199 l 0
 666 -199 l 0
 666 134 l 0
0 134 m 0
 333 134 l 0
 333 -199 l 0
 0 -199 l 0
 0 134 l 0
666 467 m 0
 999 467 l 0
 999 134 l 0
 666 134 l 0
 666 467 l 0
333 467 m 0
 666 467 l 0
 666 134 l 0
 333 134 l 0
 333 467 l 0
666 800 m 0
 999 800 l 0
 999 467 l 0
 666 467 l 0
 666 800 l 0
0 800 m 0
 333 800 l 0
 333 467 l 0
 0 467 l 0
 0 800 l 0
EndSplineSet
EndChar

StartChar: glyph374
Encoding: 374 374 374
Width: 1000
LayerCount: 2
Fore
SplineSet
666 134 m 0
 999 134 l 0
 999 -199 l 0
 666 -199 l 0
 666 134 l 0
0 134 m 0
 333 134 l 0
 333 -199 l 0
 0 -199 l 0
 0 134 l 0
666 467 m 0
 999 467 l 0
 999 134 l 0
 666 134 l 0
 666 467 l 0
333 467 m 0
 666 467 l 0
 666 134 l 0
 333 134 l 0
 333 467 l 0
666 800 m 0
 999 800 l 0
 999 467 l 0
 666 467 l 0
 666 800 l 0
333 800 m 0
 666 800 l 0
 666 467 l 0
 333 467 l 0
 333 800 l 0
EndSplineSet
EndChar

StartChar: glyph375
Encoding: 375 375 375
Width: 1000
LayerCount: 2
Fore
SplineSet
666 134 m 0
 999 134 l 0
 999 -199 l 0
 666 -199 l 0
 666 134 l 0
0 134 m 0
 333 134 l 0
 333 -199 l 0
 0 -199 l 0
 0 134 l 0
666 467 m 0
 999 467 l 0
 999 134 l 0
 666 134 l 0
 666 467 l 0
333 467 m 0
 666 467 l 0
 666 134 l 0
 333 134 l 0
 333 467 l 0
666 800 m 0
 999 800 l 0
 999 467 l 0
 666 467 l 0
 666 800 l 0
333 800 m 0
 666 800 l 0
 666 467 l 0
 333 467 l 0
 333 800 l 0
0 800 m 0
 333 800 l 0
 333 467 l 0
 0 467 l 0
 0 800 l 0
EndSplineSet
EndChar

StartChar: glyph376
Encoding: 376 376 376
Width: 1000
LayerCount: 2
Fore
SplineSet
666 134 m 0
 999 134 l 0
 999 -199 l 0
 666 -199 l 0
 666 134 l 0
0 134 m 0
 333 134 l 0
 333 -199 l 0
 0 -199 l 0
 0 134 l 0
666 467 m 0
 999 467 l 0
 999 134 l 0
 666 134 l 0
 666 467 l 0
333 467 m 0
 666 467 l 0
 666 134 l 0
 333 134 l 0
 333 467 l 0
0 467 m 0
 333 467 l 0
 333 134 l 0
 0 134 l 0
 0 467 l 0
EndSplineSet
EndChar

StartChar: glyph377
Encoding: 377 377 377
Width: 1000
LayerCount: 2
Fore
SplineSet
666 134 m 0
 999 134 l 0
 999 -199 l 0
 666 -199 l 0
 666 134 l 0
0 134 m 0
 333 134 l 0
 333 -199 l 0
 0 -199 l 0
 0 134 l 0
666 467 m 0
 999 467 l 0
 999 134 l 0
 666 134 l 0
 666 467 l 0
333 467 m 0
 666 467 l 0
 666 134 l 0
 333 134 l 0
 333 467 l 0
0 467 m 0
 333 467 l 0
 333 134 l 0
 0 134 l 0
 0 467 l 0
0 800 m 0
 333 800 l 0
 333 467 l 0
 0 467 l 0
 0 800 l 0
EndSplineSet
EndChar

StartChar: glyph378
Encoding: 378 378 378
Width: 1000
LayerCount: 2
Fore
SplineSet
666 134 m 0
 999 134 l 0
 999 -199 l 0
 666 -199 l 0
 666 134 l 0
0 134 m 0
 333 134 l 0
 333 -199 l 0
 0 -199 l 0
 0 134 l 0
666 467 m 0
 999 467 l 0
 999 134 l 0
 666 134 l 0
 666 467 l 0
333 467 m 0
 666 467 l 0
 666 134 l 0
 333 134 l 0
 333 467 l 0
0 467 m 0
 333 467 l 0
 333 134 l 0
 0 134 l 0
 0 467 l 0
333 800 m 0
 666 800 l 0
 666 467 l 0
 333 467 l 0
 333 800 l 0
EndSplineSet
EndChar

StartChar: glyph379
Encoding: 379 379 379
Width: 1000
LayerCount: 2
Fore
SplineSet
666 134 m 0
 999 134 l 0
 999 -199 l 0
 666 -199 l 0
 666 134 l 0
0 134 m 0
 333 134 l 0
 333 -199 l 0
 0 -199 l 0
 0 134 l 0
666 467 m 0
 999 467 l 0
 999 134 l 0
 666 134 l 0
 666 467 l 0
333 467 m 0
 666 467 l 0
 666 134 l 0
 333 134 l 0
 333 467 l 0
0 467 m 0
 333 467 l 0
 333 134 l 0
 0 134 l 0
 0 467 l 0
333 800 m 0
 666 800 l 0
 666 467 l 0
 333 467 l 0
 333 800 l 0
0 800 m 0
 333 800 l 0
 333 467 l 0
 0 467 l 0
 0 800 l 0
EndSplineSet
EndChar

StartChar: glyph380
Encoding: 380 380 380
Width: 1000
LayerCount: 2
Fore
SplineSet
666 134 m 0
 999 134 l 0
 999 -199 l 0
 666 -199 l 0
 666 134 l 0
0 134 m 0
 333 134 l 0
 333 -199 l 0
 0 -199 l 0
 0 134 l 0
666 467 m 0
 999 467 l 0
 999 134 l 0
 666 134 l 0
 666 467 l 0
333 467 m 0
 666 467 l 0
 666 134 l 0
 333 134 l 0
 333 467 l 0
0 467 m 0
 333 467 l 0
 333 134 l 0
 0 134 l 0
 0 467 l 0
666 800 m 0
 999 800 l 0
 999 467 l 0
 666 467 l 0
 666 800 l 0
EndSplineSet
EndChar

StartChar: glyph381
Encoding: 381 381 381
Width: 1000
LayerCount: 2
Fore
SplineSet
666 134 m 0
 999 134 l 0
 999 -199 l 0
 666 -199 l 0
 666 134 l 0
0 134 m 0
 333 134 l 0
 333 -199 l 0
 0 -199 l 0
 0 134 l 0
666 467 m 0
 999 467 l 0
 999 134 l 0
 666 134 l 0
 666 467 l 0
333 467 m 0
 666 467 l 0
 666 134 l 0
 333 134 l 0
 333 467 l 0
0 467 m 0
 333 467 l 0
 333 134 l 0
 0 134 l 0
 0 467 l 0
666 800 m 0
 999 800 l 0
 999 467 l 0
 666 467 l 0
 666 800 l 0
0 800 m 0
 333 800 l 0
 333 467 l 0
 0 467 l 0
 0 800 l 0
EndSplineSet
EndChar

StartChar: glyph382
Encoding: 382 382 382
Width: 1000
LayerCount: 2
Fore
SplineSet
666 134 m 0
 999 134 l 0
 999 -199 l 0
 666 -199 l 0
 666 134 l 0
0 134 m 0
 333 134 l 0
 333 -199 l 0
 0 -199 l 0
 0 134 l 0
666 467 m 0
 999 467 l 0
 999 134 l 0
 666 134 l 0
 666 467 l 0
333 467 m 0
 666 467 l 0
 666 134 l 0
 333 134 l 0
 333 467 l 0
0 467 m 0
 333 467 l 0
 333 134 l 0
 0 134 l 0
 0 467 l 0
666 800 m 0
 999 800 l 0
 999 467 l 0
 666 467 l 0
 666 800 l 0
333 800 m 0
 666 800 l 0
 666 467 l 0
 333 467 l 0
 333 800 l 0
EndSplineSet
EndChar

StartChar: glyph383
Encoding: 383 383 383
Width: 1000
LayerCount: 2
Fore
SplineSet
666 134 m 0
 999 134 l 0
 999 -199 l 0
 666 -199 l 0
 666 134 l 0
0 134 m 0
 333 134 l 0
 333 -199 l 0
 0 -199 l 0
 0 134 l 0
666 467 m 0
 999 467 l 0
 999 134 l 0
 666 134 l 0
 666 467 l 0
333 467 m 0
 666 467 l 0
 666 134 l 0
 333 134 l 0
 333 467 l 0
0 467 m 0
 333 467 l 0
 333 134 l 0
 0 134 l 0
 0 467 l 0
666 800 m 0
 999 800 l 0
 999 467 l 0
 666 467 l 0
 666 800 l 0
333 800 m 0
 666 800 l 0
 666 467 l 0
 333 467 l 0
 333 800 l 0
0 800 m 0
 333 800 l 0
 333 467 l 0
 0 467 l 0
 0 800 l 0
EndSplineSet
EndChar

StartChar: glyph384
Encoding: 384 384 384
Width: 1000
LayerCount: 2
Fore
SplineSet
666 134 m 0
 999 134 l 0
 999 -199 l 0
 666 -199 l 0
 666 134 l 0
333 134 m 0
 666 134 l 0
 666 -199 l 0
 333 -199 l 0
 333 134 l 0
EndSplineSet
EndChar

StartChar: glyph385
Encoding: 385 385 385
Width: 1000
LayerCount: 2
Fore
SplineSet
666 134 m 0
 999 134 l 0
 999 -199 l 0
 666 -199 l 0
 666 134 l 0
333 134 m 0
 666 134 l 0
 666 -199 l 0
 333 -199 l 0
 333 134 l 0
0 800 m 0
 333 800 l 0
 333 467 l 0
 0 467 l 0
 0 800 l 0
EndSplineSet
EndChar

StartChar: glyph386
Encoding: 386 386 386
Width: 1000
LayerCount: 2
Fore
SplineSet
666 134 m 0
 999 134 l 0
 999 -199 l 0
 666 -199 l 0
 666 134 l 0
333 134 m 0
 666 134 l 0
 666 -199 l 0
 333 -199 l 0
 333 134 l 0
333 800 m 0
 666 800 l 0
 666 467 l 0
 333 467 l 0
 333 800 l 0
EndSplineSet
EndChar

StartChar: glyph387
Encoding: 387 387 387
Width: 1000
LayerCount: 2
Fore
SplineSet
666 134 m 0
 999 134 l 0
 999 -199 l 0
 666 -199 l 0
 666 134 l 0
333 134 m 0
 666 134 l 0
 666 -199 l 0
 333 -199 l 0
 333 134 l 0
333 800 m 0
 666 800 l 0
 666 467 l 0
 333 467 l 0
 333 800 l 0
0 800 m 0
 333 800 l 0
 333 467 l 0
 0 467 l 0
 0 800 l 0
EndSplineSet
EndChar

StartChar: glyph388
Encoding: 388 388 388
Width: 1000
LayerCount: 2
Fore
SplineSet
666 134 m 0
 999 134 l 0
 999 -199 l 0
 666 -199 l 0
 666 134 l 0
333 134 m 0
 666 134 l 0
 666 -199 l 0
 333 -199 l 0
 333 134 l 0
666 800 m 0
 999 800 l 0
 999 467 l 0
 666 467 l 0
 666 800 l 0
EndSplineSet
EndChar

StartChar: glyph389
Encoding: 389 389 389
Width: 1000
LayerCount: 2
Fore
SplineSet
666 134 m 0
 999 134 l 0
 999 -199 l 0
 666 -199 l 0
 666 134 l 0
333 134 m 0
 666 134 l 0
 666 -199 l 0
 333 -199 l 0
 333 134 l 0
666 800 m 0
 999 800 l 0
 999 467 l 0
 666 467 l 0
 666 800 l 0
0 800 m 0
 333 800 l 0
 333 467 l 0
 0 467 l 0
 0 800 l 0
EndSplineSet
EndChar

StartChar: glyph390
Encoding: 390 390 390
Width: 1000
LayerCount: 2
Fore
SplineSet
666 134 m 0
 999 134 l 0
 999 -199 l 0
 666 -199 l 0
 666 134 l 0
333 134 m 0
 666 134 l 0
 666 -199 l 0
 333 -199 l 0
 333 134 l 0
666 800 m 0
 999 800 l 0
 999 467 l 0
 666 467 l 0
 666 800 l 0
333 800 m 0
 666 800 l 0
 666 467 l 0
 333 467 l 0
 333 800 l 0
EndSplineSet
EndChar

StartChar: glyph391
Encoding: 391 391 391
Width: 1000
LayerCount: 2
Fore
SplineSet
666 134 m 0
 999 134 l 0
 999 -199 l 0
 666 -199 l 0
 666 134 l 0
333 134 m 0
 666 134 l 0
 666 -199 l 0
 333 -199 l 0
 333 134 l 0
666 800 m 0
 999 800 l 0
 999 467 l 0
 666 467 l 0
 666 800 l 0
333 800 m 0
 666 800 l 0
 666 467 l 0
 333 467 l 0
 333 800 l 0
0 800 m 0
 333 800 l 0
 333 467 l 0
 0 467 l 0
 0 800 l 0
EndSplineSet
EndChar

StartChar: glyph392
Encoding: 392 392 392
Width: 1000
LayerCount: 2
Fore
SplineSet
666 134 m 0
 999 134 l 0
 999 -199 l 0
 666 -199 l 0
 666 134 l 0
333 134 m 0
 666 134 l 0
 666 -199 l 0
 333 -199 l 0
 333 134 l 0
0 467 m 0
 333 467 l 0
 333 134 l 0
 0 134 l 0
 0 467 l 0
EndSplineSet
EndChar

StartChar: glyph393
Encoding: 393 393 393
Width: 1000
LayerCount: 2
Fore
SplineSet
666 134 m 0
 999 134 l 0
 999 -199 l 0
 666 -199 l 0
 666 134 l 0
333 134 m 0
 666 134 l 0
 666 -199 l 0
 333 -199 l 0
 333 134 l 0
0 467 m 0
 333 467 l 0
 333 134 l 0
 0 134 l 0
 0 467 l 0
0 800 m 0
 333 800 l 0
 333 467 l 0
 0 467 l 0
 0 800 l 0
EndSplineSet
EndChar

StartChar: glyph394
Encoding: 394 394 394
Width: 1000
LayerCount: 2
Fore
SplineSet
666 134 m 0
 999 134 l 0
 999 -199 l 0
 666 -199 l 0
 666 134 l 0
333 134 m 0
 666 134 l 0
 666 -199 l 0
 333 -199 l 0
 333 134 l 0
0 467 m 0
 333 467 l 0
 333 134 l 0
 0 134 l 0
 0 467 l 0
333 800 m 0
 666 800 l 0
 666 467 l 0
 333 467 l 0
 333 800 l 0
EndSplineSet
EndChar

StartChar: glyph395
Encoding: 395 395 395
Width: 1000
LayerCount: 2
Fore
SplineSet
666 134 m 0
 999 134 l 0
 999 -199 l 0
 666 -199 l 0
 666 134 l 0
333 134 m 0
 666 134 l 0
 666 -199 l 0
 333 -199 l 0
 333 134 l 0
0 467 m 0
 333 467 l 0
 333 134 l 0
 0 134 l 0
 0 467 l 0
333 800 m 0
 666 800 l 0
 666 467 l 0
 333 467 l 0
 333 800 l 0
0 800 m 0
 333 800 l 0
 333 467 l 0
 0 467 l 0
 0 800 l 0
EndSplineSet
EndChar

StartChar: glyph396
Encoding: 396 396 396
Width: 1000
LayerCount: 2
Fore
SplineSet
666 134 m 0
 999 134 l 0
 999 -199 l 0
 666 -199 l 0
 666 134 l 0
333 134 m 0
 666 134 l 0
 666 -199 l 0
 333 -199 l 0
 333 134 l 0
0 467 m 0
 333 467 l 0
 333 134 l 0
 0 134 l 0
 0 467 l 0
666 800 m 0
 999 800 l 0
 999 467 l 0
 666 467 l 0
 666 800 l 0
EndSplineSet
EndChar

StartChar: glyph397
Encoding: 397 397 397
Width: 1000
LayerCount: 2
Fore
SplineSet
666 134 m 0
 999 134 l 0
 999 -199 l 0
 666 -199 l 0
 666 134 l 0
333 134 m 0
 666 134 l 0
 666 -199 l 0
 333 -199 l 0
 333 134 l 0
0 467 m 0
 333 467 l 0
 333 134 l 0
 0 134 l 0
 0 467 l 0
666 800 m 0
 999 800 l 0
 999 467 l 0
 666 467 l 0
 666 800 l 0
0 800 m 0
 333 800 l 0
 333 467 l 0
 0 467 l 0
 0 800 l 0
EndSplineSet
EndChar

StartChar: glyph398
Encoding: 398 398 398
Width: 1000
LayerCount: 2
Fore
SplineSet
666 134 m 0
 999 134 l 0
 999 -199 l 0
 666 -199 l 0
 666 134 l 0
333 134 m 0
 666 134 l 0
 666 -199 l 0
 333 -199 l 0
 333 134 l 0
0 467 m 0
 333 467 l 0
 333 134 l 0
 0 134 l 0
 0 467 l 0
666 800 m 0
 999 800 l 0
 999 467 l 0
 666 467 l 0
 666 800 l 0
333 800 m 0
 666 800 l 0
 666 467 l 0
 333 467 l 0
 333 800 l 0
EndSplineSet
EndChar

StartChar: glyph399
Encoding: 399 399 399
Width: 1000
LayerCount: 2
Fore
SplineSet
666 134 m 0
 999 134 l 0
 999 -199 l 0
 666 -199 l 0
 666 134 l 0
333 134 m 0
 666 134 l 0
 666 -199 l 0
 333 -199 l 0
 333 134 l 0
0 467 m 0
 333 467 l 0
 333 134 l 0
 0 134 l 0
 0 467 l 0
666 800 m 0
 999 800 l 0
 999 467 l 0
 666 467 l 0
 666 800 l 0
333 800 m 0
 666 800 l 0
 666 467 l 0
 333 467 l 0
 333 800 l 0
0 800 m 0
 333 800 l 0
 333 467 l 0
 0 467 l 0
 0 800 l 0
EndSplineSet
EndChar

StartChar: glyph400
Encoding: 400 400 400
Width: 1000
LayerCount: 2
Fore
SplineSet
666 134 m 0
 999 134 l 0
 999 -199 l 0
 666 -199 l 0
 666 134 l 0
333 134 m 0
 666 134 l 0
 666 -199 l 0
 333 -199 l 0
 333 134 l 0
333 467 m 0
 666 467 l 0
 666 134 l 0
 333 134 l 0
 333 467 l 0
EndSplineSet
EndChar

StartChar: glyph401
Encoding: 401 401 401
Width: 1000
LayerCount: 2
Fore
SplineSet
666 134 m 0
 999 134 l 0
 999 -199 l 0
 666 -199 l 0
 666 134 l 0
333 134 m 0
 666 134 l 0
 666 -199 l 0
 333 -199 l 0
 333 134 l 0
333 467 m 0
 666 467 l 0
 666 134 l 0
 333 134 l 0
 333 467 l 0
0 800 m 0
 333 800 l 0
 333 467 l 0
 0 467 l 0
 0 800 l 0
EndSplineSet
EndChar

StartChar: glyph402
Encoding: 402 402 402
Width: 1000
LayerCount: 2
Fore
SplineSet
666 134 m 0
 999 134 l 0
 999 -199 l 0
 666 -199 l 0
 666 134 l 0
333 134 m 0
 666 134 l 0
 666 -199 l 0
 333 -199 l 0
 333 134 l 0
333 467 m 0
 666 467 l 0
 666 134 l 0
 333 134 l 0
 333 467 l 0
333 800 m 0
 666 800 l 0
 666 467 l 0
 333 467 l 0
 333 800 l 0
EndSplineSet
EndChar

StartChar: glyph403
Encoding: 403 403 403
Width: 1000
LayerCount: 2
Fore
SplineSet
666 134 m 0
 999 134 l 0
 999 -199 l 0
 666 -199 l 0
 666 134 l 0
333 134 m 0
 666 134 l 0
 666 -199 l 0
 333 -199 l 0
 333 134 l 0
333 467 m 0
 666 467 l 0
 666 134 l 0
 333 134 l 0
 333 467 l 0
333 800 m 0
 666 800 l 0
 666 467 l 0
 333 467 l 0
 333 800 l 0
0 800 m 0
 333 800 l 0
 333 467 l 0
 0 467 l 0
 0 800 l 0
EndSplineSet
EndChar

StartChar: glyph404
Encoding: 404 404 404
Width: 1000
LayerCount: 2
Fore
SplineSet
666 134 m 0
 999 134 l 0
 999 -199 l 0
 666 -199 l 0
 666 134 l 0
333 134 m 0
 666 134 l 0
 666 -199 l 0
 333 -199 l 0
 333 134 l 0
333 467 m 0
 666 467 l 0
 666 134 l 0
 333 134 l 0
 333 467 l 0
666 800 m 0
 999 800 l 0
 999 467 l 0
 666 467 l 0
 666 800 l 0
EndSplineSet
EndChar

StartChar: glyph405
Encoding: 405 405 405
Width: 1000
LayerCount: 2
Fore
SplineSet
666 134 m 0
 999 134 l 0
 999 -199 l 0
 666 -199 l 0
 666 134 l 0
333 134 m 0
 666 134 l 0
 666 -199 l 0
 333 -199 l 0
 333 134 l 0
333 467 m 0
 666 467 l 0
 666 134 l 0
 333 134 l 0
 333 467 l 0
666 800 m 0
 999 800 l 0
 999 467 l 0
 666 467 l 0
 666 800 l 0
0 800 m 0
 333 800 l 0
 333 467 l 0
 0 467 l 0
 0 800 l 0
EndSplineSet
EndChar

StartChar: glyph406
Encoding: 406 406 406
Width: 1000
LayerCount: 2
Fore
SplineSet
666 134 m 0
 999 134 l 0
 999 -199 l 0
 666 -199 l 0
 666 134 l 0
333 134 m 0
 666 134 l 0
 666 -199 l 0
 333 -199 l 0
 333 134 l 0
333 467 m 0
 666 467 l 0
 666 134 l 0
 333 134 l 0
 333 467 l 0
666 800 m 0
 999 800 l 0
 999 467 l 0
 666 467 l 0
 666 800 l 0
333 800 m 0
 666 800 l 0
 666 467 l 0
 333 467 l 0
 333 800 l 0
EndSplineSet
EndChar

StartChar: glyph407
Encoding: 407 407 407
Width: 1000
LayerCount: 2
Fore
SplineSet
666 134 m 0
 999 134 l 0
 999 -199 l 0
 666 -199 l 0
 666 134 l 0
333 134 m 0
 666 134 l 0
 666 -199 l 0
 333 -199 l 0
 333 134 l 0
333 467 m 0
 666 467 l 0
 666 134 l 0
 333 134 l 0
 333 467 l 0
666 800 m 0
 999 800 l 0
 999 467 l 0
 666 467 l 0
 666 800 l 0
333 800 m 0
 666 800 l 0
 666 467 l 0
 333 467 l 0
 333 800 l 0
0 800 m 0
 333 800 l 0
 333 467 l 0
 0 467 l 0
 0 800 l 0
EndSplineSet
EndChar

StartChar: glyph408
Encoding: 408 408 408
Width: 1000
LayerCount: 2
Fore
SplineSet
666 134 m 0
 999 134 l 0
 999 -199 l 0
 666 -199 l 0
 666 134 l 0
333 134 m 0
 666 134 l 0
 666 -199 l 0
 333 -199 l 0
 333 134 l 0
333 467 m 0
 666 467 l 0
 666 134 l 0
 333 134 l 0
 333 467 l 0
0 467 m 0
 333 467 l 0
 333 134 l 0
 0 134 l 0
 0 467 l 0
EndSplineSet
EndChar

StartChar: glyph409
Encoding: 409 409 409
Width: 1000
LayerCount: 2
Fore
SplineSet
666 134 m 0
 999 134 l 0
 999 -199 l 0
 666 -199 l 0
 666 134 l 0
333 134 m 0
 666 134 l 0
 666 -199 l 0
 333 -199 l 0
 333 134 l 0
333 467 m 0
 666 467 l 0
 666 134 l 0
 333 134 l 0
 333 467 l 0
0 467 m 0
 333 467 l 0
 333 134 l 0
 0 134 l 0
 0 467 l 0
0 800 m 0
 333 800 l 0
 333 467 l 0
 0 467 l 0
 0 800 l 0
EndSplineSet
EndChar

StartChar: glyph410
Encoding: 410 410 410
Width: 1000
LayerCount: 2
Fore
SplineSet
666 134 m 0
 999 134 l 0
 999 -199 l 0
 666 -199 l 0
 666 134 l 0
333 134 m 0
 666 134 l 0
 666 -199 l 0
 333 -199 l 0
 333 134 l 0
333 467 m 0
 666 467 l 0
 666 134 l 0
 333 134 l 0
 333 467 l 0
0 467 m 0
 333 467 l 0
 333 134 l 0
 0 134 l 0
 0 467 l 0
333 800 m 0
 666 800 l 0
 666 467 l 0
 333 467 l 0
 333 800 l 0
EndSplineSet
EndChar

StartChar: glyph411
Encoding: 411 411 411
Width: 1000
LayerCount: 2
Fore
SplineSet
666 134 m 0
 999 134 l 0
 999 -199 l 0
 666 -199 l 0
 666 134 l 0
333 134 m 0
 666 134 l 0
 666 -199 l 0
 333 -199 l 0
 333 134 l 0
333 467 m 0
 666 467 l 0
 666 134 l 0
 333 134 l 0
 333 467 l 0
0 467 m 0
 333 467 l 0
 333 134 l 0
 0 134 l 0
 0 467 l 0
333 800 m 0
 666 800 l 0
 666 467 l 0
 333 467 l 0
 333 800 l 0
0 800 m 0
 333 800 l 0
 333 467 l 0
 0 467 l 0
 0 800 l 0
EndSplineSet
EndChar

StartChar: glyph412
Encoding: 412 412 412
Width: 1000
LayerCount: 2
Fore
SplineSet
666 134 m 0
 999 134 l 0
 999 -199 l 0
 666 -199 l 0
 666 134 l 0
333 134 m 0
 666 134 l 0
 666 -199 l 0
 333 -199 l 0
 333 134 l 0
333 467 m 0
 666 467 l 0
 666 134 l 0
 333 134 l 0
 333 467 l 0
0 467 m 0
 333 467 l 0
 333 134 l 0
 0 134 l 0
 0 467 l 0
666 800 m 0
 999 800 l 0
 999 467 l 0
 666 467 l 0
 666 800 l 0
EndSplineSet
EndChar

StartChar: glyph413
Encoding: 413 413 413
Width: 1000
LayerCount: 2
Fore
SplineSet
666 134 m 0
 999 134 l 0
 999 -199 l 0
 666 -199 l 0
 666 134 l 0
333 134 m 0
 666 134 l 0
 666 -199 l 0
 333 -199 l 0
 333 134 l 0
333 467 m 0
 666 467 l 0
 666 134 l 0
 333 134 l 0
 333 467 l 0
0 467 m 0
 333 467 l 0
 333 134 l 0
 0 134 l 0
 0 467 l 0
666 800 m 0
 999 800 l 0
 999 467 l 0
 666 467 l 0
 666 800 l 0
0 800 m 0
 333 800 l 0
 333 467 l 0
 0 467 l 0
 0 800 l 0
EndSplineSet
EndChar

StartChar: glyph414
Encoding: 414 414 414
Width: 1000
LayerCount: 2
Fore
SplineSet
666 134 m 0
 999 134 l 0
 999 -199 l 0
 666 -199 l 0
 666 134 l 0
333 134 m 0
 666 134 l 0
 666 -199 l 0
 333 -199 l 0
 333 134 l 0
333 467 m 0
 666 467 l 0
 666 134 l 0
 333 134 l 0
 333 467 l 0
0 467 m 0
 333 467 l 0
 333 134 l 0
 0 134 l 0
 0 467 l 0
666 800 m 0
 999 800 l 0
 999 467 l 0
 666 467 l 0
 666 800 l 0
333 800 m 0
 666 800 l 0
 666 467 l 0
 333 467 l 0
 333 800 l 0
EndSplineSet
EndChar

StartChar: glyph415
Encoding: 415 415 415
Width: 1000
LayerCount: 2
Fore
SplineSet
666 134 m 0
 999 134 l 0
 999 -199 l 0
 666 -199 l 0
 666 134 l 0
333 134 m 0
 666 134 l 0
 666 -199 l 0
 333 -199 l 0
 333 134 l 0
333 467 m 0
 666 467 l 0
 666 134 l 0
 333 134 l 0
 333 467 l 0
0 467 m 0
 333 467 l 0
 333 134 l 0
 0 134 l 0
 0 467 l 0
666 800 m 0
 999 800 l 0
 999 467 l 0
 666 467 l 0
 666 800 l 0
333 800 m 0
 666 800 l 0
 666 467 l 0
 333 467 l 0
 333 800 l 0
0 800 m 0
 333 800 l 0
 333 467 l 0
 0 467 l 0
 0 800 l 0
EndSplineSet
EndChar

StartChar: glyph416
Encoding: 416 416 416
Width: 1000
LayerCount: 2
Fore
SplineSet
666 134 m 0
 999 134 l 0
 999 -199 l 0
 666 -199 l 0
 666 134 l 0
333 134 m 0
 666 134 l 0
 666 -199 l 0
 333 -199 l 0
 333 134 l 0
666 467 m 0
 999 467 l 0
 999 134 l 0
 666 134 l 0
 666 467 l 0
EndSplineSet
EndChar

StartChar: glyph417
Encoding: 417 417 417
Width: 1000
LayerCount: 2
Fore
SplineSet
666 134 m 0
 999 134 l 0
 999 -199 l 0
 666 -199 l 0
 666 134 l 0
333 134 m 0
 666 134 l 0
 666 -199 l 0
 333 -199 l 0
 333 134 l 0
666 467 m 0
 999 467 l 0
 999 134 l 0
 666 134 l 0
 666 467 l 0
0 800 m 0
 333 800 l 0
 333 467 l 0
 0 467 l 0
 0 800 l 0
EndSplineSet
EndChar

StartChar: glyph418
Encoding: 418 418 418
Width: 1000
LayerCount: 2
Fore
SplineSet
666 134 m 0
 999 134 l 0
 999 -199 l 0
 666 -199 l 0
 666 134 l 0
333 134 m 0
 666 134 l 0
 666 -199 l 0
 333 -199 l 0
 333 134 l 0
666 467 m 0
 999 467 l 0
 999 134 l 0
 666 134 l 0
 666 467 l 0
333 800 m 0
 666 800 l 0
 666 467 l 0
 333 467 l 0
 333 800 l 0
EndSplineSet
EndChar

StartChar: glyph419
Encoding: 419 419 419
Width: 1000
LayerCount: 2
Fore
SplineSet
666 134 m 0
 999 134 l 0
 999 -199 l 0
 666 -199 l 0
 666 134 l 0
333 134 m 0
 666 134 l 0
 666 -199 l 0
 333 -199 l 0
 333 134 l 0
666 467 m 0
 999 467 l 0
 999 134 l 0
 666 134 l 0
 666 467 l 0
333 800 m 0
 666 800 l 0
 666 467 l 0
 333 467 l 0
 333 800 l 0
0 800 m 0
 333 800 l 0
 333 467 l 0
 0 467 l 0
 0 800 l 0
EndSplineSet
EndChar

StartChar: glyph420
Encoding: 420 420 420
Width: 1000
LayerCount: 2
Fore
SplineSet
666 134 m 0
 999 134 l 0
 999 -199 l 0
 666 -199 l 0
 666 134 l 0
333 134 m 0
 666 134 l 0
 666 -199 l 0
 333 -199 l 0
 333 134 l 0
666 467 m 0
 999 467 l 0
 999 134 l 0
 666 134 l 0
 666 467 l 0
666 800 m 0
 999 800 l 0
 999 467 l 0
 666 467 l 0
 666 800 l 0
EndSplineSet
EndChar

StartChar: glyph421
Encoding: 421 421 421
Width: 1000
LayerCount: 2
Fore
SplineSet
666 134 m 0
 999 134 l 0
 999 -199 l 0
 666 -199 l 0
 666 134 l 0
333 134 m 0
 666 134 l 0
 666 -199 l 0
 333 -199 l 0
 333 134 l 0
666 467 m 0
 999 467 l 0
 999 134 l 0
 666 134 l 0
 666 467 l 0
666 800 m 0
 999 800 l 0
 999 467 l 0
 666 467 l 0
 666 800 l 0
0 800 m 0
 333 800 l 0
 333 467 l 0
 0 467 l 0
 0 800 l 0
EndSplineSet
EndChar

StartChar: glyph422
Encoding: 422 422 422
Width: 1000
LayerCount: 2
Fore
SplineSet
666 134 m 0
 999 134 l 0
 999 -199 l 0
 666 -199 l 0
 666 134 l 0
333 134 m 0
 666 134 l 0
 666 -199 l 0
 333 -199 l 0
 333 134 l 0
666 467 m 0
 999 467 l 0
 999 134 l 0
 666 134 l 0
 666 467 l 0
666 800 m 0
 999 800 l 0
 999 467 l 0
 666 467 l 0
 666 800 l 0
333 800 m 0
 666 800 l 0
 666 467 l 0
 333 467 l 0
 333 800 l 0
EndSplineSet
EndChar

StartChar: glyph423
Encoding: 423 423 423
Width: 1000
LayerCount: 2
Fore
SplineSet
666 134 m 0
 999 134 l 0
 999 -199 l 0
 666 -199 l 0
 666 134 l 0
333 134 m 0
 666 134 l 0
 666 -199 l 0
 333 -199 l 0
 333 134 l 0
666 467 m 0
 999 467 l 0
 999 134 l 0
 666 134 l 0
 666 467 l 0
666 800 m 0
 999 800 l 0
 999 467 l 0
 666 467 l 0
 666 800 l 0
333 800 m 0
 666 800 l 0
 666 467 l 0
 333 467 l 0
 333 800 l 0
0 800 m 0
 333 800 l 0
 333 467 l 0
 0 467 l 0
 0 800 l 0
EndSplineSet
EndChar

StartChar: glyph424
Encoding: 424 424 424
Width: 1000
LayerCount: 2
Fore
SplineSet
666 134 m 0
 999 134 l 0
 999 -199 l 0
 666 -199 l 0
 666 134 l 0
333 134 m 0
 666 134 l 0
 666 -199 l 0
 333 -199 l 0
 333 134 l 0
666 467 m 0
 999 467 l 0
 999 134 l 0
 666 134 l 0
 666 467 l 0
0 467 m 0
 333 467 l 0
 333 134 l 0
 0 134 l 0
 0 467 l 0
EndSplineSet
EndChar

StartChar: glyph425
Encoding: 425 425 425
Width: 1000
LayerCount: 2
Fore
SplineSet
666 134 m 0
 999 134 l 0
 999 -199 l 0
 666 -199 l 0
 666 134 l 0
333 134 m 0
 666 134 l 0
 666 -199 l 0
 333 -199 l 0
 333 134 l 0
666 467 m 0
 999 467 l 0
 999 134 l 0
 666 134 l 0
 666 467 l 0
0 467 m 0
 333 467 l 0
 333 134 l 0
 0 134 l 0
 0 467 l 0
0 800 m 0
 333 800 l 0
 333 467 l 0
 0 467 l 0
 0 800 l 0
EndSplineSet
EndChar

StartChar: glyph426
Encoding: 426 426 426
Width: 1000
LayerCount: 2
Fore
SplineSet
666 134 m 0
 999 134 l 0
 999 -199 l 0
 666 -199 l 0
 666 134 l 0
333 134 m 0
 666 134 l 0
 666 -199 l 0
 333 -199 l 0
 333 134 l 0
666 467 m 0
 999 467 l 0
 999 134 l 0
 666 134 l 0
 666 467 l 0
0 467 m 0
 333 467 l 0
 333 134 l 0
 0 134 l 0
 0 467 l 0
333 800 m 0
 666 800 l 0
 666 467 l 0
 333 467 l 0
 333 800 l 0
EndSplineSet
EndChar

StartChar: glyph427
Encoding: 427 427 427
Width: 1000
LayerCount: 2
Fore
SplineSet
666 134 m 0
 999 134 l 0
 999 -199 l 0
 666 -199 l 0
 666 134 l 0
333 134 m 0
 666 134 l 0
 666 -199 l 0
 333 -199 l 0
 333 134 l 0
666 467 m 0
 999 467 l 0
 999 134 l 0
 666 134 l 0
 666 467 l 0
0 467 m 0
 333 467 l 0
 333 134 l 0
 0 134 l 0
 0 467 l 0
333 800 m 0
 666 800 l 0
 666 467 l 0
 333 467 l 0
 333 800 l 0
0 800 m 0
 333 800 l 0
 333 467 l 0
 0 467 l 0
 0 800 l 0
EndSplineSet
EndChar

StartChar: glyph428
Encoding: 428 428 428
Width: 1000
LayerCount: 2
Fore
SplineSet
666 134 m 0
 999 134 l 0
 999 -199 l 0
 666 -199 l 0
 666 134 l 0
333 134 m 0
 666 134 l 0
 666 -199 l 0
 333 -199 l 0
 333 134 l 0
666 467 m 0
 999 467 l 0
 999 134 l 0
 666 134 l 0
 666 467 l 0
0 467 m 0
 333 467 l 0
 333 134 l 0
 0 134 l 0
 0 467 l 0
666 800 m 0
 999 800 l 0
 999 467 l 0
 666 467 l 0
 666 800 l 0
EndSplineSet
EndChar

StartChar: glyph429
Encoding: 429 429 429
Width: 1000
LayerCount: 2
Fore
SplineSet
666 134 m 0
 999 134 l 0
 999 -199 l 0
 666 -199 l 0
 666 134 l 0
333 134 m 0
 666 134 l 0
 666 -199 l 0
 333 -199 l 0
 333 134 l 0
666 467 m 0
 999 467 l 0
 999 134 l 0
 666 134 l 0
 666 467 l 0
0 467 m 0
 333 467 l 0
 333 134 l 0
 0 134 l 0
 0 467 l 0
666 800 m 0
 999 800 l 0
 999 467 l 0
 666 467 l 0
 666 800 l 0
0 800 m 0
 333 800 l 0
 333 467 l 0
 0 467 l 0
 0 800 l 0
EndSplineSet
EndChar

StartChar: glyph430
Encoding: 430 430 430
Width: 1000
LayerCount: 2
Fore
SplineSet
666 134 m 0
 999 134 l 0
 999 -199 l 0
 666 -199 l 0
 666 134 l 0
333 134 m 0
 666 134 l 0
 666 -199 l 0
 333 -199 l 0
 333 134 l 0
666 467 m 0
 999 467 l 0
 999 134 l 0
 666 134 l 0
 666 467 l 0
0 467 m 0
 333 467 l 0
 333 134 l 0
 0 134 l 0
 0 467 l 0
666 800 m 0
 999 800 l 0
 999 467 l 0
 666 467 l 0
 666 800 l 0
333 800 m 0
 666 800 l 0
 666 467 l 0
 333 467 l 0
 333 800 l 0
EndSplineSet
EndChar

StartChar: glyph431
Encoding: 431 431 431
Width: 1000
LayerCount: 2
Fore
SplineSet
666 134 m 0
 999 134 l 0
 999 -199 l 0
 666 -199 l 0
 666 134 l 0
333 134 m 0
 666 134 l 0
 666 -199 l 0
 333 -199 l 0
 333 134 l 0
666 467 m 0
 999 467 l 0
 999 134 l 0
 666 134 l 0
 666 467 l 0
0 467 m 0
 333 467 l 0
 333 134 l 0
 0 134 l 0
 0 467 l 0
666 800 m 0
 999 800 l 0
 999 467 l 0
 666 467 l 0
 666 800 l 0
333 800 m 0
 666 800 l 0
 666 467 l 0
 333 467 l 0
 333 800 l 0
0 800 m 0
 333 800 l 0
 333 467 l 0
 0 467 l 0
 0 800 l 0
EndSplineSet
EndChar

StartChar: glyph432
Encoding: 432 432 432
Width: 1000
LayerCount: 2
Fore
SplineSet
666 134 m 0
 999 134 l 0
 999 -199 l 0
 666 -199 l 0
 666 134 l 0
333 134 m 0
 666 134 l 0
 666 -199 l 0
 333 -199 l 0
 333 134 l 0
666 467 m 0
 999 467 l 0
 999 134 l 0
 666 134 l 0
 666 467 l 0
333 467 m 0
 666 467 l 0
 666 134 l 0
 333 134 l 0
 333 467 l 0
EndSplineSet
EndChar

StartChar: glyph433
Encoding: 433 433 433
Width: 1000
LayerCount: 2
Fore
SplineSet
666 134 m 0
 999 134 l 0
 999 -199 l 0
 666 -199 l 0
 666 134 l 0
333 134 m 0
 666 134 l 0
 666 -199 l 0
 333 -199 l 0
 333 134 l 0
666 467 m 0
 999 467 l 0
 999 134 l 0
 666 134 l 0
 666 467 l 0
333 467 m 0
 666 467 l 0
 666 134 l 0
 333 134 l 0
 333 467 l 0
0 800 m 0
 333 800 l 0
 333 467 l 0
 0 467 l 0
 0 800 l 0
EndSplineSet
EndChar

StartChar: glyph434
Encoding: 434 434 434
Width: 1000
LayerCount: 2
Fore
SplineSet
666 134 m 0
 999 134 l 0
 999 -199 l 0
 666 -199 l 0
 666 134 l 0
333 134 m 0
 666 134 l 0
 666 -199 l 0
 333 -199 l 0
 333 134 l 0
666 467 m 0
 999 467 l 0
 999 134 l 0
 666 134 l 0
 666 467 l 0
333 467 m 0
 666 467 l 0
 666 134 l 0
 333 134 l 0
 333 467 l 0
333 800 m 0
 666 800 l 0
 666 467 l 0
 333 467 l 0
 333 800 l 0
EndSplineSet
EndChar

StartChar: glyph435
Encoding: 435 435 435
Width: 1000
LayerCount: 2
Fore
SplineSet
666 134 m 0
 999 134 l 0
 999 -199 l 0
 666 -199 l 0
 666 134 l 0
333 134 m 0
 666 134 l 0
 666 -199 l 0
 333 -199 l 0
 333 134 l 0
666 467 m 0
 999 467 l 0
 999 134 l 0
 666 134 l 0
 666 467 l 0
333 467 m 0
 666 467 l 0
 666 134 l 0
 333 134 l 0
 333 467 l 0
333 800 m 0
 666 800 l 0
 666 467 l 0
 333 467 l 0
 333 800 l 0
0 800 m 0
 333 800 l 0
 333 467 l 0
 0 467 l 0
 0 800 l 0
EndSplineSet
EndChar

StartChar: glyph436
Encoding: 436 436 436
Width: 1000
LayerCount: 2
Fore
SplineSet
666 134 m 0
 999 134 l 0
 999 -199 l 0
 666 -199 l 0
 666 134 l 0
333 134 m 0
 666 134 l 0
 666 -199 l 0
 333 -199 l 0
 333 134 l 0
666 467 m 0
 999 467 l 0
 999 134 l 0
 666 134 l 0
 666 467 l 0
333 467 m 0
 666 467 l 0
 666 134 l 0
 333 134 l 0
 333 467 l 0
666 800 m 0
 999 800 l 0
 999 467 l 0
 666 467 l 0
 666 800 l 0
EndSplineSet
EndChar

StartChar: glyph437
Encoding: 437 437 437
Width: 1000
LayerCount: 2
Fore
SplineSet
666 134 m 0
 999 134 l 0
 999 -199 l 0
 666 -199 l 0
 666 134 l 0
333 134 m 0
 666 134 l 0
 666 -199 l 0
 333 -199 l 0
 333 134 l 0
666 467 m 0
 999 467 l 0
 999 134 l 0
 666 134 l 0
 666 467 l 0
333 467 m 0
 666 467 l 0
 666 134 l 0
 333 134 l 0
 333 467 l 0
666 800 m 0
 999 800 l 0
 999 467 l 0
 666 467 l 0
 666 800 l 0
0 800 m 0
 333 800 l 0
 333 467 l 0
 0 467 l 0
 0 800 l 0
EndSplineSet
EndChar

StartChar: glyph438
Encoding: 438 438 438
Width: 1000
LayerCount: 2
Fore
SplineSet
666 134 m 0
 999 134 l 0
 999 -199 l 0
 666 -199 l 0
 666 134 l 0
333 134 m 0
 666 134 l 0
 666 -199 l 0
 333 -199 l 0
 333 134 l 0
666 467 m 0
 999 467 l 0
 999 134 l 0
 666 134 l 0
 666 467 l 0
333 467 m 0
 666 467 l 0
 666 134 l 0
 333 134 l 0
 333 467 l 0
666 800 m 0
 999 800 l 0
 999 467 l 0
 666 467 l 0
 666 800 l 0
333 800 m 0
 666 800 l 0
 666 467 l 0
 333 467 l 0
 333 800 l 0
EndSplineSet
EndChar

StartChar: glyph439
Encoding: 439 439 439
Width: 1000
LayerCount: 2
Fore
SplineSet
666 134 m 0
 999 134 l 0
 999 -199 l 0
 666 -199 l 0
 666 134 l 0
333 134 m 0
 666 134 l 0
 666 -199 l 0
 333 -199 l 0
 333 134 l 0
666 467 m 0
 999 467 l 0
 999 134 l 0
 666 134 l 0
 666 467 l 0
333 467 m 0
 666 467 l 0
 666 134 l 0
 333 134 l 0
 333 467 l 0
666 800 m 0
 999 800 l 0
 999 467 l 0
 666 467 l 0
 666 800 l 0
333 800 m 0
 666 800 l 0
 666 467 l 0
 333 467 l 0
 333 800 l 0
0 800 m 0
 333 800 l 0
 333 467 l 0
 0 467 l 0
 0 800 l 0
EndSplineSet
EndChar

StartChar: glyph440
Encoding: 440 440 440
Width: 1000
LayerCount: 2
Fore
SplineSet
666 134 m 0
 999 134 l 0
 999 -199 l 0
 666 -199 l 0
 666 134 l 0
333 134 m 0
 666 134 l 0
 666 -199 l 0
 333 -199 l 0
 333 134 l 0
666 467 m 0
 999 467 l 0
 999 134 l 0
 666 134 l 0
 666 467 l 0
333 467 m 0
 666 467 l 0
 666 134 l 0
 333 134 l 0
 333 467 l 0
0 467 m 0
 333 467 l 0
 333 134 l 0
 0 134 l 0
 0 467 l 0
EndSplineSet
EndChar

StartChar: glyph441
Encoding: 441 441 441
Width: 1000
LayerCount: 2
Fore
SplineSet
666 134 m 0
 999 134 l 0
 999 -199 l 0
 666 -199 l 0
 666 134 l 0
333 134 m 0
 666 134 l 0
 666 -199 l 0
 333 -199 l 0
 333 134 l 0
666 467 m 0
 999 467 l 0
 999 134 l 0
 666 134 l 0
 666 467 l 0
333 467 m 0
 666 467 l 0
 666 134 l 0
 333 134 l 0
 333 467 l 0
0 467 m 0
 333 467 l 0
 333 134 l 0
 0 134 l 0
 0 467 l 0
0 800 m 0
 333 800 l 0
 333 467 l 0
 0 467 l 0
 0 800 l 0
EndSplineSet
EndChar

StartChar: glyph442
Encoding: 442 442 442
Width: 1000
LayerCount: 2
Fore
SplineSet
666 134 m 0
 999 134 l 0
 999 -199 l 0
 666 -199 l 0
 666 134 l 0
333 134 m 0
 666 134 l 0
 666 -199 l 0
 333 -199 l 0
 333 134 l 0
666 467 m 0
 999 467 l 0
 999 134 l 0
 666 134 l 0
 666 467 l 0
333 467 m 0
 666 467 l 0
 666 134 l 0
 333 134 l 0
 333 467 l 0
0 467 m 0
 333 467 l 0
 333 134 l 0
 0 134 l 0
 0 467 l 0
333 800 m 0
 666 800 l 0
 666 467 l 0
 333 467 l 0
 333 800 l 0
EndSplineSet
EndChar

StartChar: glyph443
Encoding: 443 443 443
Width: 1000
LayerCount: 2
Fore
SplineSet
666 134 m 0
 999 134 l 0
 999 -199 l 0
 666 -199 l 0
 666 134 l 0
333 134 m 0
 666 134 l 0
 666 -199 l 0
 333 -199 l 0
 333 134 l 0
666 467 m 0
 999 467 l 0
 999 134 l 0
 666 134 l 0
 666 467 l 0
333 467 m 0
 666 467 l 0
 666 134 l 0
 333 134 l 0
 333 467 l 0
0 467 m 0
 333 467 l 0
 333 134 l 0
 0 134 l 0
 0 467 l 0
333 800 m 0
 666 800 l 0
 666 467 l 0
 333 467 l 0
 333 800 l 0
0 800 m 0
 333 800 l 0
 333 467 l 0
 0 467 l 0
 0 800 l 0
EndSplineSet
EndChar

StartChar: glyph444
Encoding: 444 444 444
Width: 1000
LayerCount: 2
Fore
SplineSet
666 134 m 0
 999 134 l 0
 999 -199 l 0
 666 -199 l 0
 666 134 l 0
333 134 m 0
 666 134 l 0
 666 -199 l 0
 333 -199 l 0
 333 134 l 0
666 467 m 0
 999 467 l 0
 999 134 l 0
 666 134 l 0
 666 467 l 0
333 467 m 0
 666 467 l 0
 666 134 l 0
 333 134 l 0
 333 467 l 0
0 467 m 0
 333 467 l 0
 333 134 l 0
 0 134 l 0
 0 467 l 0
666 800 m 0
 999 800 l 0
 999 467 l 0
 666 467 l 0
 666 800 l 0
EndSplineSet
EndChar

StartChar: glyph445
Encoding: 445 445 445
Width: 1000
LayerCount: 2
Fore
SplineSet
666 134 m 0
 999 134 l 0
 999 -199 l 0
 666 -199 l 0
 666 134 l 0
333 134 m 0
 666 134 l 0
 666 -199 l 0
 333 -199 l 0
 333 134 l 0
666 467 m 0
 999 467 l 0
 999 134 l 0
 666 134 l 0
 666 467 l 0
333 467 m 0
 666 467 l 0
 666 134 l 0
 333 134 l 0
 333 467 l 0
0 467 m 0
 333 467 l 0
 333 134 l 0
 0 134 l 0
 0 467 l 0
666 800 m 0
 999 800 l 0
 999 467 l 0
 666 467 l 0
 666 800 l 0
0 800 m 0
 333 800 l 0
 333 467 l 0
 0 467 l 0
 0 800 l 0
EndSplineSet
EndChar

StartChar: glyph446
Encoding: 446 446 446
Width: 1000
LayerCount: 2
Fore
SplineSet
666 134 m 0
 999 134 l 0
 999 -199 l 0
 666 -199 l 0
 666 134 l 0
333 134 m 0
 666 134 l 0
 666 -199 l 0
 333 -199 l 0
 333 134 l 0
666 467 m 0
 999 467 l 0
 999 134 l 0
 666 134 l 0
 666 467 l 0
333 467 m 0
 666 467 l 0
 666 134 l 0
 333 134 l 0
 333 467 l 0
0 467 m 0
 333 467 l 0
 333 134 l 0
 0 134 l 0
 0 467 l 0
666 800 m 0
 999 800 l 0
 999 467 l 0
 666 467 l 0
 666 800 l 0
333 800 m 0
 666 800 l 0
 666 467 l 0
 333 467 l 0
 333 800 l 0
EndSplineSet
EndChar

StartChar: glyph447
Encoding: 447 447 447
Width: 1000
LayerCount: 2
Fore
SplineSet
666 134 m 0
 999 134 l 0
 999 -199 l 0
 666 -199 l 0
 666 134 l 0
333 134 m 0
 666 134 l 0
 666 -199 l 0
 333 -199 l 0
 333 134 l 0
666 467 m 0
 999 467 l 0
 999 134 l 0
 666 134 l 0
 666 467 l 0
333 467 m 0
 666 467 l 0
 666 134 l 0
 333 134 l 0
 333 467 l 0
0 467 m 0
 333 467 l 0
 333 134 l 0
 0 134 l 0
 0 467 l 0
666 800 m 0
 999 800 l 0
 999 467 l 0
 666 467 l 0
 666 800 l 0
333 800 m 0
 666 800 l 0
 666 467 l 0
 333 467 l 0
 333 800 l 0
0 800 m 0
 333 800 l 0
 333 467 l 0
 0 467 l 0
 0 800 l 0
EndSplineSet
EndChar

StartChar: glyph448
Encoding: 448 448 448
Width: 1000
LayerCount: 2
Fore
SplineSet
666 134 m 0
 999 134 l 0
 999 -199 l 0
 666 -199 l 0
 666 134 l 0
333 134 m 0
 666 134 l 0
 666 -199 l 0
 333 -199 l 0
 333 134 l 0
0 134 m 0
 333 134 l 0
 333 -199 l 0
 0 -199 l 0
 0 134 l 0
EndSplineSet
EndChar

StartChar: glyph449
Encoding: 449 449 449
Width: 1000
LayerCount: 2
Fore
SplineSet
666 134 m 0
 999 134 l 0
 999 -199 l 0
 666 -199 l 0
 666 134 l 0
333 134 m 0
 666 134 l 0
 666 -199 l 0
 333 -199 l 0
 333 134 l 0
0 134 m 0
 333 134 l 0
 333 -199 l 0
 0 -199 l 0
 0 134 l 0
0 800 m 0
 333 800 l 0
 333 467 l 0
 0 467 l 0
 0 800 l 0
EndSplineSet
EndChar

StartChar: glyph450
Encoding: 450 450 450
Width: 1000
LayerCount: 2
Fore
SplineSet
666 134 m 0
 999 134 l 0
 999 -199 l 0
 666 -199 l 0
 666 134 l 0
333 134 m 0
 666 134 l 0
 666 -199 l 0
 333 -199 l 0
 333 134 l 0
0 134 m 0
 333 134 l 0
 333 -199 l 0
 0 -199 l 0
 0 134 l 0
333 800 m 0
 666 800 l 0
 666 467 l 0
 333 467 l 0
 333 800 l 0
EndSplineSet
EndChar

StartChar: glyph451
Encoding: 451 451 451
Width: 1000
LayerCount: 2
Fore
SplineSet
666 134 m 0
 999 134 l 0
 999 -199 l 0
 666 -199 l 0
 666 134 l 0
333 134 m 0
 666 134 l 0
 666 -199 l 0
 333 -199 l 0
 333 134 l 0
0 134 m 0
 333 134 l 0
 333 -199 l 0
 0 -199 l 0
 0 134 l 0
333 800 m 0
 666 800 l 0
 666 467 l 0
 333 467 l 0
 333 800 l 0
0 800 m 0
 333 800 l 0
 333 467 l 0
 0 467 l 0
 0 800 l 0
EndSplineSet
EndChar

StartChar: glyph452
Encoding: 452 452 452
Width: 1000
LayerCount: 2
Fore
SplineSet
666 134 m 0
 999 134 l 0
 999 -199 l 0
 666 -199 l 0
 666 134 l 0
333 134 m 0
 666 134 l 0
 666 -199 l 0
 333 -199 l 0
 333 134 l 0
0 134 m 0
 333 134 l 0
 333 -199 l 0
 0 -199 l 0
 0 134 l 0
666 800 m 0
 999 800 l 0
 999 467 l 0
 666 467 l 0
 666 800 l 0
EndSplineSet
EndChar

StartChar: glyph453
Encoding: 453 453 453
Width: 1000
LayerCount: 2
Fore
SplineSet
666 134 m 0
 999 134 l 0
 999 -199 l 0
 666 -199 l 0
 666 134 l 0
333 134 m 0
 666 134 l 0
 666 -199 l 0
 333 -199 l 0
 333 134 l 0
0 134 m 0
 333 134 l 0
 333 -199 l 0
 0 -199 l 0
 0 134 l 0
666 800 m 0
 999 800 l 0
 999 467 l 0
 666 467 l 0
 666 800 l 0
0 800 m 0
 333 800 l 0
 333 467 l 0
 0 467 l 0
 0 800 l 0
EndSplineSet
EndChar

StartChar: glyph454
Encoding: 454 454 454
Width: 1000
LayerCount: 2
Fore
SplineSet
666 134 m 0
 999 134 l 0
 999 -199 l 0
 666 -199 l 0
 666 134 l 0
333 134 m 0
 666 134 l 0
 666 -199 l 0
 333 -199 l 0
 333 134 l 0
0 134 m 0
 333 134 l 0
 333 -199 l 0
 0 -199 l 0
 0 134 l 0
666 800 m 0
 999 800 l 0
 999 467 l 0
 666 467 l 0
 666 800 l 0
333 800 m 0
 666 800 l 0
 666 467 l 0
 333 467 l 0
 333 800 l 0
EndSplineSet
EndChar

StartChar: glyph455
Encoding: 455 455 455
Width: 1000
LayerCount: 2
Fore
SplineSet
666 134 m 0
 999 134 l 0
 999 -199 l 0
 666 -199 l 0
 666 134 l 0
333 134 m 0
 666 134 l 0
 666 -199 l 0
 333 -199 l 0
 333 134 l 0
0 134 m 0
 333 134 l 0
 333 -199 l 0
 0 -199 l 0
 0 134 l 0
666 800 m 0
 999 800 l 0
 999 467 l 0
 666 467 l 0
 666 800 l 0
333 800 m 0
 666 800 l 0
 666 467 l 0
 333 467 l 0
 333 800 l 0
0 800 m 0
 333 800 l 0
 333 467 l 0
 0 467 l 0
 0 800 l 0
EndSplineSet
EndChar

StartChar: glyph456
Encoding: 456 456 456
Width: 1000
LayerCount: 2
Fore
SplineSet
666 134 m 0
 999 134 l 0
 999 -199 l 0
 666 -199 l 0
 666 134 l 0
333 134 m 0
 666 134 l 0
 666 -199 l 0
 333 -199 l 0
 333 134 l 0
0 134 m 0
 333 134 l 0
 333 -199 l 0
 0 -199 l 0
 0 134 l 0
0 467 m 0
 333 467 l 0
 333 134 l 0
 0 134 l 0
 0 467 l 0
EndSplineSet
EndChar

StartChar: glyph457
Encoding: 457 457 457
Width: 1000
LayerCount: 2
Fore
SplineSet
666 134 m 0
 999 134 l 0
 999 -199 l 0
 666 -199 l 0
 666 134 l 0
333 134 m 0
 666 134 l 0
 666 -199 l 0
 333 -199 l 0
 333 134 l 0
0 134 m 0
 333 134 l 0
 333 -199 l 0
 0 -199 l 0
 0 134 l 0
0 467 m 0
 333 467 l 0
 333 134 l 0
 0 134 l 0
 0 467 l 0
0 800 m 0
 333 800 l 0
 333 467 l 0
 0 467 l 0
 0 800 l 0
EndSplineSet
EndChar

StartChar: glyph458
Encoding: 458 458 458
Width: 1000
LayerCount: 2
Fore
SplineSet
666 134 m 0
 999 134 l 0
 999 -199 l 0
 666 -199 l 0
 666 134 l 0
333 134 m 0
 666 134 l 0
 666 -199 l 0
 333 -199 l 0
 333 134 l 0
0 134 m 0
 333 134 l 0
 333 -199 l 0
 0 -199 l 0
 0 134 l 0
0 467 m 0
 333 467 l 0
 333 134 l 0
 0 134 l 0
 0 467 l 0
333 800 m 0
 666 800 l 0
 666 467 l 0
 333 467 l 0
 333 800 l 0
EndSplineSet
EndChar

StartChar: glyph459
Encoding: 459 459 459
Width: 1000
LayerCount: 2
Fore
SplineSet
666 134 m 0
 999 134 l 0
 999 -199 l 0
 666 -199 l 0
 666 134 l 0
333 134 m 0
 666 134 l 0
 666 -199 l 0
 333 -199 l 0
 333 134 l 0
0 134 m 0
 333 134 l 0
 333 -199 l 0
 0 -199 l 0
 0 134 l 0
0 467 m 0
 333 467 l 0
 333 134 l 0
 0 134 l 0
 0 467 l 0
333 800 m 0
 666 800 l 0
 666 467 l 0
 333 467 l 0
 333 800 l 0
0 800 m 0
 333 800 l 0
 333 467 l 0
 0 467 l 0
 0 800 l 0
EndSplineSet
EndChar

StartChar: glyph460
Encoding: 460 460 460
Width: 1000
LayerCount: 2
Fore
SplineSet
666 134 m 0
 999 134 l 0
 999 -199 l 0
 666 -199 l 0
 666 134 l 0
333 134 m 0
 666 134 l 0
 666 -199 l 0
 333 -199 l 0
 333 134 l 0
0 134 m 0
 333 134 l 0
 333 -199 l 0
 0 -199 l 0
 0 134 l 0
0 467 m 0
 333 467 l 0
 333 134 l 0
 0 134 l 0
 0 467 l 0
666 800 m 0
 999 800 l 0
 999 467 l 0
 666 467 l 0
 666 800 l 0
EndSplineSet
EndChar

StartChar: glyph461
Encoding: 461 461 461
Width: 1000
LayerCount: 2
Fore
SplineSet
666 134 m 0
 999 134 l 0
 999 -199 l 0
 666 -199 l 0
 666 134 l 0
333 134 m 0
 666 134 l 0
 666 -199 l 0
 333 -199 l 0
 333 134 l 0
0 134 m 0
 333 134 l 0
 333 -199 l 0
 0 -199 l 0
 0 134 l 0
0 467 m 0
 333 467 l 0
 333 134 l 0
 0 134 l 0
 0 467 l 0
666 800 m 0
 999 800 l 0
 999 467 l 0
 666 467 l 0
 666 800 l 0
0 800 m 0
 333 800 l 0
 333 467 l 0
 0 467 l 0
 0 800 l 0
EndSplineSet
EndChar

StartChar: glyph462
Encoding: 462 462 462
Width: 1000
LayerCount: 2
Fore
SplineSet
666 134 m 0
 999 134 l 0
 999 -199 l 0
 666 -199 l 0
 666 134 l 0
333 134 m 0
 666 134 l 0
 666 -199 l 0
 333 -199 l 0
 333 134 l 0
0 134 m 0
 333 134 l 0
 333 -199 l 0
 0 -199 l 0
 0 134 l 0
0 467 m 0
 333 467 l 0
 333 134 l 0
 0 134 l 0
 0 467 l 0
666 800 m 0
 999 800 l 0
 999 467 l 0
 666 467 l 0
 666 800 l 0
333 800 m 0
 666 800 l 0
 666 467 l 0
 333 467 l 0
 333 800 l 0
EndSplineSet
EndChar

StartChar: glyph463
Encoding: 463 463 463
Width: 1000
LayerCount: 2
Fore
SplineSet
666 134 m 0
 999 134 l 0
 999 -199 l 0
 666 -199 l 0
 666 134 l 0
333 134 m 0
 666 134 l 0
 666 -199 l 0
 333 -199 l 0
 333 134 l 0
0 134 m 0
 333 134 l 0
 333 -199 l 0
 0 -199 l 0
 0 134 l 0
0 467 m 0
 333 467 l 0
 333 134 l 0
 0 134 l 0
 0 467 l 0
666 800 m 0
 999 800 l 0
 999 467 l 0
 666 467 l 0
 666 800 l 0
333 800 m 0
 666 800 l 0
 666 467 l 0
 333 467 l 0
 333 800 l 0
0 800 m 0
 333 800 l 0
 333 467 l 0
 0 467 l 0
 0 800 l 0
EndSplineSet
EndChar

StartChar: glyph464
Encoding: 464 464 464
Width: 1000
LayerCount: 2
Fore
SplineSet
666 134 m 0
 999 134 l 0
 999 -199 l 0
 666 -199 l 0
 666 134 l 0
333 134 m 0
 666 134 l 0
 666 -199 l 0
 333 -199 l 0
 333 134 l 0
0 134 m 0
 333 134 l 0
 333 -199 l 0
 0 -199 l 0
 0 134 l 0
333 467 m 0
 666 467 l 0
 666 134 l 0
 333 134 l 0
 333 467 l 0
EndSplineSet
EndChar

StartChar: glyph465
Encoding: 465 465 465
Width: 1000
LayerCount: 2
Fore
SplineSet
666 134 m 0
 999 134 l 0
 999 -199 l 0
 666 -199 l 0
 666 134 l 0
333 134 m 0
 666 134 l 0
 666 -199 l 0
 333 -199 l 0
 333 134 l 0
0 134 m 0
 333 134 l 0
 333 -199 l 0
 0 -199 l 0
 0 134 l 0
333 467 m 0
 666 467 l 0
 666 134 l 0
 333 134 l 0
 333 467 l 0
0 800 m 0
 333 800 l 0
 333 467 l 0
 0 467 l 0
 0 800 l 0
EndSplineSet
EndChar

StartChar: glyph466
Encoding: 466 466 466
Width: 1000
LayerCount: 2
Fore
SplineSet
666 134 m 0
 999 134 l 0
 999 -199 l 0
 666 -199 l 0
 666 134 l 0
333 134 m 0
 666 134 l 0
 666 -199 l 0
 333 -199 l 0
 333 134 l 0
0 134 m 0
 333 134 l 0
 333 -199 l 0
 0 -199 l 0
 0 134 l 0
333 467 m 0
 666 467 l 0
 666 134 l 0
 333 134 l 0
 333 467 l 0
333 800 m 0
 666 800 l 0
 666 467 l 0
 333 467 l 0
 333 800 l 0
EndSplineSet
EndChar

StartChar: glyph467
Encoding: 467 467 467
Width: 1000
LayerCount: 2
Fore
SplineSet
666 134 m 0
 999 134 l 0
 999 -199 l 0
 666 -199 l 0
 666 134 l 0
333 134 m 0
 666 134 l 0
 666 -199 l 0
 333 -199 l 0
 333 134 l 0
0 134 m 0
 333 134 l 0
 333 -199 l 0
 0 -199 l 0
 0 134 l 0
333 467 m 0
 666 467 l 0
 666 134 l 0
 333 134 l 0
 333 467 l 0
333 800 m 0
 666 800 l 0
 666 467 l 0
 333 467 l 0
 333 800 l 0
0 800 m 0
 333 800 l 0
 333 467 l 0
 0 467 l 0
 0 800 l 0
EndSplineSet
EndChar

StartChar: glyph468
Encoding: 468 468 468
Width: 1000
LayerCount: 2
Fore
SplineSet
666 134 m 0
 999 134 l 0
 999 -199 l 0
 666 -199 l 0
 666 134 l 0
333 134 m 0
 666 134 l 0
 666 -199 l 0
 333 -199 l 0
 333 134 l 0
0 134 m 0
 333 134 l 0
 333 -199 l 0
 0 -199 l 0
 0 134 l 0
333 467 m 0
 666 467 l 0
 666 134 l 0
 333 134 l 0
 333 467 l 0
666 800 m 0
 999 800 l 0
 999 467 l 0
 666 467 l 0
 666 800 l 0
EndSplineSet
EndChar

StartChar: glyph469
Encoding: 469 469 469
Width: 1000
LayerCount: 2
Fore
SplineSet
666 134 m 0
 999 134 l 0
 999 -199 l 0
 666 -199 l 0
 666 134 l 0
333 134 m 0
 666 134 l 0
 666 -199 l 0
 333 -199 l 0
 333 134 l 0
0 134 m 0
 333 134 l 0
 333 -199 l 0
 0 -199 l 0
 0 134 l 0
333 467 m 0
 666 467 l 0
 666 134 l 0
 333 134 l 0
 333 467 l 0
666 800 m 0
 999 800 l 0
 999 467 l 0
 666 467 l 0
 666 800 l 0
0 800 m 0
 333 800 l 0
 333 467 l 0
 0 467 l 0
 0 800 l 0
EndSplineSet
EndChar

StartChar: glyph470
Encoding: 470 470 470
Width: 1000
LayerCount: 2
Fore
SplineSet
666 134 m 0
 999 134 l 0
 999 -199 l 0
 666 -199 l 0
 666 134 l 0
333 134 m 0
 666 134 l 0
 666 -199 l 0
 333 -199 l 0
 333 134 l 0
0 134 m 0
 333 134 l 0
 333 -199 l 0
 0 -199 l 0
 0 134 l 0
333 467 m 0
 666 467 l 0
 666 134 l 0
 333 134 l 0
 333 467 l 0
666 800 m 0
 999 800 l 0
 999 467 l 0
 666 467 l 0
 666 800 l 0
333 800 m 0
 666 800 l 0
 666 467 l 0
 333 467 l 0
 333 800 l 0
EndSplineSet
EndChar

StartChar: glyph471
Encoding: 471 471 471
Width: 1000
LayerCount: 2
Fore
SplineSet
666 134 m 0
 999 134 l 0
 999 -199 l 0
 666 -199 l 0
 666 134 l 0
333 134 m 0
 666 134 l 0
 666 -199 l 0
 333 -199 l 0
 333 134 l 0
0 134 m 0
 333 134 l 0
 333 -199 l 0
 0 -199 l 0
 0 134 l 0
333 467 m 0
 666 467 l 0
 666 134 l 0
 333 134 l 0
 333 467 l 0
666 800 m 0
 999 800 l 0
 999 467 l 0
 666 467 l 0
 666 800 l 0
333 800 m 0
 666 800 l 0
 666 467 l 0
 333 467 l 0
 333 800 l 0
0 800 m 0
 333 800 l 0
 333 467 l 0
 0 467 l 0
 0 800 l 0
EndSplineSet
EndChar

StartChar: glyph472
Encoding: 472 472 472
Width: 1000
LayerCount: 2
Fore
SplineSet
666 134 m 0
 999 134 l 0
 999 -199 l 0
 666 -199 l 0
 666 134 l 0
333 134 m 0
 666 134 l 0
 666 -199 l 0
 333 -199 l 0
 333 134 l 0
0 134 m 0
 333 134 l 0
 333 -199 l 0
 0 -199 l 0
 0 134 l 0
333 467 m 0
 666 467 l 0
 666 134 l 0
 333 134 l 0
 333 467 l 0
0 467 m 0
 333 467 l 0
 333 134 l 0
 0 134 l 0
 0 467 l 0
EndSplineSet
EndChar

StartChar: glyph473
Encoding: 473 473 473
Width: 1000
LayerCount: 2
Fore
SplineSet
666 134 m 0
 999 134 l 0
 999 -199 l 0
 666 -199 l 0
 666 134 l 0
333 134 m 0
 666 134 l 0
 666 -199 l 0
 333 -199 l 0
 333 134 l 0
0 134 m 0
 333 134 l 0
 333 -199 l 0
 0 -199 l 0
 0 134 l 0
333 467 m 0
 666 467 l 0
 666 134 l 0
 333 134 l 0
 333 467 l 0
0 467 m 0
 333 467 l 0
 333 134 l 0
 0 134 l 0
 0 467 l 0
0 800 m 0
 333 800 l 0
 333 467 l 0
 0 467 l 0
 0 800 l 0
EndSplineSet
EndChar

StartChar: glyph474
Encoding: 474 474 474
Width: 1000
LayerCount: 2
Fore
SplineSet
666 134 m 0
 999 134 l 0
 999 -199 l 0
 666 -199 l 0
 666 134 l 0
333 134 m 0
 666 134 l 0
 666 -199 l 0
 333 -199 l 0
 333 134 l 0
0 134 m 0
 333 134 l 0
 333 -199 l 0
 0 -199 l 0
 0 134 l 0
333 467 m 0
 666 467 l 0
 666 134 l 0
 333 134 l 0
 333 467 l 0
0 467 m 0
 333 467 l 0
 333 134 l 0
 0 134 l 0
 0 467 l 0
333 800 m 0
 666 800 l 0
 666 467 l 0
 333 467 l 0
 333 800 l 0
EndSplineSet
EndChar

StartChar: glyph475
Encoding: 475 475 475
Width: 1000
LayerCount: 2
Fore
SplineSet
666 134 m 0
 999 134 l 0
 999 -199 l 0
 666 -199 l 0
 666 134 l 0
333 134 m 0
 666 134 l 0
 666 -199 l 0
 333 -199 l 0
 333 134 l 0
0 134 m 0
 333 134 l 0
 333 -199 l 0
 0 -199 l 0
 0 134 l 0
333 467 m 0
 666 467 l 0
 666 134 l 0
 333 134 l 0
 333 467 l 0
0 467 m 0
 333 467 l 0
 333 134 l 0
 0 134 l 0
 0 467 l 0
333 800 m 0
 666 800 l 0
 666 467 l 0
 333 467 l 0
 333 800 l 0
0 800 m 0
 333 800 l 0
 333 467 l 0
 0 467 l 0
 0 800 l 0
EndSplineSet
EndChar

StartChar: glyph476
Encoding: 476 476 476
Width: 1000
LayerCount: 2
Fore
SplineSet
666 134 m 0
 999 134 l 0
 999 -199 l 0
 666 -199 l 0
 666 134 l 0
333 134 m 0
 666 134 l 0
 666 -199 l 0
 333 -199 l 0
 333 134 l 0
0 134 m 0
 333 134 l 0
 333 -199 l 0
 0 -199 l 0
 0 134 l 0
333 467 m 0
 666 467 l 0
 666 134 l 0
 333 134 l 0
 333 467 l 0
0 467 m 0
 333 467 l 0
 333 134 l 0
 0 134 l 0
 0 467 l 0
666 800 m 0
 999 800 l 0
 999 467 l 0
 666 467 l 0
 666 800 l 0
EndSplineSet
EndChar

StartChar: glyph477
Encoding: 477 477 477
Width: 1000
LayerCount: 2
Fore
SplineSet
666 134 m 0
 999 134 l 0
 999 -199 l 0
 666 -199 l 0
 666 134 l 0
333 134 m 0
 666 134 l 0
 666 -199 l 0
 333 -199 l 0
 333 134 l 0
0 134 m 0
 333 134 l 0
 333 -199 l 0
 0 -199 l 0
 0 134 l 0
333 467 m 0
 666 467 l 0
 666 134 l 0
 333 134 l 0
 333 467 l 0
0 467 m 0
 333 467 l 0
 333 134 l 0
 0 134 l 0
 0 467 l 0
666 800 m 0
 999 800 l 0
 999 467 l 0
 666 467 l 0
 666 800 l 0
0 800 m 0
 333 800 l 0
 333 467 l 0
 0 467 l 0
 0 800 l 0
EndSplineSet
EndChar

StartChar: glyph478
Encoding: 478 478 478
Width: 1000
LayerCount: 2
Fore
SplineSet
666 134 m 0
 999 134 l 0
 999 -199 l 0
 666 -199 l 0
 666 134 l 0
333 134 m 0
 666 134 l 0
 666 -199 l 0
 333 -199 l 0
 333 134 l 0
0 134 m 0
 333 134 l 0
 333 -199 l 0
 0 -199 l 0
 0 134 l 0
333 467 m 0
 666 467 l 0
 666 134 l 0
 333 134 l 0
 333 467 l 0
0 467 m 0
 333 467 l 0
 333 134 l 0
 0 134 l 0
 0 467 l 0
666 800 m 0
 999 800 l 0
 999 467 l 0
 666 467 l 0
 666 800 l 0
333 800 m 0
 666 800 l 0
 666 467 l 0
 333 467 l 0
 333 800 l 0
EndSplineSet
EndChar

StartChar: glyph479
Encoding: 479 479 479
Width: 1000
LayerCount: 2
Fore
SplineSet
666 134 m 0
 999 134 l 0
 999 -199 l 0
 666 -199 l 0
 666 134 l 0
333 134 m 0
 666 134 l 0
 666 -199 l 0
 333 -199 l 0
 333 134 l 0
0 134 m 0
 333 134 l 0
 333 -199 l 0
 0 -199 l 0
 0 134 l 0
333 467 m 0
 666 467 l 0
 666 134 l 0
 333 134 l 0
 333 467 l 0
0 467 m 0
 333 467 l 0
 333 134 l 0
 0 134 l 0
 0 467 l 0
666 800 m 0
 999 800 l 0
 999 467 l 0
 666 467 l 0
 666 800 l 0
333 800 m 0
 666 800 l 0
 666 467 l 0
 333 467 l 0
 333 800 l 0
0 800 m 0
 333 800 l 0
 333 467 l 0
 0 467 l 0
 0 800 l 0
EndSplineSet
EndChar

StartChar: glyph480
Encoding: 480 480 480
Width: 1000
LayerCount: 2
Fore
SplineSet
666 134 m 0
 999 134 l 0
 999 -199 l 0
 666 -199 l 0
 666 134 l 0
333 134 m 0
 666 134 l 0
 666 -199 l 0
 333 -199 l 0
 333 134 l 0
0 134 m 0
 333 134 l 0
 333 -199 l 0
 0 -199 l 0
 0 134 l 0
666 467 m 0
 999 467 l 0
 999 134 l 0
 666 134 l 0
 666 467 l 0
EndSplineSet
EndChar

StartChar: glyph481
Encoding: 481 481 481
Width: 1000
LayerCount: 2
Fore
SplineSet
666 134 m 0
 999 134 l 0
 999 -199 l 0
 666 -199 l 0
 666 134 l 0
333 134 m 0
 666 134 l 0
 666 -199 l 0
 333 -199 l 0
 333 134 l 0
0 134 m 0
 333 134 l 0
 333 -199 l 0
 0 -199 l 0
 0 134 l 0
666 467 m 0
 999 467 l 0
 999 134 l 0
 666 134 l 0
 666 467 l 0
0 800 m 0
 333 800 l 0
 333 467 l 0
 0 467 l 0
 0 800 l 0
EndSplineSet
EndChar

StartChar: glyph482
Encoding: 482 482 482
Width: 1000
LayerCount: 2
Fore
SplineSet
666 134 m 0
 999 134 l 0
 999 -199 l 0
 666 -199 l 0
 666 134 l 0
333 134 m 0
 666 134 l 0
 666 -199 l 0
 333 -199 l 0
 333 134 l 0
0 134 m 0
 333 134 l 0
 333 -199 l 0
 0 -199 l 0
 0 134 l 0
666 467 m 0
 999 467 l 0
 999 134 l 0
 666 134 l 0
 666 467 l 0
333 800 m 0
 666 800 l 0
 666 467 l 0
 333 467 l 0
 333 800 l 0
EndSplineSet
EndChar

StartChar: glyph483
Encoding: 483 483 483
Width: 1000
LayerCount: 2
Fore
SplineSet
666 134 m 0
 999 134 l 0
 999 -199 l 0
 666 -199 l 0
 666 134 l 0
333 134 m 0
 666 134 l 0
 666 -199 l 0
 333 -199 l 0
 333 134 l 0
0 134 m 0
 333 134 l 0
 333 -199 l 0
 0 -199 l 0
 0 134 l 0
666 467 m 0
 999 467 l 0
 999 134 l 0
 666 134 l 0
 666 467 l 0
333 800 m 0
 666 800 l 0
 666 467 l 0
 333 467 l 0
 333 800 l 0
0 800 m 0
 333 800 l 0
 333 467 l 0
 0 467 l 0
 0 800 l 0
EndSplineSet
EndChar

StartChar: glyph484
Encoding: 484 484 484
Width: 1000
LayerCount: 2
Fore
SplineSet
666 134 m 0
 999 134 l 0
 999 -199 l 0
 666 -199 l 0
 666 134 l 0
333 134 m 0
 666 134 l 0
 666 -199 l 0
 333 -199 l 0
 333 134 l 0
0 134 m 0
 333 134 l 0
 333 -199 l 0
 0 -199 l 0
 0 134 l 0
666 467 m 0
 999 467 l 0
 999 134 l 0
 666 134 l 0
 666 467 l 0
666 800 m 0
 999 800 l 0
 999 467 l 0
 666 467 l 0
 666 800 l 0
EndSplineSet
EndChar

StartChar: glyph485
Encoding: 485 485 485
Width: 1000
LayerCount: 2
Fore
SplineSet
666 134 m 0
 999 134 l 0
 999 -199 l 0
 666 -199 l 0
 666 134 l 0
333 134 m 0
 666 134 l 0
 666 -199 l 0
 333 -199 l 0
 333 134 l 0
0 134 m 0
 333 134 l 0
 333 -199 l 0
 0 -199 l 0
 0 134 l 0
666 467 m 0
 999 467 l 0
 999 134 l 0
 666 134 l 0
 666 467 l 0
666 800 m 0
 999 800 l 0
 999 467 l 0
 666 467 l 0
 666 800 l 0
0 800 m 0
 333 800 l 0
 333 467 l 0
 0 467 l 0
 0 800 l 0
EndSplineSet
EndChar

StartChar: glyph486
Encoding: 486 486 486
Width: 1000
LayerCount: 2
Fore
SplineSet
666 134 m 0
 999 134 l 0
 999 -199 l 0
 666 -199 l 0
 666 134 l 0
333 134 m 0
 666 134 l 0
 666 -199 l 0
 333 -199 l 0
 333 134 l 0
0 134 m 0
 333 134 l 0
 333 -199 l 0
 0 -199 l 0
 0 134 l 0
666 467 m 0
 999 467 l 0
 999 134 l 0
 666 134 l 0
 666 467 l 0
666 800 m 0
 999 800 l 0
 999 467 l 0
 666 467 l 0
 666 800 l 0
333 800 m 0
 666 800 l 0
 666 467 l 0
 333 467 l 0
 333 800 l 0
EndSplineSet
EndChar

StartChar: glyph487
Encoding: 487 487 487
Width: 1000
LayerCount: 2
Fore
SplineSet
666 134 m 0
 999 134 l 0
 999 -199 l 0
 666 -199 l 0
 666 134 l 0
333 134 m 0
 666 134 l 0
 666 -199 l 0
 333 -199 l 0
 333 134 l 0
0 134 m 0
 333 134 l 0
 333 -199 l 0
 0 -199 l 0
 0 134 l 0
666 467 m 0
 999 467 l 0
 999 134 l 0
 666 134 l 0
 666 467 l 0
666 800 m 0
 999 800 l 0
 999 467 l 0
 666 467 l 0
 666 800 l 0
333 800 m 0
 666 800 l 0
 666 467 l 0
 333 467 l 0
 333 800 l 0
0 800 m 0
 333 800 l 0
 333 467 l 0
 0 467 l 0
 0 800 l 0
EndSplineSet
EndChar

StartChar: glyph488
Encoding: 488 488 488
Width: 1000
LayerCount: 2
Fore
SplineSet
666 134 m 0
 999 134 l 0
 999 -199 l 0
 666 -199 l 0
 666 134 l 0
333 134 m 0
 666 134 l 0
 666 -199 l 0
 333 -199 l 0
 333 134 l 0
0 134 m 0
 333 134 l 0
 333 -199 l 0
 0 -199 l 0
 0 134 l 0
666 467 m 0
 999 467 l 0
 999 134 l 0
 666 134 l 0
 666 467 l 0
0 467 m 0
 333 467 l 0
 333 134 l 0
 0 134 l 0
 0 467 l 0
EndSplineSet
EndChar

StartChar: glyph489
Encoding: 489 489 489
Width: 1000
LayerCount: 2
Fore
SplineSet
666 134 m 0
 999 134 l 0
 999 -199 l 0
 666 -199 l 0
 666 134 l 0
333 134 m 0
 666 134 l 0
 666 -199 l 0
 333 -199 l 0
 333 134 l 0
0 134 m 0
 333 134 l 0
 333 -199 l 0
 0 -199 l 0
 0 134 l 0
666 467 m 0
 999 467 l 0
 999 134 l 0
 666 134 l 0
 666 467 l 0
0 467 m 0
 333 467 l 0
 333 134 l 0
 0 134 l 0
 0 467 l 0
0 800 m 0
 333 800 l 0
 333 467 l 0
 0 467 l 0
 0 800 l 0
EndSplineSet
EndChar

StartChar: glyph490
Encoding: 490 490 490
Width: 1000
LayerCount: 2
Fore
SplineSet
666 134 m 0
 999 134 l 0
 999 -199 l 0
 666 -199 l 0
 666 134 l 0
333 134 m 0
 666 134 l 0
 666 -199 l 0
 333 -199 l 0
 333 134 l 0
0 134 m 0
 333 134 l 0
 333 -199 l 0
 0 -199 l 0
 0 134 l 0
666 467 m 0
 999 467 l 0
 999 134 l 0
 666 134 l 0
 666 467 l 0
0 467 m 0
 333 467 l 0
 333 134 l 0
 0 134 l 0
 0 467 l 0
333 800 m 0
 666 800 l 0
 666 467 l 0
 333 467 l 0
 333 800 l 0
EndSplineSet
EndChar

StartChar: glyph491
Encoding: 491 491 491
Width: 1000
LayerCount: 2
Fore
SplineSet
666 134 m 0
 999 134 l 0
 999 -199 l 0
 666 -199 l 0
 666 134 l 0
333 134 m 0
 666 134 l 0
 666 -199 l 0
 333 -199 l 0
 333 134 l 0
0 134 m 0
 333 134 l 0
 333 -199 l 0
 0 -199 l 0
 0 134 l 0
666 467 m 0
 999 467 l 0
 999 134 l 0
 666 134 l 0
 666 467 l 0
0 467 m 0
 333 467 l 0
 333 134 l 0
 0 134 l 0
 0 467 l 0
333 800 m 0
 666 800 l 0
 666 467 l 0
 333 467 l 0
 333 800 l 0
0 800 m 0
 333 800 l 0
 333 467 l 0
 0 467 l 0
 0 800 l 0
EndSplineSet
EndChar

StartChar: glyph492
Encoding: 492 492 492
Width: 1000
LayerCount: 2
Fore
SplineSet
666 134 m 0
 999 134 l 0
 999 -199 l 0
 666 -199 l 0
 666 134 l 0
333 134 m 0
 666 134 l 0
 666 -199 l 0
 333 -199 l 0
 333 134 l 0
0 134 m 0
 333 134 l 0
 333 -199 l 0
 0 -199 l 0
 0 134 l 0
666 467 m 0
 999 467 l 0
 999 134 l 0
 666 134 l 0
 666 467 l 0
0 467 m 0
 333 467 l 0
 333 134 l 0
 0 134 l 0
 0 467 l 0
666 800 m 0
 999 800 l 0
 999 467 l 0
 666 467 l 0
 666 800 l 0
EndSplineSet
EndChar

StartChar: glyph493
Encoding: 493 493 493
Width: 1000
LayerCount: 2
Fore
SplineSet
666 134 m 0
 999 134 l 0
 999 -199 l 0
 666 -199 l 0
 666 134 l 0
333 134 m 0
 666 134 l 0
 666 -199 l 0
 333 -199 l 0
 333 134 l 0
0 134 m 0
 333 134 l 0
 333 -199 l 0
 0 -199 l 0
 0 134 l 0
666 467 m 0
 999 467 l 0
 999 134 l 0
 666 134 l 0
 666 467 l 0
0 467 m 0
 333 467 l 0
 333 134 l 0
 0 134 l 0
 0 467 l 0
666 800 m 0
 999 800 l 0
 999 467 l 0
 666 467 l 0
 666 800 l 0
0 800 m 0
 333 800 l 0
 333 467 l 0
 0 467 l 0
 0 800 l 0
EndSplineSet
EndChar

StartChar: glyph494
Encoding: 494 494 494
Width: 1000
LayerCount: 2
Fore
SplineSet
666 134 m 0
 999 134 l 0
 999 -199 l 0
 666 -199 l 0
 666 134 l 0
333 134 m 0
 666 134 l 0
 666 -199 l 0
 333 -199 l 0
 333 134 l 0
0 134 m 0
 333 134 l 0
 333 -199 l 0
 0 -199 l 0
 0 134 l 0
666 467 m 0
 999 467 l 0
 999 134 l 0
 666 134 l 0
 666 467 l 0
0 467 m 0
 333 467 l 0
 333 134 l 0
 0 134 l 0
 0 467 l 0
666 800 m 0
 999 800 l 0
 999 467 l 0
 666 467 l 0
 666 800 l 0
333 800 m 0
 666 800 l 0
 666 467 l 0
 333 467 l 0
 333 800 l 0
EndSplineSet
EndChar

StartChar: glyph495
Encoding: 495 495 495
Width: 1000
LayerCount: 2
Fore
SplineSet
666 134 m 0
 999 134 l 0
 999 -199 l 0
 666 -199 l 0
 666 134 l 0
333 134 m 0
 666 134 l 0
 666 -199 l 0
 333 -199 l 0
 333 134 l 0
0 134 m 0
 333 134 l 0
 333 -199 l 0
 0 -199 l 0
 0 134 l 0
666 467 m 0
 999 467 l 0
 999 134 l 0
 666 134 l 0
 666 467 l 0
0 467 m 0
 333 467 l 0
 333 134 l 0
 0 134 l 0
 0 467 l 0
666 800 m 0
 999 800 l 0
 999 467 l 0
 666 467 l 0
 666 800 l 0
333 800 m 0
 666 800 l 0
 666 467 l 0
 333 467 l 0
 333 800 l 0
0 800 m 0
 333 800 l 0
 333 467 l 0
 0 467 l 0
 0 800 l 0
EndSplineSet
EndChar

StartChar: glyph496
Encoding: 496 496 496
Width: 1000
LayerCount: 2
Fore
SplineSet
666 134 m 0
 999 134 l 0
 999 -199 l 0
 666 -199 l 0
 666 134 l 0
333 134 m 0
 666 134 l 0
 666 -199 l 0
 333 -199 l 0
 333 134 l 0
0 134 m 0
 333 134 l 0
 333 -199 l 0
 0 -199 l 0
 0 134 l 0
666 467 m 0
 999 467 l 0
 999 134 l 0
 666 134 l 0
 666 467 l 0
333 467 m 0
 666 467 l 0
 666 134 l 0
 333 134 l 0
 333 467 l 0
EndSplineSet
EndChar

StartChar: glyph497
Encoding: 497 497 497
Width: 1000
LayerCount: 2
Fore
SplineSet
666 134 m 0
 999 134 l 0
 999 -199 l 0
 666 -199 l 0
 666 134 l 0
333 134 m 0
 666 134 l 0
 666 -199 l 0
 333 -199 l 0
 333 134 l 0
0 134 m 0
 333 134 l 0
 333 -199 l 0
 0 -199 l 0
 0 134 l 0
666 467 m 0
 999 467 l 0
 999 134 l 0
 666 134 l 0
 666 467 l 0
333 467 m 0
 666 467 l 0
 666 134 l 0
 333 134 l 0
 333 467 l 0
0 800 m 0
 333 800 l 0
 333 467 l 0
 0 467 l 0
 0 800 l 0
EndSplineSet
EndChar

StartChar: glyph498
Encoding: 498 498 498
Width: 1000
LayerCount: 2
Fore
SplineSet
666 134 m 0
 999 134 l 0
 999 -199 l 0
 666 -199 l 0
 666 134 l 0
333 134 m 0
 666 134 l 0
 666 -199 l 0
 333 -199 l 0
 333 134 l 0
0 134 m 0
 333 134 l 0
 333 -199 l 0
 0 -199 l 0
 0 134 l 0
666 467 m 0
 999 467 l 0
 999 134 l 0
 666 134 l 0
 666 467 l 0
333 467 m 0
 666 467 l 0
 666 134 l 0
 333 134 l 0
 333 467 l 0
333 800 m 0
 666 800 l 0
 666 467 l 0
 333 467 l 0
 333 800 l 0
EndSplineSet
EndChar

StartChar: glyph499
Encoding: 499 499 499
Width: 1000
LayerCount: 2
Fore
SplineSet
666 134 m 0
 999 134 l 0
 999 -199 l 0
 666 -199 l 0
 666 134 l 0
333 134 m 0
 666 134 l 0
 666 -199 l 0
 333 -199 l 0
 333 134 l 0
0 134 m 0
 333 134 l 0
 333 -199 l 0
 0 -199 l 0
 0 134 l 0
666 467 m 0
 999 467 l 0
 999 134 l 0
 666 134 l 0
 666 467 l 0
333 467 m 0
 666 467 l 0
 666 134 l 0
 333 134 l 0
 333 467 l 0
333 800 m 0
 666 800 l 0
 666 467 l 0
 333 467 l 0
 333 800 l 0
0 800 m 0
 333 800 l 0
 333 467 l 0
 0 467 l 0
 0 800 l 0
EndSplineSet
EndChar

StartChar: glyph500
Encoding: 500 500 500
Width: 1000
LayerCount: 2
Fore
SplineSet
666 134 m 0
 999 134 l 0
 999 -199 l 0
 666 -199 l 0
 666 134 l 0
333 134 m 0
 666 134 l 0
 666 -199 l 0
 333 -199 l 0
 333 134 l 0
0 134 m 0
 333 134 l 0
 333 -199 l 0
 0 -199 l 0
 0 134 l 0
666 467 m 0
 999 467 l 0
 999 134 l 0
 666 134 l 0
 666 467 l 0
333 467 m 0
 666 467 l 0
 666 134 l 0
 333 134 l 0
 333 467 l 0
666 800 m 0
 999 800 l 0
 999 467 l 0
 666 467 l 0
 666 800 l 0
EndSplineSet
EndChar

StartChar: glyph501
Encoding: 501 501 501
Width: 1000
LayerCount: 2
Fore
SplineSet
666 134 m 0
 999 134 l 0
 999 -199 l 0
 666 -199 l 0
 666 134 l 0
333 134 m 0
 666 134 l 0
 666 -199 l 0
 333 -199 l 0
 333 134 l 0
0 134 m 0
 333 134 l 0
 333 -199 l 0
 0 -199 l 0
 0 134 l 0
666 467 m 0
 999 467 l 0
 999 134 l 0
 666 134 l 0
 666 467 l 0
333 467 m 0
 666 467 l 0
 666 134 l 0
 333 134 l 0
 333 467 l 0
666 800 m 0
 999 800 l 0
 999 467 l 0
 666 467 l 0
 666 800 l 0
0 800 m 0
 333 800 l 0
 333 467 l 0
 0 467 l 0
 0 800 l 0
EndSplineSet
EndChar

StartChar: glyph502
Encoding: 502 502 502
Width: 1000
LayerCount: 2
Fore
SplineSet
666 134 m 0
 999 134 l 0
 999 -199 l 0
 666 -199 l 0
 666 134 l 0
333 134 m 0
 666 134 l 0
 666 -199 l 0
 333 -199 l 0
 333 134 l 0
0 134 m 0
 333 134 l 0
 333 -199 l 0
 0 -199 l 0
 0 134 l 0
666 467 m 0
 999 467 l 0
 999 134 l 0
 666 134 l 0
 666 467 l 0
333 467 m 0
 666 467 l 0
 666 134 l 0
 333 134 l 0
 333 467 l 0
666 800 m 0
 999 800 l 0
 999 467 l 0
 666 467 l 0
 666 800 l 0
333 800 m 0
 666 800 l 0
 666 467 l 0
 333 467 l 0
 333 800 l 0
EndSplineSet
EndChar

StartChar: glyph503
Encoding: 503 503 503
Width: 1000
LayerCount: 2
Fore
SplineSet
666 134 m 0
 999 134 l 0
 999 -199 l 0
 666 -199 l 0
 666 134 l 0
333 134 m 0
 666 134 l 0
 666 -199 l 0
 333 -199 l 0
 333 134 l 0
0 134 m 0
 333 134 l 0
 333 -199 l 0
 0 -199 l 0
 0 134 l 0
666 467 m 0
 999 467 l 0
 999 134 l 0
 666 134 l 0
 666 467 l 0
333 467 m 0
 666 467 l 0
 666 134 l 0
 333 134 l 0
 333 467 l 0
666 800 m 0
 999 800 l 0
 999 467 l 0
 666 467 l 0
 666 800 l 0
333 800 m 0
 666 800 l 0
 666 467 l 0
 333 467 l 0
 333 800 l 0
0 800 m 0
 333 800 l 0
 333 467 l 0
 0 467 l 0
 0 800 l 0
EndSplineSet
EndChar

StartChar: glyph504
Encoding: 504 504 504
Width: 1000
LayerCount: 2
Fore
SplineSet
666 134 m 0
 999 134 l 0
 999 -199 l 0
 666 -199 l 0
 666 134 l 0
333 134 m 0
 666 134 l 0
 666 -199 l 0
 333 -199 l 0
 333 134 l 0
0 134 m 0
 333 134 l 0
 333 -199 l 0
 0 -199 l 0
 0 134 l 0
666 467 m 0
 999 467 l 0
 999 134 l 0
 666 134 l 0
 666 467 l 0
333 467 m 0
 666 467 l 0
 666 134 l 0
 333 134 l 0
 333 467 l 0
0 467 m 0
 333 467 l 0
 333 134 l 0
 0 134 l 0
 0 467 l 0
EndSplineSet
EndChar

StartChar: glyph505
Encoding: 505 505 505
Width: 1000
LayerCount: 2
Fore
SplineSet
666 134 m 0
 999 134 l 0
 999 -199 l 0
 666 -199 l 0
 666 134 l 0
333 134 m 0
 666 134 l 0
 666 -199 l 0
 333 -199 l 0
 333 134 l 0
0 134 m 0
 333 134 l 0
 333 -199 l 0
 0 -199 l 0
 0 134 l 0
666 467 m 0
 999 467 l 0
 999 134 l 0
 666 134 l 0
 666 467 l 0
333 467 m 0
 666 467 l 0
 666 134 l 0
 333 134 l 0
 333 467 l 0
0 467 m 0
 333 467 l 0
 333 134 l 0
 0 134 l 0
 0 467 l 0
0 800 m 0
 333 800 l 0
 333 467 l 0
 0 467 l 0
 0 800 l 0
EndSplineSet
EndChar

StartChar: glyph506
Encoding: 506 506 506
Width: 1000
LayerCount: 2
Fore
SplineSet
666 134 m 0
 999 134 l 0
 999 -199 l 0
 666 -199 l 0
 666 134 l 0
333 134 m 0
 666 134 l 0
 666 -199 l 0
 333 -199 l 0
 333 134 l 0
0 134 m 0
 333 134 l 0
 333 -199 l 0
 0 -199 l 0
 0 134 l 0
666 467 m 0
 999 467 l 0
 999 134 l 0
 666 134 l 0
 666 467 l 0
333 467 m 0
 666 467 l 0
 666 134 l 0
 333 134 l 0
 333 467 l 0
0 467 m 0
 333 467 l 0
 333 134 l 0
 0 134 l 0
 0 467 l 0
333 800 m 0
 666 800 l 0
 666 467 l 0
 333 467 l 0
 333 800 l 0
EndSplineSet
EndChar

StartChar: glyph507
Encoding: 507 507 507
Width: 1000
LayerCount: 2
Fore
SplineSet
666 134 m 0
 999 134 l 0
 999 -199 l 0
 666 -199 l 0
 666 134 l 0
333 134 m 0
 666 134 l 0
 666 -199 l 0
 333 -199 l 0
 333 134 l 0
0 134 m 0
 333 134 l 0
 333 -199 l 0
 0 -199 l 0
 0 134 l 0
666 467 m 0
 999 467 l 0
 999 134 l 0
 666 134 l 0
 666 467 l 0
333 467 m 0
 666 467 l 0
 666 134 l 0
 333 134 l 0
 333 467 l 0
0 467 m 0
 333 467 l 0
 333 134 l 0
 0 134 l 0
 0 467 l 0
333 800 m 0
 666 800 l 0
 666 467 l 0
 333 467 l 0
 333 800 l 0
0 800 m 0
 333 800 l 0
 333 467 l 0
 0 467 l 0
 0 800 l 0
EndSplineSet
EndChar

StartChar: glyph508
Encoding: 508 508 508
Width: 1000
LayerCount: 2
Fore
SplineSet
666 134 m 0
 999 134 l 0
 999 -199 l 0
 666 -199 l 0
 666 134 l 0
333 134 m 0
 666 134 l 0
 666 -199 l 0
 333 -199 l 0
 333 134 l 0
0 134 m 0
 333 134 l 0
 333 -199 l 0
 0 -199 l 0
 0 134 l 0
666 467 m 0
 999 467 l 0
 999 134 l 0
 666 134 l 0
 666 467 l 0
333 467 m 0
 666 467 l 0
 666 134 l 0
 333 134 l 0
 333 467 l 0
0 467 m 0
 333 467 l 0
 333 134 l 0
 0 134 l 0
 0 467 l 0
666 800 m 0
 999 800 l 0
 999 467 l 0
 666 467 l 0
 666 800 l 0
EndSplineSet
EndChar

StartChar: glyph509
Encoding: 509 509 509
Width: 1000
LayerCount: 2
Fore
SplineSet
666 134 m 0
 999 134 l 0
 999 -199 l 0
 666 -199 l 0
 666 134 l 0
333 134 m 0
 666 134 l 0
 666 -199 l 0
 333 -199 l 0
 333 134 l 0
0 134 m 0
 333 134 l 0
 333 -199 l 0
 0 -199 l 0
 0 134 l 0
666 467 m 0
 999 467 l 0
 999 134 l 0
 666 134 l 0
 666 467 l 0
333 467 m 0
 666 467 l 0
 666 134 l 0
 333 134 l 0
 333 467 l 0
0 467 m 0
 333 467 l 0
 333 134 l 0
 0 134 l 0
 0 467 l 0
666 800 m 0
 999 800 l 0
 999 467 l 0
 666 467 l 0
 666 800 l 0
0 800 m 0
 333 800 l 0
 333 467 l 0
 0 467 l 0
 0 800 l 0
EndSplineSet
EndChar

StartChar: glyph510
Encoding: 510 510 510
Width: 1000
LayerCount: 2
Fore
SplineSet
666 134 m 0
 999 134 l 0
 999 -199 l 0
 666 -199 l 0
 666 134 l 0
333 134 m 0
 666 134 l 0
 666 -199 l 0
 333 -199 l 0
 333 134 l 0
0 134 m 0
 333 134 l 0
 333 -199 l 0
 0 -199 l 0
 0 134 l 0
666 467 m 0
 999 467 l 0
 999 134 l 0
 666 134 l 0
 666 467 l 0
333 467 m 0
 666 467 l 0
 666 134 l 0
 333 134 l 0
 333 467 l 0
0 467 m 0
 333 467 l 0
 333 134 l 0
 0 134 l 0
 0 467 l 0
666 800 m 0
 999 800 l 0
 999 467 l 0
 666 467 l 0
 666 800 l 0
333 800 m 0
 666 800 l 0
 666 467 l 0
 333 467 l 0
 333 800 l 0
EndSplineSet
EndChar

StartChar: glyph511
Encoding: 511 511 511
Width: 1000
LayerCount: 2
Fore
SplineSet
666 134 m 0
 999 134 l 0
 999 -199 l 0
 666 -199 l 0
 666 134 l 0
333 134 m 0
 666 134 l 0
 666 -199 l 0
 333 -199 l 0
 333 134 l 0
0 134 m 0
 333 134 l 0
 333 -199 l 0
 0 -199 l 0
 0 134 l 0
666 467 m 0
 999 467 l 0
 999 134 l 0
 666 134 l 0
 666 467 l 0
333 467 m 0
 666 467 l 0
 666 134 l 0
 333 134 l 0
 333 467 l 0
0 467 m 0
 333 467 l 0
 333 134 l 0
 0 134 l 0
 0 467 l 0
666 800 m 0
 999 800 l 0
 999 467 l 0
 666 467 l 0
 666 800 l 0
333 800 m 0
 666 800 l 0
 666 467 l 0
 333 467 l 0
 333 800 l 0
0 800 m 0
 333 800 l 0
 333 467 l 0
 0 467 l 0
 0 800 l 0
EndSplineSet
EndChar
